<svg xmlns="http://www.w3.org/2000/svg" viewBox="0 0 55.42 53.88"><defs><style>.cls-1{fill:#be2433;}</style></defs><g id="Layer_2" data-name="Layer 2"><g id="Layer_1-2" data-name="Layer 1"><path class="cls-1" d="M53.16,51.54c0-.27.05-.47.05-.67,0-.66,0-1.32,0-2.07-.35,0-.66-.07-1-.08s-.66,0-1,0a1,1,0,0,1-1-.95,1.07,1.07,0,0,1,.8-1.11,3.85,3.85,0,0,1,1-.11c.7,0,1.4,0,2.1,0s1.24.43,1.26,1.23c0,1.61,0,3.21,0,4.82a1.22,1.22,0,0,1-1.24,1.28,8.19,8.19,0,0,1-.86,0H2.13c-.17,0-.33,0-.5,0C.38,53.83,0,53.48,0,52.24q0-3.41,0-6.8c0-1.42.25-1.67,1.64-1.68H15.34c0-.87,0-1.64,0-2.41,0-1.31.37-1.66,1.71-1.69.94,0,1.89,0,2.84,0,.36,0,.72,0,1.15-.06,0-.42.08-.78.08-1.14,0-3.87.09-7.75,0-11.62a16.11,16.11,0,0,0-1.8-7.11,10.59,10.59,0,0,0-2.49-3l-4.92-4.32c-.34-.3-.69-.58-1-.9A3.24,3.24,0,0,1,10,7.55a3.63,3.63,0,0,1,3.69-2.16,3.33,3.33,0,0,1,1.87.88L18,8.47c.27.24.56.45,1,.8a9,9,0,0,1,3.41-7.46A8.21,8.21,0,0,1,28,0a8.39,8.39,0,0,1,6.1,2.83,8.93,8.93,0,0,1,2.23,6.4,10.13,10.13,0,0,0,.91-.66c.81-.69,1.66-1.35,2.41-2.12a3.44,3.44,0,0,1,5.13.12,3.42,3.42,0,0,1-.54,5.19c-1.82,1.49-3.53,3.11-5.32,4.62a11.92,11.92,0,0,0-4.1,7,25.41,25.41,0,0,0-.62,5.5c.06,3.13,0,6.26,0,9.39v1.32c.49,0,.89.07,1.28.07.95,0,1.9,0,2.84,0,1.41,0,1.76.36,1.77,1.75s0,2.47,0,3.71V46.4a6.86,6.86,0,0,0,1.85.12,5.71,5.71,0,0,1,1.09.14,1,1,0,0,1,.71,1,1,1,0,0,1-.95,1,8.2,8.2,0,0,1-1.11,0H40.15v2.76C41,51.68,51.23,51.75,53.16,51.54Zm-15.45.08a62.19,62.19,0,0,0-.07-9.73H17.7a61,61,0,0,0,.08,9.73Zm0-40.63c-1.25,1.13-2.57,2.13-3.67,3.33a8.66,8.66,0,0,1-12.8,0,43.36,43.36,0,0,0-3.6-3.23l-1.83,1.83c1.69,1.64,3.69,3,5,5.14a20.5,20.5,0,0,1,2.29,6.9h9.09a20.09,20.09,0,0,1,2.27-6.87c1.3-2.11,3.31-3.51,5.09-5.23-.28-.31-.52-.58-.77-.83S38.17,11.38,37.75,11ZM27.67,2.21a6.38,6.38,0,0,0-6.39,6.34A6.65,6.65,0,0,0,27.64,15a6.59,6.59,0,0,0,6.45-6.46A6.35,6.35,0,0,0,27.67,2.21ZM26.56,39.54c0-1.33,0-2.52,0-3.71s.41-1.64,1.08-1.66,1.08.53,1.09,1.61v3.65a6.56,6.56,0,0,0,3.21,0v-12a51.89,51.89,0,0,0-8.48,0,97.28,97.28,0,0,0,.15,12.16ZM15.28,46.05c-1.85-.19-12.09-.13-13,.07a20.35,20.35,0,0,0,.12,5.46H15.28ZM41.4,11.3c.53-.48,1.13-1,1.68-1.52a1.07,1.07,0,0,0,0-1.72,1.14,1.14,0,0,0-1.73-.19c-.65.49-1.23,1.06-1.9,1.66ZM14,11.28l1.88-1.82c-.6-.52-1.17-1.06-1.78-1.54a1.16,1.16,0,0,0-1.82.17c-.55.64-.52,1.18.16,1.82C12.91,10.39,13.45,10.83,14,11.28Z"/><path class="cls-1" d="M41.41,24.78a5.13,5.13,0,0,1-.48.85c-.57.6-1.14,1.19-1.75,1.75a1.1,1.1,0,0,1-1.55.09,1.06,1.06,0,0,1,0-1.55c.6-.67,1.26-1.3,1.92-1.91a.85.85,0,0,1,1.14-.13A5,5,0,0,1,41.41,24.78Z"/><path class="cls-1" d="M15,38.05a5.52,5.52,0,0,1-.86-.65.82.82,0,0,1,0-1.13c.69-.75,1.42-1.47,2.17-2.15a.88.88,0,0,1,1.23.06,1,1,0,0,1,.25,1.32,2.46,2.46,0,0,1-.45.57c-.45.47-.9,1-1.39,1.38A7.82,7.82,0,0,1,15,38.05Z"/><path class="cls-1" d="M18,26.64a1.05,1.05,0,0,1-1.61.94,20.6,20.6,0,0,1-2.25-2.23.87.87,0,0,1,.11-1.23c.33-.35.83-.59,1.21-.26.85.75,1.62,1.59,2.41,2.41C17.94,26.37,17.94,26.57,18,26.64Z"/><path class="cls-1" d="M40.29,38a4.11,4.11,0,0,1-.85-.44,24.57,24.57,0,0,1-1.84-1.84,1.07,1.07,0,0,1,0-1.55A.93.93,0,0,1,39,34.16a21.71,21.71,0,0,1,2.08,2.1,1.13,1.13,0,0,1,.11,1C41,37.59,40.59,37.79,40.29,38Z"/><path class="cls-1" d="M39.36,29.87a12.16,12.16,0,0,1,1.35,0A1,1,0,0,1,41.64,31a.91.91,0,0,1-.92,1,26.39,26.39,0,0,1-2.95,0,1,1,0,0,1-.89-1,1,1,0,0,1,.88-1,14.2,14.2,0,0,1,1.6,0Z"/><path class="cls-1" d="M16,32a14.59,14.59,0,0,1-1.48,0,1,1,0,0,1-.94-1.08.93.93,0,0,1,.92-1,26.39,26.39,0,0,1,2.95,0,.92.92,0,0,1,.88,1A1.12,1.12,0,0,1,17.23,32H16Z"/><path class="cls-1" d="M48.09,47.66A1.11,1.11,0,0,1,47,48.71a1,1,0,0,1-1-1.17,1.09,1.09,0,0,1,1-1A1.15,1.15,0,0,1,48.09,47.66Z"/><path class="cls-1" d="M27.17,50V45.38a2.82,2.82,0,0,1-.5-.09c-.5-.22-.58-.57-.23-.94a.75.75,0,0,1,.2-.15c.54-.24,1-.94,1.64-.62s.36,1,.37,1.56c0,1.36,0,2.72,0,4.07C28.64,50.29,28.38,50.45,27.17,50Z"/><path class="cls-1" d="M27.6,32a1.18,1.18,0,0,1-1.06-1.14,1.08,1.08,0,0,1,1.05-1,1,1,0,0,1,1.1,1A1.11,1.11,0,0,1,27.6,32Z"/></g></g></svg>