<svg xmlns="http://www.w3.org/2000/svg" viewBox="0 0 41.23 53.88"><defs><style>.cls-1{fill:#be2433;}</style></defs><g id="Layer_2" data-name="Layer 2"><g id="Layer_1-2" data-name="Layer 1"><path class="cls-1" d="M17.3,43.52l1,2a6.56,6.56,0,0,1,.35.76.75.75,0,0,1-.39,1,.7.7,0,0,1-.94-.31c-.3-.47-.54-1-.82-1.46-.84-1.46-1.59-3-2.54-4.36a17.17,17.17,0,0,0-6.7-5.71A14.17,14.17,0,0,1,3.6,33a12,12,0,0,1-1.24-15.7c1-1.31,2.08-2.55,3.18-3.77a4.44,4.44,0,0,0,1.22-3.27c0-2.84,0-5.69,0-8.54A4.79,4.79,0,0,1,6.84.61.69.69,0,0,1,7.62,0a.72.72,0,0,1,.71.68,6.16,6.16,0,0,1,0,1c0,.72,0,1.43,0,2.25L22.3,5.18c0-.4.08-.74.09-1.08,0-1,0-2,0-3,0-.78.34-1.13.83-1.09S24,.39,24,1.07c0,2.4,0,4.81,0,7.21a2.11,2.11,0,0,1,0,.36.76.76,0,0,1-.76.65.67.67,0,0,1-.73-.64c-.08-.59-.11-1.18-.17-1.87L8.42,5.52c0,.5-.06.89-.06,1.28,0,1.28,0,2.56,0,3.85a5.12,5.12,0,0,1-1.32,3.51c-.92,1.06-1.83,2.13-2.73,3.2-.2.23-.36.49-.71,1l18.73-4.61c0-.57,0-1.09.07-1.59.06-.67.36-1,.82-1s.74.38.75,1c0,2.33,0,4.65,0,7a5.58,5.58,0,0,0,.88,3.18q1.09,1.72,2.1,3.51a18.63,18.63,0,0,1,2.36,8.24c.1,1.72.17,3.45.24,5.17a4.94,4.94,0,0,0,3.06,4.64,9.55,9.55,0,0,0,2.34.49c.63.09,1.28,0,1.92.12a4.75,4.75,0,0,1,4.36,4.87,4.62,4.62,0,0,1-4.73,4.47c-3.17,0-6.34,0-9.51,0a10.11,10.11,0,0,1-7.11-3,7.59,7.59,0,0,1-.78-.92.68.68,0,0,1,.12-1,.72.72,0,0,1,1,0,6.24,6.24,0,0,1,.68.68A8.53,8.53,0,0,0,27,52.23q4.74.08,9.5,0a2.91,2.91,0,0,0,3.09-2.85,3.07,3.07,0,0,0-3-3.28q-1.14-.12-2.28-.18a6.48,6.48,0,0,1-4.58-2.08,1.36,1.36,0,0,0-1.11-.56C25,43.38,21.23,43.44,17.3,43.52Zm5.05-27.8-.12-.25c-.42.08-.85.14-1.26.24l-5.6,1.38C11.44,18.05,7.52,19,3.58,20A1.9,1.9,0,0,0,2,21.47a10.38,10.38,0,0,0,1.59,9,17.82,17.82,0,0,0,1.48,1.7c.33-.29.54-.46.74-.65L14.7,23.1c.38-.35.76-.71,1.16-1a.74.74,0,0,1,1.08,0,.72.72,0,0,1,0,1.08c-.32.35-.67.69-1,1L7.21,32.45c-.22.21-.4.45-.69.78.59.32,1.1.54,1.55.85a3,3,0,0,0,2.83.25c4.91-1.61,9.84-3.15,14.76-4.72.33-.11.65-.25,1.1-.42-.43-.93-.76-1.79-1.2-2.59-.64-1.15-1.34-2.27-2.06-3.39a6.57,6.57,0,0,1-1.09-3.62c0-.42,0-.83-.08-1.47l-2.21,2c-.23.21-.45.45-.7.65a.76.76,0,0,1-1.09,0c-.35-.3-.34-.71,0-1.16a6.26,6.26,0,0,1,.52-.51c1-.94,2-1.87,3-2.82A7.49,7.49,0,0,0,22.35,15.72ZM27.24,31a160.31,160.31,0,0,0-15.85,5,.67.67,0,0,0,.12.2,20.5,20.5,0,0,1,4.58,5.2,1.09,1.09,0,0,0,1.11.5l10.2-.17a7.91,7.91,0,0,0,.91-.13C27.55,38.09,28.19,34.48,27.24,31Z"/></g></g></svg>