<svg xmlns="http://www.w3.org/2000/svg" viewBox="0 0 52.97 53.88"><defs><style>.cls-1{fill:#be2433;}</style></defs><g id="Layer_2" data-name="Layer 2"><g id="Layer_1-2" data-name="Layer 1"><path class="cls-1" d="M34,30.63c-.24,2-.48,4-.71,5.95a25.09,25.09,0,0,0-.38,5.26,3.21,3.21,0,0,0,1.82,2.76,5.85,5.85,0,0,0,3.5.6,3.2,3.2,0,0,0,2.4-1.63,6.69,6.69,0,0,0,1-2.94c.1-1.31.22-2.64.19-4A12.55,12.55,0,0,1,45,27.74a7.17,7.17,0,0,0,.74-8.5,14,14,0,0,0-5.42-5.66,8.93,8.93,0,0,0-6.7-1.11A4.48,4.48,0,0,0,30,16.93a9,9,0,0,0,1.38,4.66,18.39,18.39,0,0,1,2,4.1c.25.8.13,1.28-.36,1.45s-.92-.09-1.15-.91a18.22,18.22,0,0,0-2-4.1,8.88,8.88,0,0,1-1.25-6.68,6,6,0,0,1,5-4.62A10.65,10.65,0,0,1,42.39,13a15.18,15.18,0,0,1,5.55,7.38,8,8,0,0,1-1.4,7.91,12.06,12.06,0,0,0-2.8,5.11,18.92,18.92,0,0,0-.27,2.25c-.14,1.92-.2,3.84-.42,5.74a8.22,8.22,0,0,1-.73,2.4,5,5,0,0,1-5.39,2.92,12.37,12.37,0,0,1-2.44-.56,4.55,4.55,0,0,1-3.05-3.7,16.68,16.68,0,0,1,.2-5.37,40.33,40.33,0,0,0,.66-7.76,2.17,2.17,0,0,1,0-.72.8.8,0,0,1,.74-.68.77.77,0,0,1,.8.73c.05.64,0,1.28,0,1.92Z"/><path class="cls-1" d="M20.11,47.43c-.25-1.86-.46-3.73-.75-5.59a22.4,22.4,0,0,1,.1-8.48,17.56,17.56,0,0,1,2.15-4.8,8.28,8.28,0,0,0,1.3-5.15A4.09,4.09,0,0,0,20.6,20a6.89,6.89,0,0,0-4.44-.64,12.11,12.11,0,0,0-7.59,4.89,11.82,11.82,0,0,0-1.88,3.2,6.79,6.79,0,0,0,.87,6.82c.07.1.15.19.21.29.3.5.29.92-.06,1.19a.75.75,0,0,1-1.07-.17,7.22,7.22,0,0,1-1-1.32,7.77,7.77,0,0,1-.73-6.39,15,15,0,0,1,8.44-9.34,10.1,10.1,0,0,1,5.52-.76,6.36,6.36,0,0,1,5.64,7.55,9.2,9.2,0,0,1-1.48,4c-2.34,3.37-2.71,7.11-2.21,11.05.33,2.53.65,5.08.85,7.63a4.81,4.81,0,0,1-1,3.51,6,6,0,0,1-1.09,1.1,7.2,7.2,0,0,1-5.16,1.18,4.86,4.86,0,0,1-3.82-3,11,11,0,0,1-1-4.06c-.09-1.4-.16-2.81-.16-4.21a10.08,10.08,0,0,0-1.05-4.28c-.11-.25-.25-.5-.37-.75a.73.73,0,0,1,.28-1,.77.77,0,0,1,1.07.2,2.85,2.85,0,0,1,.3.51,11.38,11.38,0,0,1,1.39,5.17c0,1.72.12,3.44.23,5.16a6.71,6.71,0,0,0,.9,2.84,3.23,3.23,0,0,0,3,1.78,8.18,8.18,0,0,0,2.36-.36A3.24,3.24,0,0,0,20,48.76c0-.44,0-.88,0-1.32Z"/><path class="cls-1" d="M24.39,11.92a3.89,3.89,0,0,0-.64-2.3,1.73,1.73,0,0,0-2.91-.34c-.25.25-.42.58-.66.85a.78.78,0,0,1-1,.14.67.67,0,0,1-.31-.93c.81-1.59,2.47-2.77,4.33-2.13a3.78,3.78,0,0,1,1.95,1.7,6.37,6.37,0,0,1-.45,7c-1.75,2.1-4.18,1.69-5.59-.26A5.73,5.73,0,0,1,18.23,12a.65.65,0,0,1,.68-.69.68.68,0,0,1,.78.59A13.22,13.22,0,0,0,20,13.55a4.74,4.74,0,0,0,.81,1.56,1.6,1.6,0,0,0,2.51,0A4.18,4.18,0,0,0,24.39,11.92Z"/><path class="cls-1" d="M34.71,5.64a4.94,4.94,0,0,1-.86,3c-1.26,1.81-3.57,2.62-5.57.35A5.8,5.8,0,0,1,27,5.52a.85.85,0,0,1,.09-.58,1.08,1.08,0,0,1,.67-.37.82.82,0,0,1,.66.36A3.27,3.27,0,0,1,28.61,6a3.75,3.75,0,0,0,1.15,2.19,1.59,1.59,0,0,0,2.35,0,3.48,3.48,0,0,0,1-2,4.6,4.6,0,0,0-.62-3.46c-.68-1.14-1.92-1.67-3.08-.45l-.16.18c-.3.32-.62.53-1,.22s-.41-.78-.08-1.29A3.18,3.18,0,0,1,32.56.57,5.58,5.58,0,0,1,34.71,5.64Z"/><path class="cls-1" d="M45.75,7.4a4.27,4.27,0,0,1-1.34,3.22,2.22,2.22,0,0,1-3.5-.52,4,4,0,0,1,.94-5,2.16,2.16,0,0,1,3.37.7A8.33,8.33,0,0,1,45.75,7.4Zm-1.65.13A1.3,1.3,0,0,0,44,7a1.48,1.48,0,0,0-.57-.7c-.37-.19-.68.1-.91.39a2.49,2.49,0,0,0-.36,2.39c.21.66.82.76,1.32.27A2.4,2.4,0,0,0,44.1,7.53Z"/><path class="cls-1" d="M12.61,15.23a9.19,9.19,0,0,1-.44,1.6,2.27,2.27,0,0,1-3.85.65,4.16,4.16,0,0,1-.78-4.36,2.3,2.3,0,0,1,3.93-.64A4.61,4.61,0,0,1,12.61,15.23Zm-1.7.09a2.35,2.35,0,0,0-.65-1.8c-.48-.45-1-.38-1.22.24A4.18,4.18,0,0,0,9,15.52a1.24,1.24,0,0,0,1.22,1.11C10.65,16.55,10.91,16.06,10.91,15.32Z"/><path class="cls-1" d="M35.16,5.43a3.53,3.53,0,0,1,1.13-2.66,2.14,2.14,0,0,1,2.94,0,3.92,3.92,0,0,1,.18,5.41,2.15,2.15,0,0,1-3.12.07A3.71,3.71,0,0,1,35.16,5.43Zm3.74.08a8.45,8.45,0,0,0-.61-1.4.66.66,0,0,0-1.12,0,2.6,2.6,0,0,0,0,2.81.69.69,0,0,0,1.2,0A7.78,7.78,0,0,0,38.9,5.51Z"/><path class="cls-1" d="M50.26,11.54a4.17,4.17,0,0,1-1.94,3.15,2.26,2.26,0,0,1-3.62-1.76,4.07,4.07,0,0,1,1.93-3.85C48.44,8.08,50.27,9.18,50.26,11.54Zm-4.07,1.08c.1.19.19.63.45.75a1.15,1.15,0,0,0,1-.16,2.15,2.15,0,0,0,1-2.05,1.06,1.06,0,0,0-.42-.76,1.05,1.05,0,0,0-.88.15A2.69,2.69,0,0,0,46.19,12.62Z"/><path class="cls-1" d="M17.79,12.51a3.8,3.8,0,0,1-.9,2.54,2.24,2.24,0,0,1-3.68-.21,4,4,0,0,1,.1-4.6,2.28,2.28,0,0,1,3.84.11A3.77,3.77,0,0,1,17.79,12.51Zm-2.67,1.87a2.32,2.32,0,0,0,.71-3.15.67.67,0,0,0-1.18-.09A2.24,2.24,0,0,0,15.12,14.38Z"/><path class="cls-1" d="M8.3,19.15c-.06,1.41-.36,2.26-1.28,2.73a2.35,2.35,0,0,1-2.68-.37,4,4,0,0,1-1.64-3.3A2.36,2.36,0,0,1,4,16a2.4,2.4,0,0,1,2.49.29A4.14,4.14,0,0,1,8.3,19.15Zm-1.6.64a2.61,2.61,0,0,0-1.4-2.41.66.66,0,0,0-1,.55,2.37,2.37,0,0,0,1,2.36,1.29,1.29,0,0,0,1,.08C6.57,20.28,6.65,19.88,6.7,19.79Z"/><path class="cls-1" d="M47.88,17.08a3.4,3.4,0,0,1,3-3.12,2,2,0,0,1,2,2.68A3.58,3.58,0,0,1,50,19.18,2,2,0,0,1,47.88,17.08Zm1.71.4c1.3-.08,1.73-.58,1.6-1.77C50,15.66,49.56,16.13,49.59,17.48Z"/><path class="cls-1" d="M5.06,24.17a1.93,1.93,0,0,1-2.27,2A3.39,3.39,0,0,1,0,22.78,2,2,0,0,1,2,21,3.41,3.41,0,0,1,5.06,24.17Zm-3.3-1.55c-.16,1.35.4,1.95,1.58,1.79C3.39,23.25,3.05,22.85,1.76,22.62Z"/></g></g></svg>