<svg xmlns="http://www.w3.org/2000/svg" viewBox="0 0 33.78 53.88"><defs><style>.cls-1{fill:#be2433;}</style></defs><g id="Layer_2" data-name="Layer 2"><g id="Layer_1-2" data-name="Layer 1"><path class="cls-1" d="M8.37,37V34c-.75-.09-1.45-.2-2.16-.27A1.79,1.79,0,0,1,4.33,32a18.61,18.61,0,0,1,0-2.49l-1.57-.07A2.57,2.57,0,0,1,0,26.64c0-.44,0-.88,0-1.32a2.54,2.54,0,0,1,2.58-2.61c.91,0,1.83,0,2.7,0A18.16,18.16,0,0,1,6,19.88a2.89,2.89,0,0,1,2.44-1.44v-3c-.79-.11-1.49-.22-2.19-.29A1.86,1.86,0,0,1,4.3,13.41a6,6,0,0,1-.06-1.2c0-.35,0-.7.09-1.19l-1.69-.08A2.55,2.55,0,0,1,0,8.26c0-.49,0-1,0-1.45A2.53,2.53,0,0,1,2.56,4.18c.76,0,1.53,0,2.29,0a4.28,4.28,0,0,0,.66-.11c0-.43,0-.83,0-1.22A2.81,2.81,0,0,1,8.59,0a36.79,36.79,0,0,1,4.26.72A9.41,9.41,0,0,1,14,1.1a9,9,0,0,0,5.89,0,25.1,25.1,0,0,1,4.68-1c2.36-.28,3.63,1,3.65,3.32,0,.2,0,.39,0,.71.38,0,.72.09,1.06.1.72,0,1.45,0,2.16.06a2.44,2.44,0,0,1,2.26,2.4,13.67,13.67,0,0,1,0,1.92,2.45,2.45,0,0,1-2.3,2.36c-.63.07-1.26.06-1.92.09,0,.66,0,1.25,0,1.84,0,1.62-.63,2.2-2.25,2.34-.59.05-1.18.16-1.94.27V18.4c2.36.4,3.16,2,2.91,4.3H31a2.41,2.41,0,0,1,2.44,1.62,5.5,5.5,0,0,1,0,3.54,2.26,2.26,0,0,1-2.19,1.59c-.6,0-1.19,0-1.85,0,0,.43,0,.74,0,1.05a10.38,10.38,0,0,1-.08,1.67,1.73,1.73,0,0,1-1.75,1.5L25.38,34v3c2.26.36,3,1.93,2.82,4.28H31a2.29,2.29,0,0,1,2.47,1.71,8.77,8.77,0,0,1,0,3.31A2.16,2.16,0,0,1,31.32,48c-.6,0-1.2,0-1.88,0,0,.42,0,.73,0,1a11.79,11.79,0,0,1-.11,1.79A1.52,1.52,0,0,1,28,52.16a42.5,42.5,0,0,0-6.6,1.28A24.92,24.92,0,0,1,10,52.9a36.89,36.89,0,0,0-3.78-.67c-1-.15-1.66-.56-1.82-1.59a18,18,0,0,1,0-2.56C3.87,48.06,3.41,48,3,48,.94,48,0,47,0,45q0-.54,0-1.08a2.56,2.56,0,0,1,2.61-2.7c.92,0,1.83,0,2.66,0A17.94,17.94,0,0,1,6,38.38,2.94,2.94,0,0,1,8.37,37ZM6,50.33l5.81,1.26a19.49,19.49,0,0,0,7.64.4c2.71-.51,5.41-1.06,8.11-1.6a2.67,2.67,0,0,0-.35-2.6c-.46-.88-.21-1.4.76-1.48a17.57,17.57,0,0,1,1.92,0C32.2,46.37,32,46,32,44.13c0-.91-.25-1.14-1.14-1.16s-1.53,0-2.29,0c-1.55,0-2.2-.77-2.08-2.35s-.44-2.06-1.9-1.83a28.81,28.81,0,0,0-4.32,1,10.58,10.58,0,0,1-7,0,8.88,8.88,0,0,0-1.14-.36c-1.14-.23-2.28-.5-3.43-.62s-1.55.45-1.55,1.5c0,.24.07.48.08.71A1.84,1.84,0,0,1,5.5,43c-.6,0-1.21,0-1.81,0-2,0-2,.07-2,2,0,1.1.22,1.29,1.37,1.31.84,0,1.69,0,2.53,0,1.13.05,1.4.57.82,1.56A3.12,3.12,0,0,0,6,50.33ZM6,13.26c2.13.47,4.11.94,6.11,1.34a17.45,17.45,0,0,0,6,.48c3.2-.48,6.37-1.13,9.53-1.7a2.88,2.88,0,0,0-.45-2.7.89.89,0,0,1,.75-1.44c.68,0,1.37,0,2,0,2.23.07,2-.3,2-2.23,0-.83-.26-1.07-1.09-1.1s-1.76,0-2.64,0a1.84,1.84,0,0,1-1.83-2.05c0-.24.07-.47.07-.71A1.3,1.3,0,0,0,25,1.69a4.4,4.4,0,0,0-1,.09c-1.24.29-2.51.53-3.73.93a10.39,10.39,0,0,1-6.83,0,11.51,11.51,0,0,0-1.38-.42c-1.18-.24-2.36-.49-3.55-.61-.81-.08-1.26.4-1.35,1.2a4.72,4.72,0,0,0,0,.84A1.82,1.82,0,0,1,5.31,5.89H3.75c-2,0-2.12.09-2,2.08,0,1,.24,1.23,1.31,1.25.81,0,1.61,0,2.41,0,1.31,0,1.6.51,1,1.63A3.12,3.12,0,0,0,6,13.26ZM6,31.81c2,.42,3.81.79,5.64,1.21a20.59,20.59,0,0,0,8.94.27c1.88-.38,3.76-.79,5.65-1.18.46-.09.92-.14,1.38-.21a3.28,3.28,0,0,0-.44-2.71c-.46-.77-.15-1.33.74-1.41a17.57,17.57,0,0,1,1.92,0c2.28.06,2.18-.17,2.14-2.24,0-.82-.26-1.06-1.09-1.09s-1.69,0-2.53,0a1.73,1.73,0,0,1-1.67-.94,2,2,0,0,1-.24-1.37c.15-1.53-.42-2.12-1.95-1.88a22,22,0,0,0-3.86.88,11,11,0,0,1-7.64,0,5.16,5.16,0,0,0-.92-.29c-1.18-.22-2.35-.48-3.55-.6-.8-.08-1.26.4-1.34,1.21a4.76,4.76,0,0,0,0,.84,1.83,1.83,0,0,1-1.94,2.14H3.74c-2,0-2.11.09-2,2.09,0,1,.24,1.21,1.2,1.24s1.69,0,2.53,0c1.31,0,1.59.5,1,1.62A3.08,3.08,0,0,0,6,31.81Zm4.14-13.25,4.69,1.31a6.77,6.77,0,0,0,3.68.08c1.65-.47,3.3-.92,5-1.38v-2.7a24.25,24.25,0,0,1-13.33,0ZM23.54,34.39a24.29,24.29,0,0,1-13.34,0v2.67c1.4.4,2.7.79,4,1.13a7,7,0,0,0,3.31.43c2-.46,4-1,6-1.52Z"/><path class="cls-1" d="M11.65,49.88l.29-1.36a62,62,0,0,0,6.63.19,63.36,63.36,0,0,0,6.57-1.15l.27,1.5C20.88,50.43,16.4,51.08,11.65,49.88Z"/><path class="cls-1" d="M10.33,47.87,9.9,49.45l-1.6-.33.3-1.61Z"/><path class="cls-1" d="M25.12,10.5,25.41,12c-4.51,1.38-9,2-13.76.83L12,11.26a22.06,22.06,0,0,0,6.65.41C20.79,11.35,22.9,10.91,25.12,10.5Z"/><path class="cls-1" d="M9.9,12.43,8.29,12l.31-1.58,1.71.35Z"/><path class="cls-1" d="M25.13,29l.28,1.49c-4.51,1.39-9,2-13.76.84L12,29.79a21.83,21.83,0,0,0,6.66.41C20.8,29.88,22.91,29.44,25.13,29Z"/><path class="cls-1" d="M8.29,30.58,8.6,29l1.7.34-.38,1.6Z"/></g></g></svg>