<svg xmlns="http://www.w3.org/2000/svg" viewBox="0 0 19 23.33"><defs><style>.cls-1{fill:#be2433;}</style></defs><g id="Layer_2" data-name="Layer 2"><g id="Layer_1-2" data-name="Layer 1"><path class="cls-1" d="M10.26,9A6,6,0,0,1,11,13.19a11.86,11.86,0,0,0,.5,5.64c.16.46.37.9.56,1.35a2.93,2.93,0,0,1,.27,1.46,1.76,1.76,0,0,1-1.79,1.67,5.76,5.76,0,0,1-1.49-.21,3.94,3.94,0,0,0-2.1,0,7.9,7.9,0,0,1-2.27.24,1.62,1.62,0,0,1-1.52-1.2A.89.89,0,0,1,3.55,21a4.83,4.83,0,0,1,.89-.42c.63-.21,1.26-.38,1.89-.57.81-.25,1-.53.91-1.38a6.75,6.75,0,0,0-.68-2.28,29.76,29.76,0,0,1-1.5-3.65c-.12-.37-.22-.73-.32-1.1,0-.2-.12-.34-.35-.38a1.55,1.55,0,0,1-.8-2.65.81.81,0,0,0,.21-.46,3.25,3.25,0,0,1,1-2,1.56,1.56,0,0,0,.38-.54A13.26,13.26,0,0,1,9.71.19,1,1,0,0,1,10.34,0C13,0,15.72,0,18.41,0c.52,0,.7.25.53.76A9.12,9.12,0,0,1,13.05,6.9c-.46.16-.91.33-1.36.52A2.46,2.46,0,0,0,10.26,9Zm-.55-.72a3.84,3.84,0,0,1,2.35-1.84,19.6,19.6,0,0,0,2.11-.89A7.86,7.86,0,0,0,18,1.06a2.19,2.19,0,0,0,0-.25l-.69,0H11.79C9.88.8,10.43.53,8.89,1.89A10.85,10.85,0,0,0,6,5.75a2.54,2.54,0,0,1-.78,1.13,1.79,1.79,0,0,0-.65,1.25,1.61,1.61,0,0,1,.83,3,3.1,3.1,0,0,0,.09.39c.37,1.06.72,2.13,1.12,3.18.32.84.73,1.65,1.06,2.49A4.76,4.76,0,0,1,8.05,19,1.67,1.67,0,0,1,6.84,20.7c-.26.09-.54.15-.8.24-.54.17-1.09.33-1.63.52a3.57,3.57,0,0,0-.51.29c.17.6.39.82,1,.79a10.51,10.51,0,0,0,1.85-.23,5.24,5.24,0,0,1,2.52,0,4.89,4.89,0,0,0,1.07.18,1.07,1.07,0,0,0,1.22-1.37,5.85,5.85,0,0,0-.4-1.13,13,13,0,0,1-1-4.17,19.28,19.28,0,0,1,.17-3.31A4.53,4.53,0,0,0,8.56,8.3,1,1,0,0,1,8.24,8a.45.45,0,0,1,0-.41.52.52,0,0,1,.41-.12c.1,0,.21.12.3.19ZM5.43,9.73A.78.78,0,0,0,4.67,9a.77.77,0,0,0-.78.74.77.77,0,1,0,1.54,0Z"/><path class="cls-1" d="M0,9.83A4.62,4.62,0,0,1,1.16,6.64a.83.83,0,0,1,.31-.26.62.62,0,0,1,.42.08A.3.3,0,0,1,2,6.88a4.08,4.08,0,0,1-.25.33,3.85,3.85,0,0,0,0,5.05,3,3,0,0,1,.22.28.33.33,0,0,1-.05.47.35.35,0,0,1-.51,0,2.06,2.06,0,0,1-.25-.26A4.48,4.48,0,0,1,0,9.83Z"/><path class="cls-1" d="M1.55,9.71a3.05,3.05,0,0,1,.69-1.94,1.32,1.32,0,0,1,.3-.28A.34.34,0,0,1,3,7.56.34.34,0,0,1,3.06,8a3.25,3.25,0,0,1-.23.29,2.34,2.34,0,0,0,0,2.84L3,11.4a.35.35,0,0,1,0,.51.37.37,0,0,1-.52,0,3.52,3.52,0,0,1-.31-.35A3.11,3.11,0,0,1,1.55,9.71Z"/><path class="cls-1" d="M12.44,2.32c.12.09.26.16.31.26a.56.56,0,0,1,0,.38c0,.09-.14.14-.23.2A8.8,8.8,0,0,0,9.86,6.07l-.21.35A.38.38,0,0,1,9,6.06a.61.61,0,0,1,.07-.14A9.52,9.52,0,0,1,12,2.58,4.37,4.37,0,0,1,12.44,2.32Z"/><path class="cls-1" d="M9.32,12.8a1.45,1.45,0,0,1,0,.52.54.54,0,0,1-.34.26.49.49,0,0,1-.35-.24,1.09,1.09,0,0,1-.08-.45,5.49,5.49,0,0,0-.66-2.54A.38.38,0,1,1,8.51,10a8.83,8.83,0,0,1,.57,1.39A12.92,12.92,0,0,1,9.32,12.8Z"/><path class="cls-1" d="M9.26,20.4a2,2,0,0,1,.2-.47A.37.37,0,0,1,10,20a.87.87,0,0,1,0,.92.36.36,0,0,1-.5,0A2,2,0,0,1,9.26,20.4Z"/></g></g></svg>