<svg xmlns="http://www.w3.org/2000/svg" viewBox="0 0 23.34 23.33"><defs><style>.cls-1{fill:#be2433;}</style></defs><g id="Layer_2" data-name="Layer 2"><g id="Layer_1-2" data-name="Layer 1"><path class="cls-1" d="M3.54,19.75c0-.22-.07-.39-.08-.56a19.74,19.74,0,0,1,1.19-8.75,10.13,10.13,0,0,1,6-5.91A18.94,18.94,0,0,1,17.6,3.38c.71,0,1.42.05,2.19.08,0,.3.08.55.09.8a20.88,20.88,0,0,1-.71,7.17A12.16,12.16,0,0,1,17.51,15a10.13,10.13,0,0,1-4.9,3.73A17.56,17.56,0,0,1,6.7,19.87c-1,0-1.91-.05-2.87-.07Zm1.25-2.87a36.76,36.76,0,0,1,3-4.41,27.61,27.61,0,0,1,3.68-3.82l.4.45c-1,1-1.91,1.9-2.77,2.9s-1.66,2.09-2.44,3.18a12.6,12.6,0,0,0-1.92,3.43A31.17,31.17,0,0,0,18.6,4.71a31.3,31.3,0,0,0-6.15,4L12,8.16c.55-.43,1.05-.84,1.57-1.22s1.07-.76,1.62-1.13,1-.67,1.58-1l-.06-.1A17.44,17.44,0,0,0,8.63,9.36,16.93,16.93,0,0,0,4.79,16.88Zm2.58,2.25c.12,0,.24,0,.36,0a18,18,0,0,0,5-1.2A9.43,9.43,0,0,0,18,12.76a17.51,17.51,0,0,0,1.21-5,1.48,1.48,0,0,0,0-.21,1,1,0,0,0,0-.16,22.65,22.65,0,0,1-2.44,5.08,14.21,14.21,0,0,1-4,4.06l-.4-.55a14,14,0,0,0,4-4.15,18.08,18.08,0,0,0,2.25-5.27C17.73,7.68,17,8.86,16.12,10a25.82,25.82,0,0,1-2.83,3.27,26,26,0,0,1-3.23,2.79c-1.15.84-2.34,1.62-3.51,2.43a18.77,18.77,0,0,0,5.24-2.18l.33.57A23.64,23.64,0,0,1,7.37,19.13ZM4.23,15.92c.07-.19.14-.38.22-.57.34-.85.65-1.72,1-2.55A15,15,0,0,1,11,6.49a19.26,19.26,0,0,1,4.27-2l.34-.12.31-.14A14.73,14.73,0,0,0,9.53,5.84a8.9,8.9,0,0,0-3,2.66A11.41,11.41,0,0,0,5,11.41,14.69,14.69,0,0,0,4.23,15.92Z"/><path class="cls-1" d="M17,17.15l.48.44-.41.4a13,13,0,0,1-5.44,2.74,21.16,21.16,0,0,1-5.47.7A4.9,4.9,0,0,0,2.38,23l-.33.31-.41-.52a5.38,5.38,0,0,1,2.84-1.87A6.72,6.72,0,0,1,6,20.74a21.86,21.86,0,0,0,6.07-.85,11.82,11.82,0,0,0,4.68-2.54Z"/><path class="cls-1" d="M18,17.16l-.52-.49a.79.79,0,0,1,.08-.16,13,13,0,0,0,2.63-5.6,22.75,22.75,0,0,0,.54-5.07,5.47,5.47,0,0,1,2.09-4.23l.24.18.24.26-.46.49a4.62,4.62,0,0,0-1.41,3.37,22.17,22.17,0,0,1-.84,6.22,13,13,0,0,1-2.05,4.25c-.12.17-.26.33-.38.49A1.78,1.78,0,0,0,18,17.16Z"/><path class="cls-1" d="M11.32,3.33l-.2-.62.53-.17a20.62,20.62,0,0,1,5.47-.69A4.94,4.94,0,0,0,21,.23a1.57,1.57,0,0,1,.19-.18l.12,0,.25.23a1.4,1.4,0,0,1,.17.22,5.64,5.64,0,0,1-4.21,2.09c-1.15,0-2.29.11-3.43.23-.72.08-1.43.28-2.14.42Z"/><path class="cls-1" d="M10.46,3l.19.59A11.55,11.55,0,0,0,6.13,6.32,12,12,0,0,0,3.5,10.85l-.58-.19C3.31,7.63,7.26,3.58,10.46,3Z"/><path class="cls-1" d="M.37,21.65,0,21.22c.12-.14.24-.28.37-.41a4.69,4.69,0,0,0,1.49-3.54,22.51,22.51,0,0,1,.63-5.36l.16-.58.61.16a2,2,0,0,1,0,.37,21.31,21.31,0,0,0-.66,5.51A5.5,5.5,0,0,1,.62,21.54a.41.41,0,0,1-.13.08Z"/><path class="cls-1" d="M10.58,13.2l-.42-.44,2.67-2.65.36.48Z"/><path class="cls-1" d="M13.85,9l.46.48-.49.56-.44-.55Z"/><path class="cls-1" d="M9.5,13.31l.54.5-.58.44L9,13.83Z"/><path class="cls-1" d="M15.37,8.45,14.81,9l-.41-.53L14.89,8Z"/><path class="cls-1" d="M8,14.78l.52-.48.41.53-.48.45Z"/></g></g></svg>