<svg xmlns="http://www.w3.org/2000/svg" viewBox="0 0 23.29 23.33"><defs><style>.cls-1{fill:#be2433;}</style></defs><g id="Layer_2" data-name="Layer 2"><g id="Layer_1-2" data-name="Layer 1"><path class="cls-1" d="M15,18.87a3.37,3.37,0,0,1-3.41,2.68,3.33,3.33,0,0,1-3.3-2.68l-2.25.42c-.41.08-.81.18-1.22.24A2.57,2.57,0,0,0,2.63,22.6l.38,0c.14,0,.28,0,.42,0,.3,0,.43.14.42.35s-.15.32-.45.32-.69,0-1,0-.42-.09-.44-.39A5,5,0,0,1,2,21.17,3,3,0,0,1,4.34,19c1.22-.28,2.45-.49,3.67-.73l1.67-.33a1.88,1.88,0,0,0,.13-1.14A1.22,1.22,0,0,0,9.34,16a11.47,11.47,0,0,1-1.88-1.87,3.79,3.79,0,0,1-.94-2.94c-.14-.06-.27-.1-.39-.16A1.84,1.84,0,0,1,5,8.8a2.44,2.44,0,0,0,.09-.66c0-1,0-1.91,0-2.87a5.32,5.32,0,0,1,.81-3.06A4.82,4.82,0,0,1,9.61,0a1,1,0,0,1,.46,0,.47.47,0,0,1,.24.29.26.26,0,0,1-.21.32,2.21,2.21,0,0,1-.46.07A4.1,4.1,0,0,0,5.93,4a6.38,6.38,0,0,0-.09,1c0,.88,0,1.76,0,2.7l.7-.24c0-.27,0-.51,0-.75a1.29,1.29,0,0,1,.27-.92.37.37,0,0,1,.55-.07,7.43,7.43,0,0,0,.82.56A4.74,4.74,0,0,0,13.29,6l.3-.21a.29.29,0,0,1,.42,0,.44.44,0,0,1,.1.36,3.58,3.58,0,0,1-.8,1.5l-.4.43a3.26,3.26,0,0,0,2.8-1.63c.11-.18.17-.38.27-.56s.5-.32.65,0a2.58,2.58,0,0,1,.19.84,5.22,5.22,0,0,1,0,.69l.61.25a3.47,3.47,0,0,0,0-.42c0-.81,0-1.63,0-2.44A4.12,4.12,0,0,0,13.57.72l-1.66,0a2,2,0,0,1-.42,0,.27.27,0,0,1-.24-.34c0-.11.16-.2.25-.29a.15.15,0,0,1,.1,0A17.31,17.31,0,0,1,14,.07a4.75,4.75,0,0,1,4.17,4.54c.07,1.13,0,2.26,0,3.39a3.56,3.56,0,0,0,.11.86A1.86,1.86,0,0,1,17.19,11l-.32.12a.54.54,0,0,0,0,.12,4.11,4.11,0,0,1-1.29,3.23A15.23,15.23,0,0,1,14,16a1.43,1.43,0,0,0-.52,1.48,4.36,4.36,0,0,0,.12.44l2.27.45c1,.2,2.08.39,3.11.62a3.08,3.08,0,0,1,2.44,2.87c0,.33,0,.66,0,1s-.11.5-.53.52H5.13c-.19,0-.34-.11-.34-.32a.31.31,0,0,1,.31-.34,4.52,4.52,0,0,1,.52,0h15a2.42,2.42,0,0,0-1.79-3C17.58,19.34,16.31,19.11,15,18.87ZM12.88,7.18l0-.1A5.59,5.59,0,0,1,7.2,6.55v1c0,1.18,0,2.36,0,3.53a3.6,3.6,0,0,0,.66,2.45,10,10,0,0,0,2.3,2.25,2.49,2.49,0,0,0,3,0,8.92,8.92,0,0,0,2.58-2.61,2.94,2.94,0,0,0,.45-1.72c0-1.29,0-2.57,0-3.85V7.21L16,7.37A3.87,3.87,0,0,1,13.11,8.8a4.66,4.66,0,0,1-1.23-.15c-.31-.07-.35-.39-.11-.59s.22-.12.31-.2Zm-.18,9.61c-.33,0-.69.09-1,.09s-.73-.06-1.05-.09c-.1.49-.19.94-.28,1.4a.83.83,0,0,0,0,.35,1.36,1.36,0,0,0,1.73.91,1.33,1.33,0,0,0,.91-1.2C12.91,17.76,12.79,17.28,12.7,16.79Zm-3.64,2a2.62,2.62,0,0,0,3,2.1,2.42,2.42,0,0,0,2.19-2.14l-.56-.08a2,2,0,0,1-1.82,1.56,2.07,2.07,0,0,1-2.22-1.56,2,2,0,0,0-.28,0Zm7.73-8.37a1.07,1.07,0,0,0,.88-1.12,1,1,0,0,0-.88-1ZM6.52,8.25a1.1,1.1,0,0,0-.87,1.08,1.06,1.06,0,0,0,.87,1Z"/><path class="cls-1" d="M3.91,3.7c.16.61.32,1.18.47,1.74a.69.69,0,0,1,.07.3.5.5,0,0,1-.16.35c-.09.06-.25,0-.38,0s-.13-.1-.2-.16L1.08,3.71c-.51-.43-.47-.65.15-.88l.24-.1c-.11-.12-.19-.22-.29-.31-.33-.33-.68-.65-1-1S0,.89.31.76C1,.52,1.62.3,2.27.07a.45.45,0,0,1,.58.2l1.72,2.6c.19.29.14.42-.15.59l-.24.1ZM3.8,3,2.35.76,1,1.26l.87.83c.17.16.36.32.52.5s.15.47-.16.61a4.07,4.07,0,0,1-.45.19l.55.46c.19.16.37.32.57.46a1.55,1.55,0,0,0,.57.39c-.07-.26-.11-.44-.16-.62C3.06,3.29,3.06,3.29,3.8,3Z"/><path class="cls-1" d="M19.37,3.71c-.2-.1-.38-.16-.54-.26A.31.31,0,0,1,18.68,3a1.64,1.64,0,0,1,.14-.22c.51-.78,1-1.56,1.55-2.33.27-.42.34-.44.81-.28l1.66.58c.55.2.59.41.17.85s-.75.81-1.13,1.22l.36.13c.39.17.43.4.11.7l-.12.1L19.68,5.87,19.53,6c-.17.15-.35.26-.56.12s-.15-.33-.1-.52c.16-.55.32-1.1.47-1.65A1.19,1.19,0,0,0,19.37,3.71ZM19.5,3l.15.09c.58.25.59.27.41.88a3.35,3.35,0,0,0-.22.87c.33-.27.6-.48.86-.71a3.14,3.14,0,0,0,.76-.7l-.36-.16c-.37-.19-.4-.36-.11-.67s.35-.34.52-.51l.75-.8L20.94.79Z"/><path class="cls-1" d="M2,7.45l-.8-.38a.83.83,0,0,1-.32-.18.52.52,0,0,1-.11-.36.28.28,0,0,1,.36-.21,1.42,1.42,0,0,1,.29.1c.43.19.85.38,1.27.59s.49.46.06.78L2.46,8l.8.37a2,2,0,0,1,.32.17.31.31,0,0,1,.13.4.32.32,0,0,1-.43.19l-.57-.26-1-.45c-.38-.19-.4-.45-.07-.71Z"/><path class="cls-1" d="M21.31,7.48c.16.13.28.21.39.32s.23.47-.06.62c-.5.25-1,.49-1.55.71A.34.34,0,0,1,19.6,9c-.09-.18,0-.35.24-.49s.58-.28.95-.46c-.14-.12-.25-.21-.35-.31-.28-.24-.27-.49,0-.65.5-.24,1-.46,1.5-.69l.15-.05a.33.33,0,0,1,.39.18.31.31,0,0,1-.13.41,5.46,5.46,0,0,1-.64.32Z"/><path class="cls-1" d="M10,2.42a1,1,0,0,1-.89.91.38.38,0,0,1-.44-.27.31.31,0,0,1,.26-.38.54.54,0,0,0,.44-.45A.29.29,0,0,1,9.75,2C10,2.06,10,2.21,10,2.42Z"/><path class="cls-1" d="M10.71,2.41c0-.22.06-.37.26-.41a.3.3,0,0,1,.38.25.54.54,0,0,0,.45.44.29.29,0,0,1,.23.39.36.36,0,0,1-.4.25A1,1,0,0,1,10.71,2.41Z"/><path class="cls-1" d="M10,4.93c0,.19,0,.35-.25.39a.3.3,0,0,1-.39-.23.52.52,0,0,0-.44-.44.31.31,0,0,1-.25-.39A.37.37,0,0,1,9.11,4,1,1,0,0,1,10,4.93Z"/><path class="cls-1" d="M10.71,4.94a1,1,0,0,1,1-.94.52.52,0,0,1,.34.26.26.26,0,0,1-.18.37.6.6,0,0,0-.51.5c0,.18-.2.22-.37.19S10.7,5.13,10.71,4.94Z"/></g></g></svg>