<svg xmlns="http://www.w3.org/2000/svg" viewBox="0 0 27.7 18.08"><defs><style>.cls-1{fill:#be2433;}</style></defs><g id="Layer_2" data-name="Layer 2"><g id="Layer_1-2" data-name="Layer 1"><path class="cls-1" d="M5.09,15.83c0-.79,0-1.49,0-2.19A1,1,0,0,1,7,13.33c.34,1,.51,1.07,1.47.89l7.59-1.39,1.35-.26A1.59,1.59,0,0,0,17,11.39a4.06,4.06,0,0,0-.67-.64c-.38-.29-.77-.55-1.19-.84L12,11.24a2.26,2.26,0,0,1-.41.15.38.38,0,0,1-.45-.23.36.36,0,0,1,.15-.48,2.62,2.62,0,0,1,.45-.21l4.2-1.79a2.06,2.06,0,0,0,.49-.25.57.57,0,0,0,.17-.77.59.59,0,0,0-.79-.26,4.64,4.64,0,0,0-.44.23c-1.52.86-3.05,1.71-4.57,2.58-.51.3-1,.65-1.49,1a1.17,1.17,0,0,0-.4.45l.38-.14a2.35,2.35,0,0,1,.35-.11.38.38,0,0,1,.48.27.4.4,0,0,1-.22.46.53.53,0,0,1-.17.08l-1.65.7L7.83,13a.6.6,0,0,1-.7-.25.54.54,0,0,1,.07-.69,15.62,15.62,0,0,1,1.38-1.32,18.31,18.31,0,0,1,1.94-1.31c1-.58,2-1.12,3-1.67a2.46,2.46,0,0,0,.32-.19.28.28,0,0,0,0-.53,1.66,1.66,0,0,0-.29-.1A2.68,2.68,0,0,1,12,5.52a3.77,3.77,0,0,1-.46-1.71,2.7,2.7,0,0,1,2.11-2.57l.59-.13c.56-1,1.29-1.36,2.07-.91s.83,1.19.27,2.21a4.63,4.63,0,0,1,.58,2.39c.14,0,.27,0,.41,0a3.11,3.11,0,0,1,1.84.62A7.56,7.56,0,0,1,21.53,8a.88.88,0,0,1,.1.22.37.37,0,0,1-.21.41A.32.32,0,0,1,21,8.54a3,3,0,0,1-.31-.45,7.2,7.2,0,0,0-1.45-1.75,2.64,2.64,0,0,0-1.93-.68.78.78,0,0,0-.72.38c-.09.16-.22.29-.34.46a1.49,1.49,0,0,1,1.23,1.37c.06.93-.57,1.34-1.36,1.64.52.45,1,.85,1.48,1.3a3.48,3.48,0,0,1,.77,1.76,4.21,4.21,0,0,0,3.41-.89c-.06-.42-.13-.83-.19-1.23a2.52,2.52,0,0,1,0-.37.39.39,0,0,1,.76-.14,3.92,3.92,0,0,1,.15.66,7.69,7.69,0,0,1,.12,2.09,4.54,4.54,0,0,0,0,.74,3.77,3.77,0,0,1-.61,2.4h4c.22,0,.45,0,.68,0a1.12,1.12,0,0,1,0,2.23h-25a3.47,3.47,0,0,1-.56,0,1.11,1.11,0,0,1,0-2.21,3.5,3.5,0,0,1,.56,0H5.09Zm3.49-.05a1.51,1.51,0,0,0,.26,0H20.15a1.44,1.44,0,0,0,1.43-1.15,16.81,16.81,0,0,0,.15-1.88h-.12c-.09,0-.19.07-.28.12a4.81,4.81,0,0,1-3,.48,2.48,2.48,0,0,0-.86,0L10,14.76c-.48.08-1,.19-1.44.29Zm5.27.89H1.61a2.51,2.51,0,0,0-.55,0A.32.32,0,0,0,.87,17a.42.42,0,0,0,.19.27.73.73,0,0,0,.3,0H26c.21,0,.42,0,.62,0a.26.26,0,0,0,.27-.28.25.25,0,0,0-.26-.27,5.28,5.28,0,0,0-.56,0ZM12.4,4.36c.26,1,.72,1.76,1.76,1.92A1.85,1.85,0,0,0,16,5.37c-.21-.11-.42-.21-.61-.32-.48-.29-1.06-.46-1.32-1-.09-.2-.31-.19-.49-.13C13.22,4,12.82,4.19,12.4,4.36Zm0-.89.94-.35a1.17,1.17,0,0,1,1.54.5,1.56,1.56,0,0,0,.44.41c.31.19.64.35,1,.53A2.21,2.21,0,0,0,16,3.23,1.85,1.85,0,0,0,14.14,2,1.88,1.88,0,0,0,12.37,3.47ZM6,13.46a6.92,6.92,0,0,0-.09,2,.48.48,0,0,0,.33.32,4,4,0,0,0,1.46-.05v-.61C6.78,15,6.37,14.3,6,13.46ZM15.1,1.27l.83.45c.21-.42.19-.66-.06-.8S15.33.86,15.1,1.27Z"/></g></g></svg>