<svg xmlns="http://www.w3.org/2000/svg" viewBox="0 0 24.15 23.33"><defs><style>.cls-1{fill:#be2433;}</style></defs><g id="Layer_2" data-name="Layer 2"><g id="Layer_1-2" data-name="Layer 1"><path class="cls-1" d="M6.78,15.42c0-.56,0-1.1,0-1.63,0-.2-.13-.28-.27-.37A3.87,3.87,0,0,0,4,12.82c-.76.09-1-.07-1.08-.87s-.26-1.74-.46-2.6c-.14-.64.37-1,.94-.72a2.76,2.76,0,0,1,.72.55,4.69,4.69,0,0,1,.51.67,3.31,3.31,0,0,0,.25-.35c.6-1,1.2-1.92,1.79-2.88a1.85,1.85,0,0,1,1.71-1c-.11-.17-.2-.31-.3-.44a2.76,2.76,0,0,1-.52-1.61A5.4,5.4,0,0,1,7.73,1.9,2.66,2.66,0,0,1,10.54,0a2.7,2.7,0,0,1,2.4,2.26A10.54,10.54,0,0,1,13,3.4a2.76,2.76,0,0,1-.6,1.85l-.23.32c.22,0,.39,0,.56.1a1.85,1.85,0,0,1,1.36,1.74c0,.45,0,.89,0,1.34a2.74,2.74,0,0,1-.92,2.06.75.75,0,0,0-.28.64c0,.48,0,1,0,1.49l.75-.07h.26c.32,0,.51.17.49.38s-.17.32-.47.35-.82.05-1.23.12a3.69,3.69,0,0,0-1.46.56v1.25a4.05,4.05,0,0,0,.48,0h3.18a1.93,1.93,0,0,1,.42,0,.32.32,0,0,1,.3.33.33.33,0,0,1-.33.35c-.23,0-.46,0-.7,0l-.22,0v1c.54,0,1.09,0,1.64,0h1.76a3,3,0,0,1-.62-2.93l-1.08-.51c-.13,0-.27-.07-.4-.13s-.33-.25-.27-.45a.33.33,0,0,1,.47-.22c.42.15.83.32,1.25.49.11.05.21.12.34.19l.26-.28a2.62,2.62,0,0,1,2.62-.86.84.84,0,0,0,.6-.08,3.67,3.67,0,0,1,1-.32.79.79,0,0,1,1,1,8.52,8.52,0,0,0,0,2.14,2.53,2.53,0,0,1-.74,2,11.12,11.12,0,0,0,1.14,0c.62,0,.81.2.81.81,0,.79,0,1.58,0,2.37,0,.59-.18.76-.78.77h-.62c0,.27-.06.5-.07.72a1.4,1.4,0,0,1-1.45,1.29c-2.08,0-4.16,0-6.25,0H3.13a3.25,3.25,0,0,1-.54,0,1.28,1.28,0,0,1-1.08-1.05c-.05-.28-.06-.57-.1-.91l-.69,0c-.53,0-.71-.2-.71-.72,0-.83,0-1.65,0-2.48,0-.54.2-.73.75-.75h.76l.09-.05c0-.29-.09-.6-.14-.91-.11-.62-.22-1.23-.32-1.85s.24-.85.76-.7a1.79,1.79,0,0,1,.77.46,13.37,13.37,0,0,1,.84,1.11Zm16.63,2.72H.75v2.47H11a2.57,2.57,0,0,1,.48,0,.31.31,0,0,1,.26.36.5.5,0,0,1-.26.29,1.94,1.94,0,0,1-.54,0H2.77l-.61,0c0,.2,0,.36,0,.52a.72.72,0,0,0,.78.77H21c.86,0,1.08-.24,1-1.11a1.22,1.22,0,0,0-.06-.21H13.42a4,4,0,0,1-.49,0,.33.33,0,0,1-.34-.34.35.35,0,0,1,.34-.36h9.91l.57,0ZM6.3,10.3l.52-.84a6.22,6.22,0,0,1,.35-.54.32.32,0,0,1,.43-.1.33.33,0,0,1,.16.41,1.54,1.54,0,0,1-.17.34l-.54.89.91.36c.35-.18.63-.34.92-.47.53-.24,1-.48,1.58-.69a1.57,1.57,0,0,0,.95-.81.58.58,0,0,1,.22-.3A.47.47,0,0,1,12,8.5a.58.58,0,0,1,.17.35.49.49,0,0,1-.12.29l-.77,1,.4.78a10.45,10.45,0,0,0,1-.63,1.83,1.83,0,0,0,.69-1.19,12.32,12.32,0,0,0,0-1.72,1.16,1.16,0,0,0-1.56-1.06c0,.11-.05.24-.07.36A1.54,1.54,0,0,1,10.3,8.06,1.56,1.56,0,0,1,8.81,6.75c0-.15-.08-.3-.11-.43A1.29,1.29,0,0,0,7.26,7C6.67,8,6.07,8.92,5.49,9.88a3,3,0,0,0-.15.34Zm-.62,1.94.32.14a5.71,5.71,0,0,1,2.2,1.51A4.51,4.51,0,0,1,8.89,15a.71.71,0,0,1-.6,1.1,6.91,6.91,0,0,1-1,.1H5c-.14,0-.27,0-.41,0v1.13H9.48a1.31,1.31,0,0,1,0-1.08,1.56,1.56,0,0,1,1-.72,2.16,2.16,0,0,0-.85-2.4,2.39,2.39,0,0,1-.23-.22A.68.68,0,0,0,9,12.71a1.15,1.15,0,0,1-1.13-.91.66.66,0,0,0-.23-.33A3.83,3.83,0,0,0,6,11Zm6.58-8.92C11.51,3.16,10.77,3,10,2.85a1.2,1.2,0,0,0-1.15.2,2.67,2.67,0,0,1-.56.28C8,4.35,9.13,5.54,10,5.72a1.46,1.46,0,0,0,.69,0A2.31,2.31,0,0,0,12.26,3.32Zm8,10.11a1.9,1.9,0,0,0-2.36,1.22,2,2,0,0,0,1.2,2.68,3.61,3.61,0,0,0,1.15-.87.88.88,0,0,0,.18-1A3,3,0,0,1,20.23,13.43Zm-8-10.86a2,2,0,0,0-2-1.88A2,2,0,0,0,8.37,2.5a1.08,1.08,0,0,0,.24-.11,1.58,1.58,0,0,1,1.47-.25C10.77,2.32,11.48,2.43,12.24,2.57ZM22.19,13c-.92,0-1.43.47-1.35,1.33a2.44,2.44,0,0,0,.23.87,1.48,1.48,0,0,1-.24,1.61c-.1.14-.21.27-.33.42a1.61,1.61,0,0,0,1.72-1.74,8.88,8.88,0,0,1,0-2.36A.45.45,0,0,0,22.19,13Zm-8.54,3.27h-2.9l-.22,0a.52.52,0,0,0-.42.54.5.5,0,0,0,.44.52.81.81,0,0,0,.22,0H13.4a2.17,2.17,0,0,0,.25,0Zm-10-4.2H5L5.27,11c-.89-.1-.88-.11-1.39-.89a1.5,1.5,0,0,0-.69-.7Zm.1,4.11a1.13,1.13,0,0,1-1.09-.71,1.66,1.66,0,0,0-.76-.85c.12,1,.28,1.85.47,2.71H3.76Zm8.4-4.68c-.42.17-.77.3-1.11.45a4.25,4.25,0,0,0-1,.48l1,1.1,1.16-.47Zm-1.57-1.13c-.63.27-1.2.51-1.75.76a.44.44,0,0,0-.29.56.45.45,0,0,0,.63.24c.6-.23,1.2-.48,1.82-.74Zm.5-4H9.53a.81.81,0,0,0,.71.92C10.68,7.38,11,7,11.09,6.43ZM8.3,15.35a2.56,2.56,0,0,0-.8-1.13v1.24Z"/></g></g></svg>