<svg xmlns="http://www.w3.org/2000/svg" viewBox="0 0 22.26 23.33"><defs><style>.cls-1{fill:#be2433;}</style></defs><g id="Layer_2" data-name="Layer 2"><g id="Layer_1-2" data-name="Layer 1"><path class="cls-1" d="M2.72,19.07h1.2a2.68,2.68,0,0,0,2.6-2c.69-2.51,1.37-5,2-7.53a5.51,5.51,0,0,1,1.57-2.76c.88-.83,1.72-1.71,2.58-2.57A4,4,0,0,1,13,3.93a.32.32,0,0,1,.44.47,3.08,3.08,0,0,1-.24.27L10.36,7.5a3.92,3.92,0,0,0-1,1.82c-.69,2.58-1.41,5.15-2.07,7.74a3.52,3.52,0,0,1-3.54,2.72c-.69,0-1.39,0-2.08,0H1.26a.53.53,0,0,0-.53.34A.56.56,0,0,0,1,20.8q.57.36,1.17.69a9,9,0,0,0,4.27,1.14c.64,0,1.29,0,1.93,0a1.11,1.11,0,0,0,1.2-1.2c0-.54,0-1.08,0-1.62A2.41,2.41,0,0,1,10.3,18l1.38-1.42c.06-.06.12-.15.19-.16a.53.53,0,0,1,.38.05.44.44,0,0,1,.07.36.79.79,0,0,1-.24.34c-.31.32-.6.67-.94,1a2.34,2.34,0,0,0-.89,2.16,8.21,8.21,0,0,1,0,1.4,1.73,1.73,0,0,1-1.35,1.59,1.13,1.13,0,0,1-.31.06,19.92,19.92,0,0,1-3.78-.18,10.09,10.09,0,0,1-2.88-1A12.13,12.13,0,0,1,.64,21.4a1.23,1.23,0,0,1,.63-2.31c.48,0,1,0,1.45,0Z"/><path class="cls-1" d="M21.5,5.16,17.13.76l-.4.37L14.86,3a3.38,3.38,0,0,1-.35.31.32.32,0,0,1-.43,0,.3.3,0,0,1,0-.42l.18-.19C15,1.88,15.78,1.11,16.56.34c.46-.46.71-.45,1.19,0s1,1,1.43,1.43L21.9,4.51c.47.46.47.72,0,1.18-.84.85-1.68,1.71-2.54,2.54a6.45,6.45,0,0,1-4.45,1.85l-.58,0c0,.33,0,.61,0,.9a9,9,0,0,1-.71,3.65,8.43,8.43,0,0,1-.39.8.34.34,0,0,1-.47.17c-.18-.09-.22-.25-.12-.49s.34-.76.49-1.15a7.46,7.46,0,0,0,.5-2.69c0-.33,0-.66,0-1,0-.65.27-.92.92-.92a7.15,7.15,0,0,0,1.85-.22,4.89,4.89,0,0,0,2-1.05C19.49,7.16,20.49,6.14,21.5,5.16Z"/><path class="cls-1" d="M21,11.21l.76,1.32c.28.52.24.68-.25,1l-.59.34c-.4.21-.57.17-.81-.23s-.54-.93-.83-1.41l-.25.05c-.35,0-.55-.11-.55-.45,0-.71,0-1.42.07-2.13a.41.41,0,0,1,.63-.37c.64.31,1.27.65,1.88,1,.3.17.31.41.11.7C21.16,11.08,21.1,11.14,21,11.21Zm.15,1.65c-.24-.42-.46-.82-.7-1.22s-.36-.6-.14-1l-1.08-.59v1.25c.34,0,.51.23.65.5s.38.67.57,1a3.69,3.69,0,0,0,.25.34Z"/><path class="cls-1" d="M16.17,15.21H14.92l.58,1.14a.72.72,0,0,1,.88.06c.14.1.24.21.19.39a.31.31,0,0,1-.39.25.38.38,0,0,0-.36.11c-.29.22-.52.19-.7-.11-.35-.61-.68-1.24-1-1.87a.41.41,0,0,1,.31-.63,1.84,1.84,0,0,1,.41-.05l1.5,0c.67,0,.79.12.69.82.44.26.89.51,1.33.78s.53.43.25.92c-.13.24-.27.48-.42.71a.48.48,0,0,1-.68.15c-.16-.08-.31-.18-.3-.39a.34.34,0,0,1,.34-.33c.27,0,.31-.23.42-.45-.1-.07-.2-.16-.32-.23-.32-.19-.65-.39-1-.57A.75.75,0,0,1,16.17,15.21Z"/><path class="cls-1" d="M10.22,10.42s-.1,0-.14,0-.24-.18-.24-.28A.42.42,0,0,1,10,9.8a.78.78,0,0,1,.35-.08,1.5,1.5,0,0,0,1.27-1.33,2.17,2.17,0,0,1,0-.25A.32.32,0,0,1,12,7.88a.34.34,0,0,1,.32.3.34.34,0,0,0,0,.1A2.25,2.25,0,0,1,10.22,10.42Z"/><path class="cls-1" d="M9.1,20.11a1.12,1.12,0,0,1-.56,1,1,1,0,0,1-1.09,0c-.27-.15-.35-.35-.26-.54s.24-.21.58-.07.64,0,.63-.32a.75.75,0,0,0-.11-.28c-.11-.19-.14-.36.06-.5a.36.36,0,0,1,.53.15A3.41,3.41,0,0,1,9.1,20.11Z"/></g></g></svg>