<svg xmlns="http://www.w3.org/2000/svg" viewBox="0 0 18.65 18.67"><defs><style>.cls-1{fill:#333;}</style></defs><g id="Layer_2" data-name="Layer 2"><g id="Layer_1-2" data-name="Layer 1"><path class="cls-1" d="M9.34.88a8.44,8.44,0,0,0-8,5.86,8.35,8.35,0,0,0,3.27,9.54,8.13,8.13,0,0,0,7.52,1,12.66,12.66,0,0,0,1.74-.84c.15-.07.27-.17.42-.24a.41.41,0,0,1,.51.13.43.43,0,0,1,0,.56,1.33,1.33,0,0,1-.26.21,9,9,0,0,1-8.88.76,8.85,8.85,0,0,1-5.44-7A9,9,0,0,1,3.3,2.22,8.76,8.76,0,0,1,9.55,0,9,9,0,0,1,17,4a9,9,0,0,1,1.64,6.24,8.87,8.87,0,0,1-1.54,4.29,1,1,0,0,1-.18.22.45.45,0,0,1-.53,0,.42.42,0,0,1-.16-.51,4.07,4.07,0,0,1,.31-.53,8.23,8.23,0,0,0,1.25-4.65A8.39,8.39,0,0,0,10,.92Z"/><path class="cls-1" d="M3.68,12.81c.35-.25.64-.49.95-.7a3.14,3.14,0,0,1,1.75-.54c2,0,3.93,0,5.89,0a3.46,3.46,0,0,1,2.28.92l.38.34a1.16,1.16,0,0,0,.18-.22,6.65,6.65,0,0,0-4.8-9.87A7,7,0,0,0,7.17,3c-.12,0-.23.09-.36.12a.43.43,0,0,1-.55-.24.44.44,0,0,1,.27-.58A9.92,9.92,0,0,1,7.94,1.9,7.55,7.55,0,1,1,3,13.45a7.46,7.46,0,0,1-.81-6.6,3.65,3.65,0,0,1,.14-.35.43.43,0,0,1,.55-.24.39.39,0,0,1,.27.49,2.64,2.64,0,0,1-.12.4A6.61,6.61,0,0,0,3.22,12c.09.21.21.42.32.63A1.21,1.21,0,0,0,3.68,12.81Zm10.7.77a4.61,4.61,0,0,0-.37-.4,3,3,0,0,0-2-.74H8.3c-.63,0-1.27,0-1.9,0a2.94,2.94,0,0,0-2.15,1.12A6.56,6.56,0,0,0,14.38,13.58Z"/><path class="cls-1" d="M6.23,7.56a3.1,3.1,0,1,1,3.11,3.09A3.08,3.08,0,0,1,6.23,7.56Zm.89,0a2.18,2.18,0,0,0,2.2,2.24,2.22,2.22,0,1,0,0-4.43A2.19,2.19,0,0,0,7.12,7.52Z"/><path class="cls-1" d="M16.05,15.59a.48.48,0,0,1-.45.46.45.45,0,0,1-.43-.43.44.44,0,0,1,.45-.45A.45.45,0,0,1,16.05,15.59Z"/></g></g></svg>