<svg xmlns="http://www.w3.org/2000/svg" viewBox="0 0 18.65 18.67"><g id="Layer_2" data-name="Layer 2"><g id="Layer_1-2" data-name="Layer 1"><path d="M9.23,0a9.36,9.36,0,0,1,8.23,4.81,8.73,8.73,0,0,1,1.11,3.41,9.14,9.14,0,0,1-.92,5.32A8.94,8.94,0,0,1,14,17.43a9.17,9.17,0,0,1-5.22,1.22,8.9,8.9,0,0,1-3.8-1.08.86.86,0,0,0-.78-.08c-.88.29-1.77.56-2.65.83L1,18.47a.6.6,0,0,1-.74-.62,1.93,1.93,0,0,1,.15-.52c.33-.83.66-1.67,1-2.5a.65.65,0,0,0,0-.66A9.31,9.31,0,0,1,0,10.1,8.69,8.69,0,0,1,.21,7.46a9.11,9.11,0,0,1,3-5.12A8.83,8.83,0,0,1,7.69.19C8.24.1,8.79.05,9.23,0ZM.87,17.84l.46-.12,2.77-.88a1.14,1.14,0,0,1,1,.1A8.4,8.4,0,0,0,9.43,18a8.44,8.44,0,0,0,5.3-1.87,8.62,8.62,0,0,0,2.93-9.25A8.45,8.45,0,0,0,12.34,1.2,8.46,8.46,0,0,0,8.05.76a8.42,8.42,0,0,0-2.89,1A8.71,8.71,0,0,0,.7,10.43a7.87,7.87,0,0,0,1.18,3.38A1.29,1.29,0,0,1,2,15.07c-.31.73-.59,1.46-.89,2.19C1,17.43,1,17.59.87,17.84Z"/><path d="M5.79,3.4a.92.92,0,0,1,.78.44c.43.66.85,1.33,1.25,2a.9.9,0,0,1-.16,1.24c-.18.19-.37.38-.56.56A.51.51,0,0,0,7,8.2a4.92,4.92,0,0,0,3.49,3.51.52.52,0,0,0,.6-.15c.19-.2.39-.4.59-.58a.88.88,0,0,1,1.14-.16c.7.42,1.39.85,2.07,1.3a.88.88,0,0,1,.32,1.14c-.33.7-.67,1.4-1,2.08a.91.91,0,0,1-1,.49,11.12,11.12,0,0,1-3.77-1.22,13.41,13.41,0,0,1-4.3-3.73A11.32,11.32,0,0,1,2.86,5.59a1,1,0,0,1,.53-1.07c.65-.34,1.31-.67,2-1A3.06,3.06,0,0,1,5.79,3.4ZM13,15.18c.45,0,.49,0,.64-.29.3-.59.6-1.18.89-1.78.14-.28.11-.37-.16-.55l-.56-.35-1.16-.73c-.38-.23-.45-.21-.75.09a4,4,0,0,0-.41.41,1.12,1.12,0,0,1-1.28.32,5.56,5.56,0,0,1-2.85-1.9,5.46,5.46,0,0,1-1-2,1.07,1.07,0,0,1,.31-1.17c.17-.15.32-.31.47-.47s.29-.36.09-.69c-.35-.59-.72-1.17-1.1-1.76C5.94,4,5.85,4,5.54,4.14L3.87,5c-.39.19-.4.21-.37.63,0,.07,0,.14,0,.21A10.07,10.07,0,0,0,4.4,8.54a12.37,12.37,0,0,0,6.45,6.05A10.23,10.23,0,0,0,13,15.18Z"/><path d="M10.65,1.39a7.78,7.78,0,0,1,2.57.89A8,8,0,0,1,15.1,3.7a1.3,1.3,0,0,1,.19.22.31.31,0,0,1-.44.41,1.31,1.31,0,0,1-.21-.2,7.44,7.44,0,0,0-4-2.1l-.16,0a.35.35,0,0,1-.25-.38A.35.35,0,0,1,10.65,1.39Z"/><path d="M9.33,1.29a.31.31,0,0,1,.31.28.31.31,0,0,1-.32.31A.3.3,0,0,1,9,1.56.31.31,0,0,1,9.33,1.29Z"/></g></g></svg>