<svg xmlns="http://www.w3.org/2000/svg" viewBox="0 0 10.44 18.51"><defs><style>.cls-1{fill:#333;}</style></defs><g id="Слой_2" data-name="Слой 2"><g id="Слой_1-2" data-name="Слой 1"><path class="cls-1" d="M2.73,9.2l1.41,1.39,3.69,3.69,2.23,2.22a1.15,1.15,0,0,1,0,1.65,1.17,1.17,0,0,1-1.68,0c-1.11-1.09-2.21-2.2-3.31-3.3L1.25,11l-.91-.9A1.2,1.2,0,0,1,.41,8.36l6-6,2-2A1.17,1.17,0,0,1,9.87.17a1.12,1.12,0,0,1,.49,1.38,2.59,2.59,0,0,1-.6.77C8.85,3.24,7.93,4.14,7,5.06L3,9A2.24,2.24,0,0,1,2.73,9.2Z"/></g></g></svg>