<svg xmlns="http://www.w3.org/2000/svg" viewBox="0 0 10.44 18.51"><defs><style>.cls-1{fill:#333;}</style></defs><g id="Слой_2" data-name="Слой 2"><g id="Слой_1-2" data-name="Слой 1"><path class="cls-1" d="M7.71,9.2,6.3,10.59,2.61,14.28.39,16.5a1.14,1.14,0,0,0-.06,1.65,1.17,1.17,0,0,0,1.68,0c1.11-1.09,2.21-2.2,3.31-3.3L9.19,11l.91-.9A1.2,1.2,0,0,0,10,8.36l-6-6-2-2A1.16,1.16,0,0,0,.57.17,1.12,1.12,0,0,0,.08,1.55a2.59,2.59,0,0,0,.6.77c.91.92,1.83,1.82,2.75,2.74l4,4A2.24,2.24,0,0,0,7.71,9.2Z"/></g></g></svg>