<svg xmlns="http://www.w3.org/2000/svg" viewBox="0 0 24.11 24.11"><defs><style>.cls-1{fill:#be2433;}.cls-2{fill:#fff;}</style></defs><g id="Layer_2" data-name="Layer 2"><g id="Layer_1-2" data-name="Layer 1"><circle class="cls-1" cx="12.05" cy="12.05" r="12.05"/><path class="cls-2" d="M12.06,20.45H9.24A5.15,5.15,0,0,1,4,15.26c0-1.89,0-3.79,0-5.68A5.13,5.13,0,0,1,9.21,4.41H14.9a5.14,5.14,0,0,1,5.18,5.16q0,2.87,0,5.73a5.14,5.14,0,0,1-5.16,5.15Zm-6.87-8h0c0,.94,0,1.88,0,2.82a4,4,0,0,0,4,4.06h5.64a4,4,0,0,0,4.06-4c0-1.88,0-3.77,0-5.65a4,4,0,0,0-4-4H9.24a4,4,0,0,0-4,4C5.18,10.54,5.19,11.48,5.19,12.42Z"/><path class="cls-2" d="M8.05,12.35a4,4,0,1,1,8,.38,4,4,0,0,1-5.57,3.4L10.27,16a.58.58,0,0,1-.2-.69A.55.55,0,0,1,10.7,15c.12,0,.23.08.35.12a2.85,2.85,0,0,0,3.84-2.67,2.86,2.86,0,0,0-5.54-1,2.87,2.87,0,0,0,.11,2.26,2.07,2.07,0,0,1,.15.34.57.57,0,0,1-.26.67.6.6,0,0,1-.73-.18,1.31,1.31,0,0,1-.17-.28A4.16,4.16,0,0,1,8.05,12.35Z"/><path class="cls-2" d="M17.21,8.14a.86.86,0,1,1-1.71,0,.87.87,0,0,1,.87-.85A.86.86,0,0,1,17.21,8.14Z"/></g></g></svg>