<svg xmlns="http://www.w3.org/2000/svg" viewBox="0 0 41.54 41.53"><defs><style>.cls-1{fill:#fff;}</style></defs><g id="Layer_2" data-name="Layer 2"><g id="Layer_1-2" data-name="Layer 1"><path class="cls-1" d="M20.77,39.84a18.4,18.4,0,0,0,12.15-4.27A18.55,18.55,0,0,0,39.69,23.5c.11-.76.14-1.53.2-2.3a3.44,3.44,0,0,1,0-.46.79.79,0,0,1,.9-.73.74.74,0,0,1,.72.8,14.24,14.24,0,0,1-.07,1.85,21,21,0,0,1-4.43,11,20.31,20.31,0,0,1-6.59,5.45,20.67,20.67,0,0,1-19.72-.2A20.4,20.4,0,0,1,1,27.05a19.91,19.91,0,0,1-.7-9.61A21.24,21.24,0,0,1,4,8.63a20.24,20.24,0,0,1,7.53-6.42A20.39,20.39,0,0,1,22,0a21,21,0,0,1,7.84,2c.54.25.74.67.56,1.11a.89.89,0,0,1-1.18.39c-.67-.26-1.31-.57-2-.81a18.46,18.46,0,0,0-8.75-.95A19.05,19.05,0,0,0,6.24,8.31a17.92,17.92,0,0,0-3.77,6.85,18.78,18.78,0,0,0-.75,7.33,18.72,18.72,0,0,0,3.4,9.28,19,19,0,0,0,12.34,7.84,13.45,13.45,0,0,0,1.55.22C19.6,39.87,20.19,39.84,20.77,39.84Z"/><path class="cls-1" d="M12.75,6.07a3.81,3.81,0,0,1-.45-.4.74.74,0,0,1,.53-1.23,1.24,1.24,0,0,1,.63.09,17,17,0,0,1,1.64.85c.51.3.58.63.33,1.18s-.49,1-.76,1.48c-.48.87-1,.9-1.61.11-.05-.07-.12-.13-.2-.22a14.51,14.51,0,0,0-6.15,7.42A14.68,14.68,0,0,0,8.16,29a14.51,14.51,0,0,0,8.53,6.28,14.5,14.5,0,0,0,10-.66,14.68,14.68,0,0,0,8.62-9.81,7.92,7.92,0,0,1,.29-1,.77.77,0,0,1,1-.52.71.71,0,0,1,.56.92,17.25,17.25,0,0,1-.77,2.66A16.66,16.66,0,0,1,22.94,37.3a16.27,16.27,0,0,1-13.2-4A16.22,16.22,0,0,1,4.8,25.68a16.46,16.46,0,0,1,.61-11.5,16.23,16.23,0,0,1,7-7.88Z"/><path class="cls-1" d="M20,23.24a2.83,2.83,0,0,1-1.65-1.62H17c-1.61,0-3.21,0-4.82,0a2.2,2.2,0,0,1-1-.26.91.91,0,0,1-.32-.7.64.64,0,0,1,.58-.62,3.72,3.72,0,0,1,.74,0h6.13a2.69,2.69,0,0,1,3-1.78,2.65,2.65,0,0,1,2.1,2.09c.2,1.17-.33,2.09-1.79,3v8.2a4.54,4.54,0,0,1,0,.74.72.72,0,0,1-.71.6.73.73,0,0,1-.78-.63,5.72,5.72,0,0,1,0-.83q0-3.94,0-7.88A1.59,1.59,0,0,0,20,23.24Zm.78-1.54a.89.89,0,0,0,1-.87.94.94,0,1,0-1,.87Z"/><path class="cls-1" d="M22.94,15.18c.64,0,1.1,0,1.56,0a.72.72,0,0,1,.78.73.74.74,0,0,1-.68.84,1.26,1.26,0,0,1-.27,0c-1.11,0-2.22,0-3.33,0-.41,0-.83-.07-1-.55a1,1,0,0,1,.43-1.12,27.36,27.36,0,0,0,2.23-2.21,5.31,5.31,0,0,0,.91-1.69c.28-.78,0-1.3-.64-1.49a1.12,1.12,0,0,0-1.37.91c0,.12,0,.25-.07.36a.77.77,0,0,1-.88.5.73.73,0,0,1-.65-.67,2.61,2.61,0,0,1,1.46-2.49A2.65,2.65,0,0,1,25.2,9.88a3.63,3.63,0,0,1-.09,2,7.74,7.74,0,0,1-1.56,2.6Z"/><path class="cls-1" d="M29,11.61h2.19V9.38a3,3,0,0,1,.08-.73.77.77,0,0,1,.84-.57.76.76,0,0,1,.69.65,3.44,3.44,0,0,1,0,.64v2.16c.43.19.92.3.93.89s-.54.68-.93,1c0,.72,0,1.47,0,2.2s-.34,1.13-.78,1.16-.94-.5-.89-1.16,0-1.47,0-2.27l-1-.05c-.61,0-1.23,0-1.85,0a.92.92,0,0,1-1-1c0-1.08,0-2.16,0-3.24a1.32,1.32,0,0,1,.19-.61c.17-.33.49-.34.81-.31a.66.66,0,0,1,.58.63,6.78,6.78,0,0,1,0,1Z"/><path class="cls-1" d="M37.68,11.76c.36,0,.63-.09.91-.1a2.45,2.45,0,0,1,2.61,2.42c0,.61,0,1.23,0,1.85s-.27.78-.7.81a.71.71,0,0,1-.84-.67,9.12,9.12,0,0,1-.08-1.29c0-.21,0-.43,0-.64A.9.9,0,0,0,37.78,14a6.67,6.67,0,0,0-.09,1.19c0,.31,0,.62,0,.92a.77.77,0,0,1-1.48.16,3.56,3.56,0,0,1-.12-.91c0-1.95,0-3.9,0-5.84a3.64,3.64,0,0,1,.06-.74A.73.73,0,0,1,37,8.1c.44,0,.69.28.71.81,0,.77,0,1.54,0,2.31Z"/><path class="cls-1" d="M37.46,20.75a.85.85,0,0,1-.78.87.87.87,0,0,1-.83-.83.82.82,0,0,1,.75-.8A.78.78,0,0,1,37.46,20.75Z"/><path class="cls-1" d="M32.23,3.67a.72.72,0,0,1,.81.79.71.71,0,0,1-.74.77.77.77,0,0,1-.82-.8A.73.73,0,0,1,32.23,3.67Z"/></g></g></svg>