<svg xmlns="http://www.w3.org/2000/svg" viewBox="0 0 41.41 41.53"><defs><style>.cls-1{fill:#fff;}.cls-2{fill:#333;}</style></defs><g id="Layer_2" data-name="Layer 2"><g id="Layer_1-2" data-name="Layer 1"><path class="cls-1" d="M1.62,40.17V1.56C1.62,0,1.62,0,3.13,0H38.38c1.43,0,1.43,0,1.43,1.45V40.2a4.6,4.6,0,0,1,1,.12.92.92,0,0,1,.54.52c.08.34-.18.57-.52.63a4.66,4.66,0,0,1-.65,0H30.89a1.48,1.48,0,0,1-.64,0c-.21-.12-.47-.37-.47-.57a.81.81,0,0,1,.46-.55,3.6,3.6,0,0,1,1-.1V6.14H29c0,.26-.06.53-.06.79V22.4a1.12,1.12,0,0,0,.47,1.09,2.65,2.65,0,0,1,.69,2.79.77.77,0,0,1-.55.4c-.8,0-1.6,0-2.4,0a.59.59,0,0,1-.64-.64c0-1-.13-2.06.91-2.74.15-.09.21-.35.27-.54a1.76,1.76,0,0,0,0-.46V6.86a1.21,1.21,0,0,0-.48-1.2,1.62,1.62,0,0,1-.6-2,1.79,1.79,0,0,1,1.67-1.25c.61,0,1.23,0,1.85,0h1.14V1.29h-21V2.41c.82,0,1.61,0,2.41,0a4,4,0,0,1,1.09.14,1.74,1.74,0,0,1,.68,3A1.77,1.77,0,0,0,13.77,7c0,5.09,0,10.18,0,15.28a1.31,1.31,0,0,0,.53,1.26,2.7,2.7,0,0,1,.58,2.74.85.85,0,0,1-.64.37c-.74.05-1.48,0-2.22,0a.63.63,0,0,1-.71-.67c-.05-1-.11-2.05.94-2.72a1.2,1.2,0,0,0,.27-.81c0-1.42,0-2.84,0-4.26V6.15H10.21V40.21a3.49,3.49,0,0,1,1,.12c.2.08.47.35.47.54s-.26.45-.46.58a1.48,1.48,0,0,1-.64,0H1.11c-.45,0-1,.08-1.1-.56-.08-.41.24-.59,1.09-.66A4.12,4.12,0,0,0,1.62,40.17Zm7.23,0V1.29H5.33V22c.54,0,1,0,1.52,0s.82.22.88.83c0,.19,0,.37,0,.56v13c0,.22,0,.44,0,.65,0,.51-.26.8-.81.78s-1,0-1.57,0v2.41Zm27.26-2.41c-.61,0-1.1,0-1.59,0A.71.71,0,0,1,33.7,37c0-.18,0-.37,0-.55V23.43a5.23,5.23,0,0,1,0-.56c.06-.61.25-.8.88-.83s1,0,1.5,0V1.27h-3.5V40.2h3.53ZM2.85,1.25v39H4v-39Zm34.59,0v39l1.13-.05v-39Zm-32.11,22V36.57H6.42V23.29Zm30.77,0-1.1.06V36.59h1.1ZM10.18,4.84h2.91a.54.54,0,0,0,.61-.55.52.52,0,0,0-.56-.59h-3ZM31.26,3.68h-3c-.37,0-.63.2-.56.57.05.21.3.53.48.54,1,0,2,0,3,0ZM13.81,25.49a5.11,5.11,0,0,0-.38-1c0-.09-.41-.09-.56,0-.42.24-.36.63-.24,1Zm15,0c.1-.44.16-.84-.29-1.06a.68.68,0,0,0-.57.06c-.35.25-.24.62-.15,1Z"/><rect class="cls-2" x="5.39" y="19.74" width="2.59" height="19.8" rx="1.3"/><rect class="cls-2" x="33.52" y="19.74" width="2.59" height="19.8" rx="1.3"/><path class="cls-1" d="M20.8,41.05l-.33.2a1.71,1.71,0,0,1-2.66-1.46c0-1.21,0-2.43,0-3.65V28a2.45,2.45,0,0,0,0-.27l-.62,0a1.48,1.48,0,0,1-1.47-1.37,1.7,1.7,0,0,1,0-.22c0-1.87,0-3.73,0-5.59a3.52,3.52,0,0,1,1.86-3.08,8.61,8.61,0,0,1,1.17-.48c-.06-.12-.13-.24-.18-.36a3,3,0,0,1,.1-3.15,2.52,2.52,0,0,1,2.81-1.06,2.64,2.64,0,0,1,2,2.51A2.89,2.89,0,0,1,23,16.84a1.9,1.9,0,0,0-.09.22c.17.06.32.13.48.17a3.7,3.7,0,0,1,2.57,3.44c0,1.8,0,3.61,0,5.42A1.56,1.56,0,0,1,24,27.76l-.25,0v1a2.51,2.51,0,0,1,0,.39.45.45,0,0,1-.46.41.44.44,0,0,1-.45-.34,1.94,1.94,0,0,1-.05-.49c0-.83,0-1.66,0-2.49,0-.14,0-.29,0-.46h-4a2.58,2.58,0,0,0,0,.38V39.4a4.18,4.18,0,0,0,0,.5.71.71,0,0,0,.65.64.73.73,0,0,0,.81-.52,2.4,2.4,0,0,0,.07-.6V28a4,4,0,0,1,0-.49.42.42,0,0,1,.44-.41.43.43,0,0,1,.48.42c0,.15,0,.3,0,.45V39.38a2.75,2.75,0,0,0,0,.5.75.75,0,0,0,.82.66.7.7,0,0,0,.69-.72c0-.72,0-6.25,0-7a2,2,0,0,1,.05-.49.45.45,0,0,1,.45-.34.48.48,0,0,1,.46.41.86.86,0,0,1,0,.16c0,.82,0,6.44,0,7.25a1.67,1.67,0,0,1-1.27,1.62,1.64,1.64,0,0,1-1.28-.15C21.09,41.24,21,41.14,20.8,41.05Zm2-16.38v-.59c0-.94,0-1.88,0-2.82a1.94,1.94,0,0,1,.05-.49.42.42,0,0,1,.47-.31.43.43,0,0,1,.43.36,2.13,2.13,0,0,1,0,.44c0,1.55,0,3.1,0,4.65a2,2,0,0,0,0,.49.5.5,0,0,0,.53.4.51.51,0,0,0,.55-.37,1.93,1.93,0,0,0,.07-.49V24.5c0-1.19,0-2.39,0-3.59A2.73,2.73,0,0,0,22.36,18c-1,0-2.07,0-3.1,0a2.59,2.59,0,0,0-1.45.48,2.76,2.76,0,0,0-1.18,2.33c0,1.73,0,3.46,0,5.2a1.24,1.24,0,0,0,0,.33.53.53,0,0,0,.56.43.57.57,0,0,0,.57-.5,3.2,3.2,0,0,0,0-.44V21.27a3.17,3.17,0,0,1,0-.44.43.43,0,0,1,.43-.37.4.4,0,0,1,.47.3,1.93,1.93,0,0,1,.06.49v3a3.56,3.56,0,0,0,0,.43Zm-3.67-9.41a2,2,0,0,0,0,.3A1.69,1.69,0,0,0,20.61,17a1.64,1.64,0,0,0,1.69-1,2.08,2.08,0,0,0-.08-1.82,1.51,1.51,0,0,0-1.29-.83A1.69,1.69,0,0,0,19.14,15.26Z"/><path class="cls-1" d="M23.81,30.71a.52.52,0,0,1-.55.51.55.55,0,0,1-.49-.52.54.54,0,0,1,.56-.5A.49.49,0,0,1,23.81,30.71Z"/></g></g></svg>