<svg xmlns="http://www.w3.org/2000/svg" viewBox="0 0 41.49 41.53"><defs><style>.cls-1{fill:#fff;}</style></defs><g id="Layer_2" data-name="Layer 2"><g id="Layer_1-2" data-name="Layer 1"><path class="cls-1" d="M16.7,34.84A8.4,8.4,0,0,1,12,40.72a8.07,8.07,0,0,1-6.14.38A8.41,8.41,0,0,1,.19,31.36a8.18,8.18,0,0,1,4.09-5.59,8.49,8.49,0,0,1,7-.65l1.17-2.62c-.31-.33-.59-.65-.9-.95C9.92,20,8.29,18.5,6.7,16.93a6.33,6.33,0,0,1-1.25-1.7A4.1,4.1,0,0,1,6,10.47a14.44,14.44,0,0,1,5.07-3.82.86.86,0,0,1,.52-.13.76.76,0,0,1,.47.35.54.54,0,0,1-.1.5,2.18,2.18,0,0,1-.62.39A10.43,10.43,0,0,0,9,9.24a12.22,12.22,0,0,0,1.54,2.11c.2-.09.41-.15.59-.25a12,12,0,0,1,7.11-1.21l.37.06c1.13.22,1.49.74,1.31,1.91,0,.15-.06.3-.11.57l1,.28L22,13a7.34,7.34,0,0,0,.81-2.28A2.27,2.27,0,0,0,22.32,9c-.29-.4-.63-.76-.9-1.18A3,3,0,0,0,19,6.46a14.33,14.33,0,0,0-4.43.22,1.42,1.42,0,0,1-.63.08.81.81,0,0,1-.49-.45c0-.13.11-.4.26-.52a1.3,1.3,0,0,1,.6-.21A14,14,0,0,1,19,5.32a3.3,3.3,0,0,0,.45,0c-.07-.25-.11-.44-.16-.63-.14-.47-.31-.94-.42-1.42a1.67,1.67,0,0,1,.8-1.91A6.58,6.58,0,0,1,20.9.71,10.28,10.28,0,0,1,26.73.22a7.5,7.5,0,0,1,1.9.71A2.8,2.8,0,0,1,30,2.75a1.41,1.41,0,0,1-.21,1.32,1.29,1.29,0,0,0,0,1.69c.14.2.3.39.44.6.47.72.39,1.13-.32,1.63l-.41.26c0,.4,0,.86,0,1.32,0,1.35-.7,2-2,1.93a13.7,13.7,0,0,1-2.27-.41,7.57,7.57,0,0,1-.95-.32A19.62,19.62,0,0,0,22.72,15c.36.13.57-.14.82-.29.81-.51,1.6-1.06,2.42-1.56a2.83,2.83,0,0,1,3.23,0,2.87,2.87,0,0,1,1.37,2.94,2.86,2.86,0,0,1-2,2.51,10,10,0,0,1-1.73.31c-.3,0-.6,0-.92.07a5,5,0,0,0,1.66,2l.59-.41a8.44,8.44,0,1,1-1.69,12,8.22,8.22,0,0,1-1.26-8.07,4,4,0,0,1,.3-.67.53.53,0,0,1,.73-.22.47.47,0,0,1,.28.61c-.08.33-.21.64-.32,1a7.25,7.25,0,1,0,7-5,7.12,7.12,0,0,0-4,1.15c-.28.18-.54.4-.85.64a14.89,14.89,0,0,0,2.17,2.59c.76.72,1.58,1.37,2.38,2.05.12.1.26.17.38.27.36.3.45.61.25.87s-.54.25-.83.08-.52-.34-.76-.53A29.24,29.24,0,0,1,27,22.36L24.56,19.5c-1,1.84-1.79,3.65-2.65,5.41s-1.71,3.54-2.59,5.47l1.25.08,2,.1c.83.06,1.2.31,1.35.89s-.11,1.1-.82,1.48a15,15,0,0,1-5.73,1.75l-.46,0A1.72,1.72,0,0,0,16.7,34.84Zm-6-8.57a5.28,5.28,0,0,0-2.59-.45,7.26,7.26,0,1,0,7.35,9,4.29,4.29,0,0,0-.37-2.61c-.32.05-.65.08-1,.15l-4.07.91-1,.24c-.36.06-.76.23-1-.13s0-.65.08-1L8.3,32c.55-1.28,1.11-2.55,1.65-3.83C10.22,27.56,10.45,26.93,10.72,26.27Zm.78-6.63,2.44-1.58L8.07,10.11c-1.09,1-1.92,2-1.76,3.48A3.76,3.76,0,0,0,7.5,15.93l3.63,3.45A4,4,0,0,0,11.5,19.64Zm6,1.51A46,46,0,0,0,18.68,29l1.56-3.22c.49-1,1-2.06,1.47-3.09a24.59,24.59,0,0,0,1.47-3.29Zm-8,10.9a18.05,18.05,0,0,0,5.55-1.29c-.13-1.18-.26-2.4-.4-3.62a.93.93,0,0,0-.18-.42c-.54-.71-1.09-1.4-1.69-2.15ZM12.76,14.4,17,20.11a14.62,14.62,0,0,0,2.9-1,3.68,3.68,0,0,0-.9-.15A1.66,1.66,0,0,1,17.44,17a8.47,8.47,0,0,1,.26-1.08c.19-.77.39-1.54.59-2.3A7.67,7.67,0,0,0,12.76,14.4Zm8.08-9.32a8.66,8.66,0,0,1,1.77-.8,8.69,8.69,0,0,1,1.94.07c1-1.4,2.71-1.06,4.24-1.2A1.3,1.3,0,0,0,28.13,2,3.81,3.81,0,0,0,27,1.47a9.06,9.06,0,0,0-4.3-.06,9,9,0,0,0-2.07.74c-.61.3-.68.57-.53,1.22A4.83,4.83,0,0,0,20.84,5.08Zm-6.16,14a14,14,0,0,0-2.24,1.62,4.57,4.57,0,0,0,.41.44,2.29,2.29,0,0,1,1,1.81,3.26,3.26,0,0,0,1.07,2.4A3.13,3.13,0,0,1,16,27.6s.07.1.16.22l.91-.23c0-.34,0-.58,0-.82-.21-1.47-.51-2.93-.62-4.4A5.4,5.4,0,0,0,14.68,19.1ZM25,16.84l-.48-.15c-.85-.17-1.7-.32-2.54-.5s-.92-.36-.7-1.15c.07-.29.13-.58.2-.88a4.25,4.25,0,0,0-2-.39c-.28,1.07-.59,2.13-.83,3.21-.12.51.09.74.62.8a3.69,3.69,0,0,0,.47,0h4.44c.24,0,.48,0,.79-.06ZM22.47,32v-.2l-.72-.08-3.23-.15c-.72,0-.84-.14-1-.85s-.17-1.14-.27-1.81l-1.16.32.59,4.34A12.83,12.83,0,0,0,22.47,32Zm2.88-25.5V10a19.59,19.59,0,0,0,1.94.39c.84.08,1-.22.79-1.13a5,5,0,0,1-1-.38.75.75,0,0,1-.26-.61.49.49,0,0,1,.61-.42,4.7,4.7,0,0,1,.63.13l-.38-.42L29,6.78l-.36-.45A3.27,3.27,0,0,1,25.35,6.45ZM18.6,12.28l.26-.95c-1.92-.87-6.16-.2-7.45,1.19l.67.83C14.11,12.18,16.27,12.18,18.6,12.28Zm5.3-3.17.16,0c0-.92,0-1.84,0-2.77,0-.63-.2-.87-.82-.84a2.48,2.48,0,0,0-1.1.37.47.47,0,0,0-.12.78Zm5.29,6.69a4.82,4.82,0,0,0-2.7.9c-.32.2-.13.82.25.85A2.78,2.78,0,0,0,29,16.88.94.94,0,0,0,29.19,15.8Zm-.34-1.42a1.79,1.79,0,0,0-2.31-.27c-.5.3-1,.62-1.47,1a5.26,5.26,0,0,0-.51.5,4.27,4.27,0,0,0,1.25,0C26.82,15.22,27.8,14.8,28.85,14.38Zm-.72-9.8c-1.33-.24-1.8-.12-2.2.57C27.12,5.62,27.83,5.46,28.13,4.58Z"/></g></g></svg>