<svg xmlns="http://www.w3.org/2000/svg" viewBox="0 0 33.37 41.53"><defs><style>.cls-1{fill:#fff;}</style></defs><g id="Layer_2" data-name="Layer 2"><g id="Layer_1-2" data-name="Layer 1"><path class="cls-1" d="M8.19,39.55a5.11,5.11,0,0,1-.06.55,1.62,1.62,0,0,1-1.67,1.42c-1.21,0-2.42,0-3.62,0A1.64,1.64,0,0,1,1.19,39.6a2.39,2.39,0,0,1,1.21-2l.42-.24A27.47,27.47,0,0,1,1.1,35,8.49,8.49,0,0,1,2,25.27,1.73,1.73,0,0,0,2.48,24a10.41,10.41,0,0,1,.07-1.48A3,3,0,0,1,5,19.86l.83-.15L4.23,12.42c-.31,0-.58,0-.85-.07a1.65,1.65,0,0,1-1.45-1.91A2.61,2.61,0,0,1,2.6,8.75a2.09,2.09,0,0,1,1.87-.58,22.63,22.63,0,0,0,5.26.32A2.15,2.15,0,0,1,11.89,9.8,1.25,1.25,0,0,1,11,11.68c-.71.17-1.46.22-2.19.32l-.5.08a3.39,3.39,0,0,0,0,.66c.42,2,.86,4,1.28,6,.07.33.18.59.52.69a1.64,1.64,0,0,1,.93,1c.25.53.53,1.05.77,1.58a1,1,0,0,0,.81.65,32.84,32.84,0,0,1,8.46,3.22c1.72.91,3.37,1.93,5.06,2.91.1.06.21.1.38.18a3.53,3.53,0,0,1,1.09-1.66c.1-.07.11-.28.15-.43.32-1.38.63-2.77,1-4.15a5.74,5.74,0,0,0-.34-3.54c-.27-.65-.56-1.3-.83-2a1.26,1.26,0,0,1-.18-.61.94.94,0,0,1,.3-.6.54.54,0,0,1,.74.17,1.12,1.12,0,0,1,.13.24C29.19,17.9,30,19.33,30.13,21a8,8,0,0,1-.22,2.29c-.29,1.32-.61,2.64-.93,4l1.14.65a1.54,1.54,0,0,0,.22-.32c.36-1.53.74-3.06,1.05-4.6A8.08,8.08,0,0,0,31,18.34c-1-2.34-2-4.65-3-7a4.37,4.37,0,0,0-.32-.52l-1.12.68c.22.53.44,1,.65,1.53a5,5,0,0,1,.24.6.59.59,0,0,1-1.08.47A10.81,10.81,0,0,1,25.81,13a1.46,1.46,0,0,0-.79-1c-.16-.05-.37-.45-.31-.58.39-.84-.25-1.38-.51-2.14l-1,.3a4.81,4.81,0,0,1-.9.19.9.9,0,0,1-1-1c.07-1.51.5-2.51,2-3,1.71-.55,3.39-1.16,5.08-1.75.29-.1.57-.22.9-.35.07-.87.14-1.73.23-2.59a3,3,0,0,1,.19-.89A.74.74,0,0,1,30.2,0a.46.46,0,0,1,.53.41,5,5,0,0,1,0,1c0,.57-.1,1.15-.17,1.85l1-.24a1,1,0,0,1,1.34,1.07,10.39,10.39,0,0,1-.33,1.82,1.1,1.1,0,0,1-.77.74c-.49.17-1,.36-1.49.55a7.76,7.76,0,0,0-.18,1.31,1.27,1.27,0,0,1-.84,1.3,5.12,5.12,0,0,0-.46.32c.25.59.48,1.18.74,1.77.77,1.78,1.53,3.57,2.32,5.35a10.41,10.41,0,0,1,.55,7.06c-.36,1.37-.63,2.77-1,4.14a1.72,1.72,0,0,0,.1,1,12.13,12.13,0,0,1,.33,1.8.73.73,0,0,1-.1.53c-.12.16-.34.35-.5.34a.88.88,0,0,1-.56-.38,1.42,1.42,0,0,1-.07-.72,2,2,0,0,0-1.21-2c-.38-.19-.75-.4-1.12-.6a79,79,0,0,0-2.84,9.75A1.54,1.54,0,0,0,27.07,38a3.28,3.28,0,0,1,2.41-.74h.92a8.31,8.31,0,0,0,.2-1.1c0-.56,0-1.11,0-1.67s.26-.65.63-.64a.59.59,0,0,1,.59.6c0,.8,0,1.6-.06,2.4,0,.15,0,.3-.07.48.23.14.44.26.64.4a2.39,2.39,0,0,1,1,2.35,1.55,1.55,0,0,1-1.5,1.4c-1.3,0-2.6,0-3.89,0a1.57,1.57,0,0,1-1.51-1.27c-.06-.21-.08-.42-.13-.69ZM3.81,23.6c.28-.15.53-.33.81-.45.48-.22,1-.42,1.45-.61a.57.57,0,0,1,.77.33c.15.32,0,.63-.38.82-.19.09-.4.15-.6.24a7.13,7.13,0,0,0-4.53,5.88,7.24,7.24,0,0,0,2.93,7,2,2,0,0,0,1.35.5,2.22,2.22,0,0,1,1.63.55,1.54,1.54,0,0,0,1.1.39c.62,0,1.24,0,1.85,0H23.08l.94,0A10.18,10.18,0,0,0,25,34.32l-.53,0c-.47-.07-.68-.26-.69-.6s.26-.61.76-.64c.33,0,.66,0,1,0l.22-.76a9,9,0,0,1-.91-.09.58.58,0,0,1-.51-.58.59.59,0,0,1,.5-.59,4.53,4.53,0,0,1,.74,0c.55,0,.55,0,.69-.73-.19-.14-.38-.29-.58-.42a53,53,0,0,0-8-4.3,26.8,26.8,0,0,0-7.19-2.06c-.46,0-.92-.07-1.38-.14a.6.6,0,1,1,.08-1.19c.21,0,.43,0,.65.05h.82L9.74,20.5c-1.43.18-2.81.33-4.18.54S3.56,22.05,3.81,23.6ZM5.63,12.24a42.47,42.47,0,0,0,1.56,7.34l1.35-.21c-.49-2.45-1-4.82-1.58-7.2Zm5.11-1.76c-.32-.71-.5-.83-1.29-.76a14.85,14.85,0,0,1-4.31-.23A4.53,4.53,0,0,0,4,9.41a1,1,0,0,0-.82,1.44.66.66,0,0,0,.36.24,1.42,1.42,0,0,0,.46,0l5.24-.42C9.76,10.62,10.24,10.55,10.74,10.48ZM22.65,8.55l6.41-2.24.05-1.13-5.68,2A1.18,1.18,0,0,0,22.65,8.55ZM2.5,40.23a35.89,35.89,0,0,0,4.28,0c.19-1.16-.15-1.62-1.18-1.65-.61,0-1.23,0-1.84,0C2.74,38.58,2.39,39,2.5,40.23Zm29.48,0c.23-1.15-.12-1.64-1.14-1.67-.64,0-1.29,0-1.94,0-1,0-1.38.62-1.09,1.66ZM26,10.38l1.17-.75-.53-1.18-1.31.48ZM31.45,4.5c-1,.1-1.14.22-1,1.2C31.46,5.56,31.52,5.49,31.45,4.5ZM28.26,8.9c.7-.39.7-.39.47-1.18l-.83.39Z"/><path class="cls-1" d="M9.07,24.59a6.14,6.14,0,0,1,6.27,6.19,6.24,6.24,0,1,1-12.48,0A6.14,6.14,0,0,1,9.07,24.59Zm5,6.21a5,5,0,0,0-5-5,5,5,0,1,0,5,5Z"/><path class="cls-1" d="M19.41,34.37c-.22.33-.43.64-.62,1a2.23,2.23,0,0,0-.09.36c.37,0,.69,0,1,0,.48,0,.68.21.7.56s-.2.61-.65.62q-1.75,0-3.51,0c-.45,0-.68-.25-.67-.6a.56.56,0,0,1,.69-.57,1.24,1.24,0,0,0,1.29-.8c.25-.43.53-.83.81-1.27a2.87,2.87,0,0,1-.58-2.35A2.42,2.42,0,0,1,18.62,30a2.5,2.5,0,0,1,4,2.71C22.2,34,21.18,34.51,19.41,34.37Zm.83-1.26c1-.13,1.43-.72,1.26-1.49a1.33,1.33,0,0,0-1.56-1,1.19,1.19,0,0,0-.78,1.74c.19-.27.35-.51.53-.74a.65.65,0,0,1,.89-.24.64.64,0,0,1,.14.9C20.58,32.57,20.42,32.81,20.24,33.11Z"/><path class="cls-1" d="M16.4,26.5a.64.64,0,0,1,.63.57.57.57,0,0,1-.58.58.6.6,0,0,1-.63-.55A.63.63,0,0,1,16.4,26.5Z"/></g></g></svg>