<svg xmlns="http://www.w3.org/2000/svg" viewBox="0 0 11.22 11.22"><defs><style>.cls-1{fill:#bc2130;}</style></defs><g id="Layer_2" data-name="Layer 2"><g id="Layer_1-2" data-name="Layer 1"><path class="cls-1" d="M4.59,6.61l-2.19,0H.84A.77.77,0,0,1,0,5.81V5.38a.77.77,0,0,1,.81-.79H4.58c0-.08,0-.15,0-.22V.87A.77.77,0,0,1,5.45,0h.41a.76.76,0,0,1,.77.81V4.36c0,.07,0,.14,0,.22h3.67c.62,0,.91.28.91.9v.3a.77.77,0,0,1-.86.84H7.16l-.52,0c0,.1,0,.17,0,.24V10.3c0,.64-.28.92-.91.92H5.44a.78.78,0,0,1-.85-.86V6.61Z"/></g></g></svg>