<svg xmlns="http://www.w3.org/2000/svg" viewBox="0 0 18.05 22.75"><g id="Layer_2" data-name="Layer 2"><g id="Layer_1-2" data-name="Layer 1"><path d="M13.44,20.39c-.29.56-.57,1.08-.85,1.6a3,3,0,0,1-.25.43.77.77,0,0,1-1.29,0,3.11,3.11,0,0,1-.2-.41L9.24,18.08c-.05-.13-.12-.26-.22-.46-.09.19-.15.3-.19.41L7.21,21.92a3,3,0,0,1-.16.37.77.77,0,0,1-1.39.05,8.06,8.06,0,0,1-.39-.71c-.22-.4-.43-.8-.66-1.23L4,20.55c-.49.15-1,.32-1.45.45a.82.82,0,0,1-.89-.2.81.81,0,0,1-.13-.9,2.36,2.36,0,0,1,.12-.28c.51-1.25,1-2.5,1.55-3.75l.12-.33a1,1,0,0,0-.58-.4,1.75,1.75,0,0,1-1.31-1.72,1.31,1.31,0,0,0-.52-1,1.68,1.68,0,0,1-.55-2A1.43,1.43,0,0,0,.25,9.25a1.69,1.69,0,0,1,.2-2A1.42,1.42,0,0,0,.78,6.05,1.62,1.62,0,0,1,1.62,4.3a1.6,1.6,0,0,0,.8-1A1.67,1.67,0,0,1,3.91,1.93a1.34,1.34,0,0,0,1-.62,1.71,1.71,0,0,1,2-.74A1.31,1.31,0,0,0,8,.37a1.71,1.71,0,0,1,2.12,0,1.33,1.33,0,0,0,1.11.2,1.7,1.7,0,0,1,1.94.74,1.44,1.44,0,0,0,1,.63,1.65,1.65,0,0,1,1.45,1.3,1.56,1.56,0,0,0,.79,1A1.62,1.62,0,0,1,17.27,6a1.45,1.45,0,0,0,.32,1.18,1.69,1.69,0,0,1,.19,2.07,1.3,1.3,0,0,0-.12,1.12,1.72,1.72,0,0,1-.58,2,1.27,1.27,0,0,0-.48,1,1.76,1.76,0,0,1-1.31,1.73,1,1,0,0,0-.59.41c.19.46.38.93.58,1.4l1.1,2.66.12.28a.82.82,0,0,1-.12.9.81.81,0,0,1-.89.21c-.59-.16-1.16-.35-1.75-.53Zm3.2-14.51A1.11,1.11,0,0,0,16,4.82,1.85,1.85,0,0,1,15,3.5,1.13,1.13,0,0,0,14,2.56a1.67,1.67,0,0,1-1.3-.78,1.17,1.17,0,0,0-1.4-.54A1.8,1.8,0,0,1,9.76,1,1.16,1.16,0,0,0,8.27,1a1.82,1.82,0,0,1-1,.34,3.76,3.76,0,0,1-.65-.09,1,1,0,0,0-1.11.43A2,2,0,0,1,4,2.59a1,1,0,0,0-.92.83A2,2,0,0,1,2,4.86,1,1,0,0,0,1.43,6,1.93,1.93,0,0,1,1,7.66,1,1,0,0,0,.84,8.93,2,2,0,0,1,1,10.68a1,1,0,0,0,.32,1.19l.19.17a1.74,1.74,0,0,1,.61,1.29A1.16,1.16,0,0,0,3,14.53,1.75,1.75,0,0,1,4.16,15.6a1.09,1.09,0,0,0,1.15.73,1.92,1.92,0,0,1,1.55.59,1.13,1.13,0,0,0,1.39.23,1.8,1.8,0,0,1,1.57,0,1.11,1.11,0,0,0,1.35-.22,2,2,0,0,1,1.6-.61,1.06,1.06,0,0,0,1.11-.71,1.84,1.84,0,0,1,1.18-1.1,1.14,1.14,0,0,0,.87-1.17A1.68,1.68,0,0,1,16.56,12,1.21,1.21,0,0,0,17,10.51a1.65,1.65,0,0,1,.12-1.42A1.21,1.21,0,0,0,17,7.51a1.65,1.65,0,0,1-.38-1.37A1.78,1.78,0,0,0,16.64,5.88ZM3.79,16.34A22.5,22.5,0,0,0,2.2,20.39c.16,0,.32-.07.48-.12l1.4-.43c.67-.2.94-.09,1.28.53s.5,1,.76,1.43a3.52,3.52,0,0,0,.26.36C7,20.72,7.56,19.37,8.12,18a2.06,2.06,0,0,1-1.88-.68A.94.94,0,0,0,5.45,17,1.89,1.89,0,0,1,3.79,16.34ZM9.92,18l1.62,3.89a1.31,1.31,0,0,0,.2.23,1.86,1.86,0,0,0,.17-.24l.76-1.43c.37-.69.61-.79,1.34-.57.53.17,1.07.33,1.6.48a1.18,1.18,0,0,0,.34,0l-1.66-4a1.83,1.83,0,0,1-1.53.68,1.29,1.29,0,0,0-1.1.41A1.78,1.78,0,0,1,10.5,18,5.14,5.14,0,0,1,9.92,18Z"/><path d="M6.56,9.91,4.63,8.41c-.24-.19-.42-.4-.31-.74a.6.6,0,0,1,.47-.47,5,5,0,0,1,.56-.06l2.15,0c.07-.16.14-.31.2-.46.2-.57.4-1.14.61-1.71a1.78,1.78,0,0,1,.22-.46.59.59,0,0,1,1,0,2.17,2.17,0,0,1,.22.46c.26.71.51,1.42.78,2.15a2.85,2.85,0,0,0,.4,0l1.88,0a2,2,0,0,1,.54.09.61.61,0,0,1,.26,1,5.64,5.64,0,0,1-.69.59c-.47.38-1,.75-1.44,1.12.21.77.42,1.52.62,2.26a1.8,1.8,0,0,1,.09.45.6.6,0,0,1-.84.57,1.75,1.75,0,0,1-.4-.22L9.47,12,9,11.73l-1.15.75c-.29.2-.58.4-.88.59s-.66.26-.89.06a.72.72,0,0,1-.18-.83l.63-2.24A.53.53,0,0,0,6.56,9.91Zm4.92,2.63c0-.17,0-.24-.06-.3-.19-.65-.36-1.3-.57-1.94a.82.82,0,0,1,.34-1c.34-.25.67-.51,1-.77s.52-.42.82-.68l-.33,0c-.65,0-1.31-.06-2-.07a.81.81,0,0,1-.87-.61c-.18-.56-.4-1.11-.61-1.67C9.18,5.34,9.12,5.21,9,5c-.08.2-.14.32-.19.44-.18.5-.37,1-.55,1.52-.28.74-.32.77-1.09.8l-2.13.09c.12.11.2.19.29.26L6.82,9.26c.46.37.52.54.36,1.09s-.36,1.23-.53,1.85a1.82,1.82,0,0,0,0,.32c.66-.44,1.27-.83,1.86-1.25a.85.85,0,0,1,1.11,0C10.17,11.7,10.78,12.08,11.48,12.54Z"/><path d="M9.18,15.68A6.78,6.78,0,0,1,3,11.82a5.92,5.92,0,0,1-.55-1.73c-.07-.4,0-.59.22-.63s.37.09.44.49A5.76,5.76,0,0,0,5,13.43,5.94,5.94,0,0,0,9.12,15a6,6,0,0,0,5.79-5c0-.12.05-.23.08-.35a.3.3,0,0,1,.35-.22.32.32,0,0,1,.28.36,1.23,1.23,0,0,1,0,.2,6.57,6.57,0,0,1-4.74,5.36A11.47,11.47,0,0,1,9.18,15.68Z"/><path d="M9.21,3A6,6,0,0,0,3.14,8,1.6,1.6,0,0,1,3,8.35a.24.24,0,0,1-.32.17.57.57,0,0,1-.27-.26c0-.07,0-.2,0-.29A6.65,6.65,0,0,1,8,2.43a6.46,6.46,0,0,1,5.91,2.09A6.51,6.51,0,0,1,15.6,8a1.14,1.14,0,0,1,0,.26.31.31,0,0,1-.29.3A.27.27,0,0,1,15,8.31c-.06-.25-.11-.5-.17-.74a5.88,5.88,0,0,0-2.63-3.64A5.42,5.42,0,0,0,9.21,3Z"/></g></g></svg>