<svg xmlns="http://www.w3.org/2000/svg" viewBox="0 0 22.76 22.75"><g id="Layer_2" data-name="Layer 2"><g id="Layer_1-2" data-name="Layer 1"><path d="M7.36,20.34V14.6c0-.1,0-.2,0-.3a.59.59,0,0,0-.55-.57H2a.6.6,0,0,0-.65.63c0,.13,0,.27,0,.4V19c0,.12,0,.24,0,.36a.3.3,0,0,1-.3.29.29.29,0,0,1-.33-.24,1.45,1.45,0,0,1,0-.35V14.55a2.58,2.58,0,0,1,0-.4,1.17,1.17,0,0,1,1.21-1.07H6.63c.22,0,.43,0,.69,0a3.6,3.6,0,0,0,0-.36V9.36c0-.12,0-.24,0-.36a1.25,1.25,0,0,1,1.3-1.27l.4,0V7.14c0-.67.26-.94.92-1l.28,0c0-.36,0-.69,0-1a.65.65,0,0,0-.13-.31A1.55,1.55,0,0,0,9.06,4,2.33,2.33,0,0,1,7.44,2.8a9.27,9.27,0,0,1-.55-1.09c-.26-.57,0-1,.63-1,.19,0,.37,0,.56,0h.53c.05,0,.09-.07.1-.09.1-.58.17-.64.75-.64h3.86c.57,0,.65.08.76.69l.37,0c.31,0,.61,0,.92,0a.57.57,0,0,1,.57.77,3.73,3.73,0,0,1-1.61,2.25,4.43,4.43,0,0,1-.95.32.66.66,0,0,0-.42.25c-.09.14-.22.26-.31.4a.73.73,0,0,0-.14.36c0,.32,0,.64,0,1,.17,0,.31,0,.46.06A.86.86,0,0,1,13.7,7c0,.22,0,.43,0,.68l.48,0a1.25,1.25,0,0,1,1.21,1.15,3.49,3.49,0,0,1,0,.46v5.72h2.69a1.61,1.61,0,0,1,.31,0,.31.31,0,0,1,.28.31.32.32,0,0,1-.3.34H16c-.42,0-.62.17-.63.56,0,1.32,0,2.64,0,3.92l.06.07,0,0,.31,0H21.3s.05,0,.1,0a1,1,0,0,0,0-.18c0-1.2,0-2.4,0-3.61,0-.57-.2-.75-.77-.75-.3,0-.61,0-.91,0s-.37-.13-.37-.33.13-.32.38-.33.81,0,1.21,0a1.17,1.17,0,0,1,1.09,1,4.17,4.17,0,0,1,0,.61c0,1,0,2,0,3.05v.52l.32.17a.71.71,0,0,1,.33.59c0,.33,0,.65,0,1a.73.73,0,0,1-.76.72c-.12,0-.24,0-.36,0-6.83,0-13.67,0-20.5,0-.83,0-1.19-.26-1.12-1.14,0-.18,0-.37,0-.55a.7.7,0,0,1,.67-.7,3.46,3.46,0,0,1,.46,0H7.36Zm7.37,0v-11a2.08,2.08,0,0,0,0-.35.55.55,0,0,0-.55-.54H8.59A.55.55,0,0,0,8,9c0,.1,0,.2,0,.3v10.6c0,.15,0,.3,0,.45Zm7.33.72H.74a1.65,1.65,0,0,0,0,1c1,.1,20.91.05,21.29-.06ZM9.39.7c0,.12,0,.2,0,.28a5.61,5.61,0,0,0,.9,2.86,1,1,0,0,0,1.07.57.53.53,0,0,1,.25,0A.74.74,0,0,0,12.36,4a4.85,4.85,0,0,0,.93-2.16A2.69,2.69,0,0,0,13.35.7Zm.38,7H13V7.27c0-.14,0-.29,0-.48-1.09,0-2.14,0-3.21,0Zm3.84-4.37c.8-.23,1.18-.73,1.61-1.9H14.1Zm-6.1-1.9c.38.82.67,1.65,1.65,1.9l-.5-1.9Zm4.27,4.65v-1a2.07,2.07,0,0,0-.79.05v.93Z"/><path d="M19.23,18a3.61,3.61,0,0,1,.21.6,1,1,0,1,1-2.06.29.54.54,0,0,1,.09-.37.31.31,0,0,1,.5.1c.06.1.06.25.14.32a.58.58,0,0,0,.39.15c.1,0,.21-.15.27-.26a.31.31,0,0,0-.16-.39c-.09-.06-.24-.06-.32-.13A.53.53,0,0,1,18.1,18c0-.08.1-.2.19-.26s.19-.06.28-.11.26-.2.2-.36A.61.61,0,0,0,18.5,17a.32.32,0,0,0-.4.14s-.06.12-.1.18-.3.25-.46.17-.21-.26-.13-.49a1.09,1.09,0,0,1,1.07-.7,1,1,0,0,1,.93,1.34A3.79,3.79,0,0,1,19.23,18Z"/><path d="M4.33,18.16h.79a.32.32,0,0,1,.34.31.31.31,0,0,1-.32.32c-.49,0-1,0-1.46,0-.29,0-.4-.25-.27-.51a1.49,1.49,0,0,1,.2-.29c.28-.39.56-.76.83-1.15a1.94,1.94,0,0,0,.22-.4A.38.38,0,0,0,4.44,16,.34.34,0,0,0,4,16.1a1.14,1.14,0,0,0-.12.22.31.31,0,0,1-.42.15A.34.34,0,0,1,3.27,16a1.05,1.05,0,1,1,2,.63A2.73,2.73,0,0,1,5,17.2C4.8,17.49,4.59,17.78,4.33,18.16Z"/><path d="M11.36,13.35a1.13,1.13,0,0,1-.36-.08.61.61,0,0,1-.23-.3.27.27,0,0,1,.25-.32,3.28,3.28,0,0,1,.7,0A.33.33,0,0,1,12,13c0,.91,0,1.83,0,2.74,0,.23-.14.38-.32.37s-.31-.14-.31-.38c0-.61,0-1.21,0-1.82Z"/></g></g></svg>