<svg xmlns="http://www.w3.org/2000/svg" viewBox="0 0 22.75 22.75"><g id="Layer_2" data-name="Layer 2"><g id="Layer_1-2" data-name="Layer 1"><path d="M0,11.36V1.72c0-.15,0-.31,0-.46A1.31,1.31,0,0,1,1.25,0H18.81a2,2,0,0,1,.64.09,1.37,1.37,0,0,1,.93,1.37c0,.68,0,1.35,0,2a1,1,0,0,1-.05.3.47.47,0,0,1-.45.34.43.43,0,0,1-.39-.45c0-.61,0-1.22,0-1.83a2.75,2.75,0,0,0,0-.5C19.41,1,19.28.92,19,.9H1.75C.94.9.92.93.92,1.73V21c0,.8,0,.83.83.83H18.9c.4,0,.57-.18.59-.59s0-.57,0-.86a1.61,1.61,0,0,1,0-.31.44.44,0,0,1,.36-.37.43.43,0,0,1,.44.28,1,1,0,0,1,.07.25,4.33,4.33,0,0,1-.11,1.6,1.27,1.27,0,0,1-1.12.89,3.38,3.38,0,0,1-.45,0c-5.67,0-11.34,0-17,0A1.5,1.5,0,0,1,0,21.05C0,17.82,0,14.59,0,11.36Z"/><path d="M13.44,11a1.47,1.47,0,0,1,.08-1.23H6.07a2.88,2.88,0,0,1-.59-.06.37.37,0,0,1-.3-.46c0-.24.14-.35.4-.37h7.68c0-.1.05-.2.07-.29a1.34,1.34,0,0,1,.61-1A.65.65,0,0,0,14.25,7a1.25,1.25,0,0,1,1.19-1.22.93.93,0,0,0,.66-.41A1.2,1.2,0,0,1,17.62,5a1,1,0,0,0,.86,0A1.21,1.21,0,0,1,20,5.38a.87.87,0,0,0,.66.39A1.24,1.24,0,0,1,21.83,7a.63.63,0,0,0,.28.5,1.23,1.23,0,0,1,.48,1.71.77.77,0,0,0,0,.63,1.25,1.25,0,0,1-.48,1.71.63.63,0,0,0-.28.51,1.26,1.26,0,0,1-1.22,1.24.73.73,0,0,0-.7.82v3.81a.44.44,0,0,1-.29.43.42.42,0,0,1-.5-.11l-.86-.86L18,17.2l-.79.78c-.11.1-.21.22-.33.31a.42.42,0,0,1-.71-.22,1.68,1.68,0,0,1,0-.45q0-1.73,0-3.45a.86.86,0,0,0-.15-.58.7.7,0,0,0-.45-.28c-.91-.14-1.17-.4-1.34-1.3a.39.39,0,0,0-.05-.14l-.52,0H6.11a2.36,2.36,0,0,1-.65-.08c-.23,0-.31-.22-.28-.47A.37.37,0,0,1,5.55,11h7.89ZM19,5.67l-.36.16a1.34,1.34,0,0,1-1.26,0c-.35-.18-.45-.16-.67.18a1.35,1.35,0,0,1-1.1.62c-.36,0-.47.15-.5.51a1.34,1.34,0,0,1-.62,1.09c-.35.24-.37.32-.18.72a1.3,1.3,0,0,1,0,1.21c-.18.39-.15.46.21.71a1.37,1.37,0,0,1,.6,1.06c0,.4.06.43.49.49a1.54,1.54,0,0,1,1.1.64c.22.32.32.35.67.19a1.39,1.39,0,0,1,1.27,0,.6.6,0,0,0,.19.06.38.38,0,0,0,.44-.16,1.48,1.48,0,0,1,1.25-.74c.3,0,.37-.1.38-.38a1.42,1.42,0,0,1,.69-1.22c.26-.16.29-.3.15-.6a1.51,1.51,0,0,1,0-1.36c.13-.28.1-.41-.14-.57A1.45,1.45,0,0,1,20.93,7a.35.35,0,0,0-.3-.35,1.57,1.57,0,0,0-.3,0,1.19,1.19,0,0,1-.9-.5A4.08,4.08,0,0,0,19,5.67Zm-1.94,8.62v2.53l.1.07a3.13,3.13,0,0,1,.2-.3c.56-.63.75-.61,1.29,0a3.09,3.09,0,0,0,.31.28V14.3a6.33,6.33,0,0,0-.73-.25.94.94,0,0,0-.44,0C17.58,14.11,17.35,14.2,17.09,14.29Z"/><path d="M17.36,3.05H3.07c0,.2,0,.38,0,.56v7.86a2.81,2.81,0,0,1,0,.41.43.43,0,0,1-.48.41.43.43,0,0,1-.41-.43c0-.1,0-.21,0-.31V2.88a2.09,2.09,0,0,1,0-.25c0-.35.15-.47.5-.5H3c4.81,0,9.63,0,14.45,0,.7,0,.87.25.85.87,0,.19,0,.37,0,.56a1.28,1.28,0,0,1-.13.42.36.36,0,0,1-.44.18.38.38,0,0,1-.31-.35c0-.12,0-.24,0-.35Z"/><path d="M3.05,19.69H17.34c0-.19,0-.37,0-.55a.37.37,0,0,1,.3-.36.39.39,0,0,1,.48.19,1,1,0,0,1,.11.33,6.42,6.42,0,0,1,0,.76.54.54,0,0,1-.59.55H3c-.76,0-.81-.06-.81-.8q0-2.13,0-4.26c0-.12,0-.24,0-.35a.41.41,0,0,1,.44-.4.41.41,0,0,1,.45.38,2.08,2.08,0,0,1,0,.35v4.16Z"/><path d="M11,13.07h2.18a2.68,2.68,0,0,1,.4,0,.44.44,0,0,1,.35.43.42.42,0,0,1-.34.39,2.11,2.11,0,0,1-.35,0H8.31a.44.44,0,0,1-.37-.41.42.42,0,0,1,.37-.42,2,2,0,0,1,.35,0Z"/><path d="M11.12,16.66c-.12.11-.22.22-.34.31s-.49.22-.67,0-.17-.41.05-.67l.15-.15a1,1,0,0,1,1.58,0c.11.12.24.23.38.38l.61-.6a2.42,2.42,0,0,1,.33-.31.4.4,0,0,1,.55,0,.39.39,0,0,1,.06.55,8.24,8.24,0,0,1-1.08,1.05.83.83,0,0,1-1.15-.12C11.43,17,11.29,16.84,11.12,16.66Z"/><path d="M7.88,6.11H7a1.51,1.51,0,0,1-.3,0,.45.45,0,0,1-.34-.39.47.47,0,0,1,.36-.43h2a1.13,1.13,0,0,1,.26,0,.39.39,0,0,1,.39.43c0,.24-.14.38-.42.41H7.88Z"/><path d="M5.12,5.26a.46.46,0,0,1,.45.45.44.44,0,0,1-.45.4.43.43,0,0,1-.43-.45A.42.42,0,0,1,5.12,5.26Z"/><path d="M2.59,13.08a.42.42,0,1,1,0,.84.42.42,0,1,1,0-.84Z"/><path d="M18.08,9.81l1.24-1.27a1.53,1.53,0,0,1,.3-.27.44.44,0,0,1,.55.08.39.39,0,0,1,0,.55,1.54,1.54,0,0,1-.17.19l-1.55,1.52c-.35.34-.5.34-.85,0s-.46-.44-.69-.67l-.1-.11a.49.49,0,0,1,0-.61.47.47,0,0,1,.64,0,2.54,2.54,0,0,1,.29.28Z"/></g></g></svg>