<svg xmlns="http://www.w3.org/2000/svg" viewBox="0 0 22.64 25.15"><defs><style>.cls-1{fill:#be2433;}</style></defs><g id="Layer_2" data-name="Layer 2"><g id="Layer_1-2" data-name="Layer 1"><path class="cls-1" d="M10.07,5.2a32.92,32.92,0,0,1-.48,4.18,20.41,20.41,0,0,0-.32,4.68,11.19,11.19,0,0,0,.78,3.43,10.72,10.72,0,0,1,.85,3.87,4.19,4.19,0,0,1-.47,2.11A3,3,0,0,1,8.9,24.81,4.15,4.15,0,0,1,6.1,25a2.92,2.92,0,0,1-1.68-1.4A5.74,5.74,0,0,1,3.79,21c0-.88-.07-1.76-.19-2.63a16.49,16.49,0,0,0-2.09-6.12A11.52,11.52,0,0,1,0,7.69,6.63,6.63,0,0,1,1,3.61,7.83,7.83,0,0,1,3.8.75,4.37,4.37,0,0,1,7.23.13,3.55,3.55,0,0,1,9.75,2.55,7.27,7.27,0,0,1,10.07,5.2ZM2.66,12.59A5.09,5.09,0,0,1,8.75,8.93a1.46,1.46,0,0,0,.09-.18A19.84,19.84,0,0,0,9.18,4a4.07,4.07,0,0,0-.24-1.14A2.74,2.74,0,0,0,5.46,1,5.49,5.49,0,0,0,2.71,2.72,6.31,6.31,0,0,0,1,8.32,11.78,11.78,0,0,0,2.66,12.59Zm1.77,5.2a.72.72,0,0,0,0,.19c.07.91.13,1.82.21,2.73a11.55,11.55,0,0,0,.17,1.44,2.4,2.4,0,0,0,3.12,2.08A2.41,2.41,0,0,0,10,22.17a6.5,6.5,0,0,0-.2-2.77c-.08-.3-.2-.59-.31-.92A5.12,5.12,0,0,1,4.43,17.79ZM9,16.94c-2,.41-3.16.12-4-1.05a3.17,3.17,0,0,1-.35-3.54,3.37,3.37,0,0,1,4-1.76l.06-.77A4.14,4.14,0,0,0,3.47,12.9a2.9,2.9,0,0,0,.14,2,2.86,2.86,0,0,1,.21.58,2.58,2.58,0,0,0,.85,1.36,4.15,4.15,0,0,0,3.79,1,7.45,7.45,0,0,0,.76-.25Zm-.42-1.7a1.78,1.78,0,0,1-2.24-.3A1.63,1.63,0,0,1,6.08,13a1.73,1.73,0,0,1,2.32-.68l.06-.79a2.43,2.43,0,0,0-3,.85,2.51,2.51,0,0,0,.26,3.19A2.4,2.4,0,0,0,8.69,16Zm-1-.59a.83.83,0,1,0,0-1.65.83.83,0,0,0-.84.81A.82.82,0,0,0,7.52,14.65Z"/><path class="cls-1" d="M11.68,21.35a11.81,11.81,0,0,1,.74-3.4,14.63,14.63,0,0,0,.82-2.74,14.3,14.3,0,0,0,0-4.08c-.15-1.28-.39-2.55-.53-3.83a14.65,14.65,0,0,1-.08-3.8,4.7,4.7,0,0,1,.51-1.59A3.57,3.57,0,0,1,17,.06a5.91,5.91,0,0,1,3,1.5A7.71,7.71,0,0,1,22.6,6.42a8.43,8.43,0,0,1-.34,3.16,10.47,10.47,0,0,1-1.1,2.63A17.36,17.36,0,0,0,19,18.66c-.09.68-.08,1.38-.14,2.06a11.92,11.92,0,0,1-.25,1.89,3.18,3.18,0,0,1-4,2.45A3.15,3.15,0,0,1,12,22.88,11.14,11.14,0,0,1,11.68,21.35ZM20,12.57a11.06,11.06,0,0,0,1.64-4,6.39,6.39,0,0,0-.09-3.22,7.19,7.19,0,0,0-2.24-3.29A5.07,5.07,0,0,0,17.14,1a2.73,2.73,0,0,0-3.43,1.84,4.87,4.87,0,0,0-.26,1.26,17.07,17.07,0,0,0,.18,3.57,3.74,3.74,0,0,0,.27,1.31,5.16,5.16,0,0,1,3.75.57A5.27,5.27,0,0,1,20,12.57Zm-1.8,5.23a5.08,5.08,0,0,1-5,.7,6.54,6.54,0,0,0-.56,3.68,2.39,2.39,0,0,0,2.08,2.05c.2,0,.41,0,.61.05a2.16,2.16,0,0,0,2.32-1.48,5.87,5.87,0,0,0,.36-2C18.07,19.83,18.13,18.85,18.18,17.8Zm-4.11-7.27c.57,0,1.09,0,1.6,0a2.69,2.69,0,0,1,1.43.6,3.28,3.28,0,0,1,1,1.2,3.24,3.24,0,0,1-.36,3.54,3.35,3.35,0,0,1-4,1l-.26.71a3.64,3.64,0,0,0,2.35.32,3.63,3.63,0,0,0,3.08-2.58c.08-.25.2-.49.27-.74a2.54,2.54,0,0,0,.13-.77A4.1,4.1,0,0,0,17,10.09a3.86,3.86,0,0,0-3-.28ZM14,16A2.46,2.46,0,0,0,17,15.43a2.51,2.51,0,0,0,0-3.16,2.37,2.37,0,0,0-2.89-.71l.08.77a1.75,1.75,0,0,1,2.2.52,1.67,1.67,0,0,1,0,1.9,1.74,1.74,0,0,1-2.37.49Zm1.15-3a.81.81,0,0,0-.84.79.84.84,0,0,0,.84.86.82.82,0,0,0,.81-.83A.81.81,0,0,0,15.1,13Z"/><path class="cls-1" d="M8.43,5,8.19,7.37a1.35,1.35,0,0,1,0,.28.41.41,0,0,1-.42.3.37.37,0,0,1-.37-.41c0-.3.06-.59.08-.89,0-.84.08-1.68.07-2.52a2.49,2.49,0,0,0-.23-.91,1,1,0,0,0-1.06-.64,2.83,2.83,0,0,0-.87.2,5.07,5.07,0,0,0-2.8,4.51A18.6,18.6,0,0,0,3,9.37c0,.15.1.29.12.43a.38.38,0,0,1-.26.45.38.38,0,0,1-.48-.16L2.27,10a6.91,6.91,0,0,1-.49-3.78,6.07,6.07,0,0,1,2.94-4A2.93,2.93,0,0,1,6.6,1.74,1.77,1.77,0,0,1,8,2.79a3.53,3.53,0,0,1,.36,1.45c0,.27,0,.53,0,.79Z"/><path class="cls-1" d="M5.46,20.64c0-.26,0-.52,0-.78a.4.4,0,0,1,.8,0c0,.26,0,.53,0,.79a11.16,11.16,0,0,0,.15,1.28c.13.6.38.74,1,.68s.87-.28.91-.85a7,7,0,0,0,0-1.12c0-.18-.08-.36-.09-.55a.39.39,0,0,1,.33-.45.41.41,0,0,1,.48.29.43.43,0,0,0,0,.05,5,5,0,0,1,.06,2.28A1.43,1.43,0,0,1,8,23.34c-1.23.32-2.18.07-2.46-1.47-.07-.4-.1-.82-.14-1.22Z"/><path class="cls-1" d="M15.07,5.12c.07.74.12,1.37.18,2,0,.15,0,.3,0,.45a.38.38,0,0,1-.35.38.39.39,0,0,1-.43-.28,1.31,1.31,0,0,1-.07-.44c-.06-1-.14-2-.17-3a3.09,3.09,0,0,1,.4-1.5,1.82,1.82,0,0,1,1.86-1,3.5,3.5,0,0,1,1.76.65,6.36,6.36,0,0,1,2.62,4,6.1,6.1,0,0,1-.2,2.55,6.4,6.4,0,0,1-.26.85c-.15.45-.34.6-.6.51s-.32-.31-.2-.75a14.22,14.22,0,0,0,.42-1.8,4.76,4.76,0,0,0-1.82-4.3,3.19,3.19,0,0,0-1.4-.79,1.17,1.17,0,0,0-1.62,1A10.7,10.7,0,0,0,15.07,5.12Z"/><path class="cls-1" d="M17.22,20.65c-.06.47-.09.93-.19,1.39a1.56,1.56,0,0,1-1.82,1.41,1.65,1.65,0,0,1-1.77-1.7c0-.5,0-1,.07-1.51a1.16,1.16,0,0,1,.08-.32c.1-.27.29-.38.52-.31a.41.41,0,0,1,.29.48c0,.18-.08.36-.1.55a9.39,9.39,0,0,0,0,1.06c0,.61.33.85,1,.9s.86-.14,1-.76.1-1.08.14-1.62a3.15,3.15,0,0,1,0-.44.38.38,0,0,1,.41-.32.36.36,0,0,1,.37.35c0,.28,0,.56,0,.84Z"/></g></g></svg>