<svg xmlns="http://www.w3.org/2000/svg" viewBox="0 0 25.13 25.15"><defs><style>.cls-1{fill:#be2433;}</style></defs><g id="Layer_2" data-name="Layer 2"><g id="Layer_1-2" data-name="Layer 1"><path class="cls-1" d="M9.56,8.21c-.1,1.11-.18,2.21-.31,3.31a14.66,14.66,0,0,0,.9,7.09,18.27,18.27,0,0,0,.92,2.08,2.56,2.56,0,0,1,0,2.54,3.39,3.39,0,0,1-3.39,1.88,3.31,3.31,0,0,1-3-2.1,3,3,0,0,1-.26-1.2,18.43,18.43,0,0,0-1.7-7.52c-.49-1.17-1-2.33-1.5-3.5-.22-.51-.43-1-.64-1.53A6.9,6.9,0,0,1,.2,5,7.14,7.14,0,0,1,2.32,1.16,4.19,4.19,0,0,1,4.84,0,2.84,2.84,0,0,1,7,.82a6.86,6.86,0,0,1,1.66,2.6A13.76,13.76,0,0,1,9.56,8.21Zm-1,1.36a2.67,2.67,0,0,0,.05-.35c0-.62,0-1.25,0-1.87a11,11,0,0,0-.88-3.9,5.81,5.81,0,0,0-1.32-2A2.11,2.11,0,0,0,4.39.92a3.63,3.63,0,0,0-1.51.84A6.34,6.34,0,0,0,.93,5.56a6,6,0,0,0,0,2A16.86,16.86,0,0,0,2,10.68c.23.61.52,1.19.78,1.79l.18.4A5,5,0,0,1,8.6,9.57Zm-.06.91a4,4,0,0,0-3.4.66,3.84,3.84,0,0,0-1.55,2.95,1.22,1.22,0,0,0,.09.56c.15.46.33.91.51,1.36a1.89,1.89,0,0,0,.26.46A4,4,0,0,0,7.18,18,3.54,3.54,0,0,0,9,17.73a17.68,17.68,0,0,1-.64-3.59A22.35,22.35,0,0,1,8.54,10.48Zm-.85,8.36a.33.33,0,0,0-.06.1c-.08.21-.19.37-.45.36s-.33-.17-.38-.38-.21-.22-.37-.29c-.48-.18-.94-.38-1.41-.57l-.28-.14a17.78,17.78,0,0,1,.44,4,2.28,2.28,0,0,0,.18.76A2.67,2.67,0,0,0,8,24.3a2.68,2.68,0,0,0,2.43-1.72,1.72,1.72,0,0,0-.05-1.47c-.36-.71-.65-1.44-1-2.16l-.16-.37Z"/><path class="cls-1" d="M25.12,7a5.75,5.75,0,0,1-.52,2.25c-.5,1.27-1,2.53-1.59,3.78A26.78,26.78,0,0,0,21.1,18.5a13.69,13.69,0,0,0-.32,3.13,3.23,3.23,0,0,1-1.09,2.55,3.46,3.46,0,0,1-3.63.75,3.31,3.31,0,0,1-2.32-2.87A2,2,0,0,1,14,20.78a18.79,18.79,0,0,0,1.66-4.55A13.8,13.8,0,0,0,16,12.44c0-.92-.19-1.84-.27-2.76A12.62,12.62,0,0,1,17,2.38a6.63,6.63,0,0,1,.93-1.31,3,3,0,0,1,4-.56,5.89,5.89,0,0,1,2.5,2.85A8.67,8.67,0,0,1,25.12,7Zm-2.94,5.93.46-1.09c.44-1.1.9-2.19,1.33-3.3a4.64,4.64,0,0,0,.29-1.21A7.15,7.15,0,0,0,23,2.64a4.4,4.4,0,0,0-1.55-1.42,2.27,2.27,0,0,0-3.07.48L18.2,2a8.35,8.35,0,0,0-1.31,2.76A12.79,12.79,0,0,0,16.41,8c0,.51.05,1,.08,1.58a5,5,0,0,1,3.44.56A4.79,4.79,0,0,1,22.18,12.92Zm-6,4.79a4.08,4.08,0,0,0,4.44-1.12,2.3,2.3,0,0,0,.36-.65c.17-.41.29-.83.46-1.24a1.79,1.79,0,0,0,.09-1,3.84,3.84,0,0,0-2.66-3.11,3.64,3.64,0,0,0-2.29-.1A15.19,15.19,0,0,1,16.14,17.71Zm-.24.86-.09.15c-.38.86-.75,1.72-1.14,2.57a1.42,1.42,0,0,0-.09.86,2.68,2.68,0,0,0,3,2.13A2.64,2.64,0,0,0,20,21.68a21.45,21.45,0,0,1,.15-2.27c.05-.49.16-1,.23-1.43-.49.2-1,.42-1.46.6-.28.1-.53.15-.63.5a.37.37,0,0,1-.67,0,1.4,1.4,0,0,1-.14-.27Z"/><path class="cls-1" d="M7.49,6.47a3.35,3.35,0,0,1-.1.42.37.37,0,0,1-.48.27A.4.4,0,0,1,6.6,6.7c0-.14,0-.27.06-.41,0-.33.19-.48.46-.46S7.5,6,7.49,6.47Z"/><path class="cls-1" d="M3.86,4.77c-.27,0-.4-.06-.48-.24a.34.34,0,0,1,.12-.44,3.29,3.29,0,0,1,.75-.31.35.35,0,0,1,.41.27.37.37,0,0,1-.15.47A4.66,4.66,0,0,1,3.86,4.77Z"/><path class="cls-1" d="M2.22,6a4,4,0,0,1,.12-.52.37.37,0,0,1,.47-.24.37.37,0,0,1,.29.4c0,.21-.05.42-.08.62a.41.41,0,0,1-.44.35.39.39,0,0,1-.34-.4,1.47,1.47,0,0,1,0-.21Z"/><path class="cls-1" d="M4.18,8c0,.37-.28.58-.54.46a2.56,2.56,0,0,1-.58-.39.4.4,0,0,1,0-.59.39.39,0,0,1,.55,0,2.92,2.92,0,0,1,.4.29A1.51,1.51,0,0,1,4.18,8Z"/><path class="cls-1" d="M6.37,5.1a.27.27,0,0,1-.16,0,6.58,6.58,0,0,1-.54-.38.37.37,0,0,1-.09-.48A.34.34,0,0,1,6,4a1.16,1.16,0,0,1,.76.53C6.92,4.79,6.72,5.1,6.37,5.1Z"/><path class="cls-1" d="M5.47,8.71A.52.52,0,0,1,5,8.38a.37.37,0,0,1,.19-.45,4,4,0,0,1,.65-.25.39.39,0,0,1,.33.69A6.21,6.21,0,0,1,5.47,8.71Z"/><path class="cls-1" d="M8.15,20.83a.44.44,0,0,1-.32.5.35.35,0,0,1-.44-.23,3.06,3.06,0,0,1-.16-.68.34.34,0,0,1,.27-.37.37.37,0,0,1,.46.18C8.05,20.44,8.1,20.68,8.15,20.83Z"/><path class="cls-1" d="M8.58,22.59a.4.4,0,0,1-.39.43.51.51,0,0,1-.44-.55.44.44,0,0,1,.38-.41A.47.47,0,0,1,8.58,22.59Z"/><path class="cls-1" d="M21.39,4.83c-.3-.12-.56-.2-.8-.32a.36.36,0,0,1-.14-.44.35.35,0,0,1,.36-.29,1.29,1.29,0,0,1,.85.36.29.29,0,0,1,.05.41A1.74,1.74,0,0,1,21.39,4.83Z"/><path class="cls-1" d="M22.87,6.07a2.09,2.09,0,0,1,0,.25.4.4,0,0,1-.37.33.37.37,0,0,1-.39-.3A3.51,3.51,0,0,1,22,5.7a.39.39,0,0,1,.76-.16,4.87,4.87,0,0,1,.12.52Z"/><path class="cls-1" d="M21.33,8.49A.38.38,0,0,1,21,8.23a.39.39,0,0,1,.11-.45,5.22,5.22,0,0,1,.54-.38.35.35,0,0,1,.45.06.39.39,0,0,1,.11.45A1.45,1.45,0,0,1,21.33,8.49Z"/><path class="cls-1" d="M18.81,5.1c-.42,0-.61-.31-.45-.57A1.18,1.18,0,0,1,19.12,4a.37.37,0,0,1,.44.24.35.35,0,0,1-.12.44C19.22,4.85,19,5,18.81,5.1Z"/><path class="cls-1" d="M17.6,6.34A1.11,1.11,0,0,1,17.72,6a.65.65,0,0,1,.36-.15.29.29,0,0,1,.33.25,4.24,4.24,0,0,1,.11.7.39.39,0,0,1-.33.38A.36.36,0,0,1,17.75,7,5.44,5.44,0,0,1,17.6,6.34Z"/><path class="cls-1" d="M19.65,8.71a7.19,7.19,0,0,1-.75-.34.33.33,0,0,1-.13-.43.37.37,0,0,1,.42-.27,3.7,3.7,0,0,1,.72.28.33.33,0,0,1,.16.43A.51.51,0,0,1,19.65,8.71Z"/><path class="cls-1" d="M17.92,20.47c-.07.22-.12.45-.21.66a.39.39,0,0,1-.74-.21,2.73,2.73,0,0,1,.16-.64.38.38,0,0,1,.48-.23A.43.43,0,0,1,17.92,20.47Z"/><path class="cls-1" d="M16.53,22.58a.49.49,0,0,1,.42-.52.44.44,0,0,1,.42.46.5.5,0,0,1-.45.5A.4.4,0,0,1,16.53,22.58Z"/></g></g></svg>