<svg xmlns="http://www.w3.org/2000/svg" viewBox="0 0 25.12 25.15"><defs><style>.cls-1{fill:#be2433;}</style></defs><g id="Layer_2" data-name="Layer 2"><g id="Layer_1-2" data-name="Layer 1"><path class="cls-1" d="M7.19,21,3.84,18.94a3.68,3.68,0,0,1-.08.41.45.45,0,0,1-.48.31.4.4,0,0,1-.43-.37,14.26,14.26,0,0,1,0-1.73c0-.27.24-.4.52-.4h1.4a.47.47,0,0,1,.54.39.45.45,0,0,1-.33.56,1.89,1.89,0,0,0-.21.09c3.52,3.29,10.7,4.15,15.61,0l-.33-.16a.46.46,0,0,1-.24-.52.41.41,0,0,1,.41-.39c.54,0,1.09,0,1.63,0,.31,0,.44.25.45.54,0,.47,0,.94,0,1.41s-.18.52-.45.54-.44-.12-.52-.46a1.31,1.31,0,0,1,0-.27L17.93,21h6.33a1.64,1.64,0,0,1,.5,0c.24.07.42.26.34.5a.86.86,0,0,1-.38.42c-.09.07-.25,0-.38,0H.78A2.61,2.61,0,0,1,.5,22a.51.51,0,0,1-.5-.5A.53.53,0,0,1,.52,21c.15,0,.3,0,.45,0H7.19Z"/><path class="cls-1" d="M12.52,1.34l-1.58,2C10,4.49,9.08,5.63,8.19,6.81a5.48,5.48,0,0,0,.57,7.38,5.37,5.37,0,0,0,5.52,1.24l.37-.13c.43-.14.7-.05.8.24s0,.56-.48.69a9,9,0,0,1-2.07.46,6.24,6.24,0,0,1-6-3.31,6.11,6.11,0,0,1,.35-6.93c1.13-1.6,2.41-3.09,3.63-4.63.39-.49.78-1,1.19-1.49s.62-.44,1,0c1.59,2,3.21,3.94,4.73,6a6.19,6.19,0,0,1,.86,6.16,1.92,1.92,0,0,1-.19.41.44.44,0,0,1-.54.17.42.42,0,0,1-.31-.47,2.72,2.72,0,0,1,.15-.54A5.27,5.27,0,0,0,17,6.94c-1.4-1.86-2.89-3.67-4.34-5.49C12.66,1.42,12.62,1.4,12.52,1.34Z"/><path class="cls-1" d="M12.5,25.14H.51a.49.49,0,1,1,0-1c.21,0,.41,0,.62,0H24.28a2.54,2.54,0,0,1,.39,0,.51.51,0,0,1,.45.49.49.49,0,0,1-.46.48,2.77,2.77,0,0,1-.5,0Z"/><path class="cls-1" d="M16.81,14.93a.49.49,0,0,1-.46-.52.5.5,0,0,1,.48-.46.49.49,0,0,1,0,1Z"/></g></g></svg>