<svg xmlns="http://www.w3.org/2000/svg" viewBox="0 0 17.71 25.15"><defs><style>.cls-1{fill:#be2433;}</style></defs><g id="Layer_2" data-name="Layer 2"><g id="Layer_1-2" data-name="Layer 1"><path class="cls-1" d="M9.3,1H1c0,.16,0,.31,0,.47A36.74,36.74,0,0,0,1.74,9a37.23,37.23,0,0,1,.73,6.4,10.14,10.14,0,0,1-.81,4.1A7.48,7.48,0,0,0,1,22.17,1.88,1.88,0,0,0,3.72,24a10.86,10.86,0,0,1,1.67-.64,4.36,4.36,0,0,1,3.05.32,4.78,4.78,0,0,0,2.22.5c1.61,0,3.22,0,4.83,0a2.54,2.54,0,0,0,.39,0,1,1,0,0,0,.83-1,1,1,0,0,0-.87-.93c-.45,0-.9,0-1.35,0a1,1,0,0,1-.67-.23c-1.46-1.1-2.94-2.19-4.4-3.3a3.38,3.38,0,0,1-1.37-3.19c.14-1.52.26-3.05.39-4.58a5.32,5.32,0,0,1,.06-.56c.06-.33.25-.5.52-.47a.47.47,0,0,1,.43.54c0,.77-.11,1.53-.17,2.3-.09,1-.2,2-.26,3A2.36,2.36,0,0,0,10,17.85l2.78,2.09c.44.34.91.66,1.34,1a1.13,1.13,0,0,0,.82.27,6.76,6.76,0,0,1,.9,0,2,2,0,0,1,0,3.91c-1.88,0-3.77,0-5.66,0a4.33,4.33,0,0,1-1.89-.5,4,4,0,0,0-3.72.05,5.2,5.2,0,0,1-.77.32A2.83,2.83,0,0,1,0,22.34a7.22,7.22,0,0,1,.58-2.9,8.38,8.38,0,0,0,.8-2.84,17.32,17.32,0,0,0,0-3C1.19,11.83.91,10,.61,8.25A38.27,38.27,0,0,1,0,.77C0,.15.16,0,.77,0H9.58c.63,0,.78.15.73.76-.14,1.7-.28,3.39-.44,5.09a.78.78,0,0,1-.23.48.6.6,0,0,1-.46,0,.48.48,0,0,1-.3-.55c0-.5.1-1,.14-1.51C9.11,3.25,9.2,2.17,9.3,1Z"/><path class="cls-1" d="M5.31,19.86a2.4,2.4,0,0,1-1.47-.56A1.48,1.48,0,0,1,3.56,19a.45.45,0,0,1,0-.57.46.46,0,0,1,.56-.13,2.31,2.31,0,0,1,.28.19,1.56,1.56,0,0,0,2,0l.08-.07c.31-.21.57-.2.75,0s.16.49-.15.77A2.54,2.54,0,0,1,5.31,19.86Z"/><path class="cls-1" d="M9.64,8.13a.51.51,0,0,1-.48.51.51.51,0,0,1-.49-.44.52.52,0,0,1,.45-.54A.5.5,0,0,1,9.64,8.13Z"/></g></g></svg>