<svg xmlns="http://www.w3.org/2000/svg" viewBox="0 0 19.1 19.1"><defs><style>.cls-1{fill:#be2433;}.cls-2{fill:#fff;}</style></defs><g id="Layer_2" data-name="Layer 2"><g id="Layer_1-2" data-name="Layer 1"><circle class="cls-1" cx="9.55" cy="9.55" r="9.55"/><path class="cls-2" d="M9.55,14.66H7.75a3.27,3.27,0,0,1-3.31-3.3V7.73a3.28,3.28,0,0,1,3.3-3.29h3.62a3.27,3.27,0,0,1,3.29,3.29c0,1.22,0,2.43,0,3.65a3.26,3.26,0,0,1-3.28,3.27ZM5.17,9.54h0v1.8a2.54,2.54,0,0,0,2.58,2.58h3.59a2.53,2.53,0,0,0,2.58-2.57c0-1.2,0-2.39,0-3.59a2.55,2.55,0,0,0-2.57-2.59H7.76A2.54,2.54,0,0,0,5.17,7.75Z"/><path class="cls-2" d="M7,9.5a2.56,2.56,0,1,1,1.56,2.4l-.14-.07a.38.38,0,0,1-.13-.44.37.37,0,0,1,.4-.21l.22.08a1.82,1.82,0,0,0,2.45-1.71,1.82,1.82,0,1,0-3.46.8,1,1,0,0,1,.1.21.36.36,0,0,1-.17.43.38.38,0,0,1-.46-.11.87.87,0,0,1-.11-.18A2.71,2.71,0,0,1,7,9.5Z"/><path class="cls-2" d="M12.83,6.82a.55.55,0,0,1-.55.54.55.55,0,1,1,0-1.09A.55.55,0,0,1,12.83,6.82Z"/></g></g></svg>