<svg xmlns="http://www.w3.org/2000/svg" viewBox="0 0 19.1 19.1"><defs><style>.cls-1{fill:#be2433;}.cls-2{fill:#fff;}</style></defs><g id="Layer_2" data-name="Layer 2"><g id="Layer_1-2" data-name="Layer 1"><circle class="cls-1" cx="9.55" cy="9.55" r="9.55"/><path class="cls-2" d="M11.79,7.37a4.88,4.88,0,0,0-4.49,0,1.16,1.16,0,0,0,0,.18.84.84,0,0,1-.77,1.11,10.87,10.87,0,0,1-1.51,0,.79.79,0,0,1-.73-.6,1.71,1.71,0,0,1,.23-1.49A3.25,3.25,0,0,1,5.65,5.5a7.11,7.11,0,0,1,2.79-1,7.55,7.55,0,0,1,1.84,0,7,7,0,0,1,3.49,1.25,2.75,2.75,0,0,1,1,1.2,1.66,1.66,0,0,1,0,1.12.85.85,0,0,1-.81.63q-.68,0-1.35,0a.86.86,0,0,1-.84-1.16S11.78,7.42,11.79,7.37ZM5.83,8h.64c.21,0,.3-.14.25-.35a3.38,3.38,0,0,0-.08-.34c-.06-.26,0-.38.21-.49a8.41,8.41,0,0,1,.82-.35A5.42,5.42,0,0,1,11,6.39a6.32,6.32,0,0,1,1.25.48.36.36,0,0,1,.21.49c0,.11-.05.21-.08.32s0,.36.27.37h1.23c.2,0,.26-.07.3-.26a1.21,1.21,0,0,0-.3-1.06,3.51,3.51,0,0,0-1.22-.94,7,7,0,0,0-3.51-.7,6.83,6.83,0,0,0-2.66.67,3.51,3.51,0,0,0-1.27,1,1.29,1.29,0,0,0-.31,1C5,8,5,8,5.24,8Z"/><path class="cls-2" d="M10.68,8.9h.5a.59.59,0,0,1,.5.22c.34.38.7.74,1,1.13a4,4,0,0,1,1,2.3c0,.57,0,1.14,0,1.7,0,.29-.13.4-.43.41H5.7c-.21,0-.33-.09-.33-.31a8.91,8.91,0,0,1,.13-2.42,4.07,4.07,0,0,1,.89-1.68c.35-.41.73-.79,1.09-1.18a.49.49,0,0,1,.38-.16H8.4c0-.15,0-.29,0-.43a.31.31,0,0,1,.61,0,1.48,1.48,0,0,1,0,.21v.23h1c0-.15,0-.29,0-.43a.31.31,0,0,1,.61,0C10.69,8.62,10.68,8.75,10.68,8.9ZM13.11,14a12.34,12.34,0,0,0-.06-1.62,3.69,3.69,0,0,0-.87-1.81l-.85-.92A.4.4,0,0,0,11,9.54H8.09a.4.4,0,0,0-.33.14c-.29.32-.59.63-.88,1a3.25,3.25,0,0,0-.68,1.2A3.53,3.53,0,0,0,6,13.09c0,.31,0,.61,0,.93Z"/><path class="cls-2" d="M9.52,13.49a1.65,1.65,0,1,1,.07-3.3,1.66,1.66,0,0,1,1.61,1.68A1.65,1.65,0,0,1,9.52,13.49Zm-1-1.65a1,1,0,0,0,1,1,1,1,0,1,0,0-2A1,1,0,0,0,8.54,11.84Z"/></g></g></svg>