<svg xmlns="http://www.w3.org/2000/svg" viewBox="0 0 13.49 13.45"><defs><style>.cls-1{fill:#bc2130;}</style></defs><g id="Layer_2" data-name="Layer 2"><g id="Layer_1-2" data-name="Layer 1"><path class="cls-1" d="M13.49,1.12a2.24,2.24,0,0,1-.21.38,7.17,7.17,0,0,0-1.72,3.28,10.58,10.58,0,0,1-1.05,2.7,8.46,8.46,0,0,1-5,3.87c-.59.17-1.19.35-1.77.55a5.66,5.66,0,0,0-2.14,1.29c-.39.36-.6.35-1,0l-.45-.45a.5.5,0,0,1,0-.77,7.13,7.13,0,0,0,1.7-3.25A11.28,11.28,0,0,1,2.93,6,8.6,8.6,0,0,1,8.28,2c.44-.12.88-.27,1.32-.41A6,6,0,0,0,11.9.23a.53.53,0,0,1,.88,0c.16.16.33.31.48.49A2.87,2.87,0,0,1,13.49,1.12ZM1.77,11.64h0c.68-.47,1.34-1,2-1.41a20.08,20.08,0,0,0,5.8-5.52c.51-.73,1-1.47,1.5-2.21.16-.24.35-.46.53-.69a6,6,0,0,0-.79.52A40.52,40.52,0,0,0,6.94,5.21a.25.25,0,0,1-.15.08.36.36,0,0,1-.24-.07A.37.37,0,0,1,6.5,5a.41.41,0,0,1,.17-.2L9.51,2.66c.45-.33.92-.64,1.38-1-.91.3-1.8.61-2.7.89a7.9,7.9,0,0,0-5.6,5.58c-.24.79-.52,1.56-.78,2.33a3.49,3.49,0,0,1-.15.34A7,7,0,0,0,2.3,10L4.76,6.65c.12-.16.28-.27.46-.11s.06.32-.06.46c-.28.34-.58.67-.83,1-.67.94-1.32,1.9-2,2.86C2.17,11.14,2,11.39,1.77,11.64Zm10-9.09c-.37.55-.75,1.07-1.09,1.61a20.29,20.29,0,0,1-5,5.49c-.89.66-1.82,1.25-2.74,1.88a2.07,2.07,0,0,0-.24.2l2.77-.91a7.85,7.85,0,0,0,5.41-5.39C11.12,4.48,11.43,3.53,11.75,2.55Zm.58-2L11.81,1l.63.63.45-.52ZM1,11.8l-.44.5.55.6.52-.47Z"/><path class="cls-1" d="M6.23,5.85c-.16.13-.26.26-.34.25S5.7,6,5.61,5.87c.08-.09.15-.24.24-.24S6.05,5.74,6.23,5.85Z"/></g></g></svg>