<svg id="Слой_1" data-name="Слой 1" xmlns="http://www.w3.org/2000/svg" viewBox="0 0 566 63"><defs><style>.cls-1{opacity:0.05;}.cls-2{fill:#333;}</style></defs><g class="cls-1"><path class="cls-2" d="M72.13,10.37h6.33v.91l-3.62.9V50.81l3.62.91v.9H61.26v-.9l3.62-.91V17.92L50.7,53.22H48.89L30.48,17.92v32l4.83,1.81v.9H23.84v-.9l4.83-1.81V12.18l-3.62-.9v-.91h7.54a8.55,8.55,0,0,1,5,1.3,10.51,10.51,0,0,1,3.17,3.83L53.9,40.67,64,15.5a8.49,8.49,0,0,1,2.8-3.92A9.46,9.46,0,0,1,72.13,10.37Z"/><path class="cls-2" d="M96.87,36.93,84.5,12.18l-3-.9v-.91H89a8.49,8.49,0,0,1,5,1.33,10.38,10.38,0,0,1,3.11,3.8l8.93,17.81,9.18-20.22-4.53-1.81v-.91h11.47v.91l-4.83,1.81L106.83,36.33V50.81l3.62.91v.9H93.25v-.9l3.62-.91Z"/><path class="cls-2" d="M138.21,52a7.16,7.16,0,0,0,7.55-7.55,6.41,6.41,0,0,0-2.21-4.67,24.62,24.62,0,0,0-5.34-3.87q-3.14-1.71-6.31-3.68a18.36,18.36,0,0,1-5.37-5.1,12.06,12.06,0,0,1-2.2-7.12,9.21,9.21,0,0,1,3.83-7.57q3.84-3,11-3a12.94,12.94,0,0,1,4.95,1,14.17,14.17,0,0,1,3.56,2l1.14,1a8.58,8.58,0,0,1,1.36-1.78,8.41,8.41,0,0,1,1.42-1.18l.54-.36h1.51V21.54h-2.41c-.08-.28-.2-.66-.36-1.15a26.16,26.16,0,0,0-1.15-2.53,17.5,17.5,0,0,0-2-3.2,11.12,11.12,0,0,0-3.08-2.54A8.34,8.34,0,0,0,140.32,11a5.25,5.25,0,0,0-4,1.87,6.82,6.82,0,0,0-1.69,4.77,7,7,0,0,0,1.6,4.43,14,14,0,0,0,3.95,3.41c1.57.93,3.29,1.95,5.16,3.08s3.59,2.23,5.16,3.32a14.06,14.06,0,0,1,4,4.22,10.69,10.69,0,0,1,1.6,5.68,10.26,10.26,0,0,1-4.32,8.42q-4.32,3.34-12.28,3.35a16.83,16.83,0,0,1-5.8-1,14.64,14.64,0,0,1-3.92-2l-1.15-1a8,8,0,0,1-1.35,1.78,9.67,9.67,0,0,1-1.36,1.18l-.6.36h-1.51V41.46h2.41q.12.42.36,1.14a20.25,20.25,0,0,0,1.21,2.54,16.73,16.73,0,0,0,2.2,3.2,11.89,11.89,0,0,0,3.47,2.53A10.36,10.36,0,0,0,138.21,52Z"/><path class="cls-2" d="M177.44,36.33h-3.32V50.81l3.62.91v.9h-17.2v-.9l3.62-.91V12.18l-3.62-.9v-.91h16.9q10,0,14.36,3.29t4.35,9.69q0,6.39-4.35,9.69T177.44,36.33Zm-3.32-1.51h3.32a7.48,7.48,0,0,0,6.13-2.9c1.54-1.93,2.32-4.79,2.32-8.57s-.78-6.64-2.32-8.57a7.48,7.48,0,0,0-6.13-2.9h-3.32Z"/><path class="cls-2" d="M234.9,15.26q5.31,5.79,5.31,16.24T234.9,47.73q-5.31,5.81-14.31,5.8t-14.3-5.8Q201,41.94,201,31.5t5.31-16.24q5.31-5.79,14.3-5.79T234.9,15.26ZM227,47.4q2.65-4.92,2.66-15.9T227,15.59q-2.66-4.9-6.4-4.91t-6.39,4.91q-2.67,4.92-2.66,15.91t2.66,15.9q2.66,4.92,6.39,4.92T227,47.4Z"/><path class="cls-2" d="M270.69,52.62h-17.2v-.9l3.62-.91V11.88h-6.94a14.41,14.41,0,0,1-.4,3.38,10.68,10.68,0,0,1-1,2.66,14.94,14.94,0,0,1-1.18,1.81,14.55,14.55,0,0,1-1,1.15l-.43.36h-1.81V10.37h35.31V21.24h-1.81c-.28-.24-.65-.59-1.09-1a12.13,12.13,0,0,1-1.75-3.08A12.71,12.71,0,0,1,274,11.88h-6.95V50.81l3.63.91Z"/><path class="cls-2" d="M307.8,47.49l-6-13.58h-3.92v16.9l4.22.91v.9h-17.8v-.9l3.62-.91V12.18l-3.62-.9v-.91h16q19.31,0,19.31,11.77a10.54,10.54,0,0,1-.78,4.14,7.92,7.92,0,0,1-2.08,2.95,16.7,16.7,0,0,1-2.84,2,13.2,13.2,0,0,1-3.08,1.23c-1,.27-2,.47-2.84.61s-1.56.23-2.08.27h-.78l.81,0a16.64,16.64,0,0,1,2,.33,14.3,14.3,0,0,1,2.66.81,10.61,10.61,0,0,1,2.53,1.63,7.26,7.26,0,0,1,2,2.63l5.43,12.07,3,.91v.9h-8.45Q310,52.62,307.8,47.49ZM297.85,32.4h2.41a8.49,8.49,0,0,0,6.61-2.68q2.44-2.68,2.44-7.58t-2.44-7.57a8.5,8.5,0,0,0-6.61-2.69h-2.41Z"/><path class="cls-2" d="M340.09,30.89H347a11.71,11.71,0,0,1,.94-2.95,15.07,15.07,0,0,1,1.24-2.3l.54-.78h1.81V38.44h-1.81a13.74,13.74,0,0,1-2.72-6h-6.94V51.11h14.19a14.54,14.54,0,0,1,.39-3.38,10.59,10.59,0,0,1,1-2.65,15.36,15.36,0,0,1,1.18-1.81,11.37,11.37,0,0,1,1-1.15l.42-.36H360V52.62h-33.5v-.9l3.62-.91V12.18l-3.62-.9v-.91H358.8V21.24H357c-.28-.24-.64-.59-1.08-1a11.54,11.54,0,0,1-1.75-3.08,12.56,12.56,0,0,1-1.09-5.25h-13Z"/><path class="cls-2" d="M368.16,49.91l10.26-15.15L365.14,12.18l-3-.9v-.91h8.75a8.2,8.2,0,0,1,4.8,1.3A12.31,12.31,0,0,1,379,15.5l5.79,9.9,8.39-12.31-4.52-1.81v-.91h11.46v.91l-4.82,1.81L385.84,27l14,23.78,3,.91v.9h-8.75a8.13,8.13,0,0,1-4.8-1.3A12.2,12.2,0,0,1,386,47.49l-6.52-11-9.17,13.46,4.53,1.81v.9H363.33v-.9Z"/><path class="cls-2" d="M422.47,36.33h-3.31V50.81l3.62.91v.9h-17.2v-.9l3.62-.91V12.18l-3.62-.9v-.91h16.89q10,0,14.37,3.29t4.34,9.69q0,6.39-4.34,9.69T422.47,36.33Zm-3.31-1.51h3.31a7.48,7.48,0,0,0,6.13-2.9q2.32-2.9,2.32-8.57t-2.32-8.57a7.48,7.48,0,0,0-6.13-2.9h-3.31Z"/><path class="cls-2" d="M459.89,30.89h6.94a11.71,11.71,0,0,1,.94-2.95,16,16,0,0,1,1.24-2.3l.54-.78h1.81V38.44h-1.81a13.74,13.74,0,0,1-2.72-6h-6.94V51.11h14.19a14.54,14.54,0,0,1,.39-3.38,10.59,10.59,0,0,1,1-2.65,15.36,15.36,0,0,1,1.18-1.81,11.37,11.37,0,0,1,1-1.15l.42-.36h1.81V52.62h-33.5v-.9l3.62-.91V12.18l-3.62-.9v-.91H478.6V21.24h-1.81c-.28-.24-.64-.59-1.08-1A11.54,11.54,0,0,1,474,17.13a12.56,12.56,0,0,1-1.09-5.25h-13Z"/><path class="cls-2" d="M508.78,47.49l-6-13.58h-3.92v16.9l4.23.91v.9H485.24v-.9l3.62-.91V12.18l-3.62-.9v-.91h16q19.31,0,19.31,11.77a10.36,10.36,0,0,1-.79,4.14,7.81,7.81,0,0,1-2.08,2.95,16.62,16.62,0,0,1-2.83,2,13.38,13.38,0,0,1-3.08,1.23c-1,.27-2,.47-2.84.61s-1.56.23-2.08.27h-.79l.82,0a17,17,0,0,1,2,.33,14.3,14.3,0,0,1,2.66.81A10.61,10.61,0,0,1,514,36.11a7.13,7.13,0,0,1,2,2.63l5.43,12.07,3,.91v.9H516Q511,52.62,508.78,47.49Zm-10-15.09h2.42a8.48,8.48,0,0,0,6.6-2.68q2.45-2.68,2.45-7.58t-2.45-7.57a8.49,8.49,0,0,0-6.6-2.69h-2.42Z"/><path class="cls-2" d="M552.23,52.62H535v-.9l3.62-.91V11.88h-6.94a14.41,14.41,0,0,1-.39,3.38,10.68,10.68,0,0,1-1,2.66,16.24,16.24,0,0,1-1.18,1.81,14.23,14.23,0,0,1-1,1.15l-.42.36H526V10.37h35.31V21.24h-1.81c-.29-.24-.65-.59-1.09-1a11.83,11.83,0,0,1-1.75-3.08,12.72,12.72,0,0,1-1.09-5.25h-6.94V50.81l3.62.91Z"/></g></svg>