<svg id="Слой_1" data-name="Слой 1" xmlns="http://www.w3.org/2000/svg" viewBox="0 0 551 59"><defs><style>.cls-1{opacity:0.1;}.cls-2{fill:#fff;}</style></defs><g class="cls-1"><path class="cls-2" d="M55.13,7.9h6.33v.9l-3.62.91V48.34l3.62.9v.91H44.26v-.91l3.62-.9V15.44L33.7,50.75H31.89L13.48,15.44v32l4.83,1.81v.91H6.84v-.91l4.83-1.81V9.71L8.05,8.8V7.9h7.54a8.47,8.47,0,0,1,5,1.3A10.42,10.42,0,0,1,23.74,13L36.9,38.2,47,13a8.44,8.44,0,0,1,2.8-3.92A9.38,9.38,0,0,1,55.13,7.9Z"/><path class="cls-2" d="M79.87,34.45,67.5,9.71l-3-.91V7.9H72a8.42,8.42,0,0,1,5,1.33A10.3,10.3,0,0,1,80.17,13l8.93,17.8,9.18-20.22L93.75,8.8V7.9h11.47v.9l-4.83,1.81L89.83,33.85V48.34l3.62.9v.91H76.25v-.91l3.62-.9Z"/><path class="cls-2" d="M121.21,49.54A7.16,7.16,0,0,0,128.76,42a6.45,6.45,0,0,0-2.21-4.68,24.6,24.6,0,0,0-5.34-3.86q-3.13-1.72-6.31-3.68a18.36,18.36,0,0,1-5.37-5.1,12.09,12.09,0,0,1-2.2-7.12A9.23,9.23,0,0,1,111.16,10q3.84-3,11-3a13,13,0,0,1,4.95,1,14.19,14.19,0,0,1,3.56,2l1.14,1a8.32,8.32,0,0,1,1.36-1.78A7.54,7.54,0,0,1,134.55,8l.54-.36h1.51V19.06h-2.41q-.12-.42-.36-1.14a26,26,0,0,0-1.15-2.54,18.22,18.22,0,0,0-2-3.2,11.1,11.1,0,0,0-3.08-2.53,8.35,8.35,0,0,0-4.26-1.15,5.29,5.29,0,0,0-4,1.87,6.84,6.84,0,0,0-1.69,4.77,7,7,0,0,0,1.6,4.44,14.2,14.2,0,0,0,4,3.41q2.35,1.38,5.16,3.08c1.87,1.12,3.59,2.23,5.16,3.31a14.09,14.09,0,0,1,4,4.23,10.66,10.66,0,0,1,1.6,5.67,10.24,10.24,0,0,1-4.32,8.42q-4.32,3.36-12.28,3.35a16.83,16.83,0,0,1-5.8-1,14.61,14.61,0,0,1-3.92-2l-1.15-1a8.2,8.2,0,0,1-1.35,1.78,11.23,11.23,0,0,1-1.36,1.18l-.6.36h-1.51V39h2.41c.08.28.2.66.36,1.15a20.32,20.32,0,0,0,1.21,2.53,16.13,16.13,0,0,0,2.2,3.2,11.91,11.91,0,0,0,3.47,2.54A10.48,10.48,0,0,0,121.21,49.54Z"/><path class="cls-2" d="M160.44,33.85h-3.32V48.34l3.62.9v.91h-17.2v-.91l3.62-.9V9.71l-3.62-.91V7.9h16.9q10,0,14.36,3.29t4.35,9.68q0,6.4-4.35,9.69T160.44,33.85Zm-3.32-1.51h3.32a7.45,7.45,0,0,0,6.13-2.9c1.54-1.93,2.32-4.78,2.32-8.57s-.78-6.63-2.32-8.57a7.47,7.47,0,0,0-6.13-2.89h-3.32Z"/><path class="cls-2" d="M217.9,12.79q5.31,5.79,5.31,16.23T217.9,45.26q-5.31,5.79-14.31,5.79t-14.3-5.79Q184,39.47,184,29t5.31-16.23Q194.6,7,203.59,7T217.9,12.79ZM210,44.93Q212.65,40,212.65,29T210,13.12q-2.66-4.92-6.4-4.92t-6.39,4.92Q194.53,18,194.54,29t2.66,15.91c1.77,3.28,3.9,4.91,6.39,4.91S208.22,48.21,210,44.93Z"/><path class="cls-2" d="M253.69,50.15h-17.2v-.91l3.62-.9V9.41h-6.94a14.54,14.54,0,0,1-.4,3.38,10.59,10.59,0,0,1-1,2.65,14.19,14.19,0,0,1-1.18,1.81,11.57,11.57,0,0,1-1,1.15l-.43.36h-1.81V7.9h35.31V18.76h-1.81c-.28-.24-.65-.58-1.09-1a12.33,12.33,0,0,1-1.75-3.08A12.71,12.71,0,0,1,257,9.41h-6.95V48.34l3.63.9Z"/><path class="cls-2" d="M290.8,45l-6-13.58h-3.92v16.9l4.22.9v.91h-17.8v-.91l3.62-.9V9.71l-3.62-.91V7.9h16q19.31,0,19.31,11.77a10.49,10.49,0,0,1-.78,4.13,7.88,7.88,0,0,1-2.08,3,16.65,16.65,0,0,1-2.84,2A13.25,13.25,0,0,1,293.79,30c-1,.26-2,.46-2.84.6s-1.56.23-2.08.27h-.78l.81,0a15.3,15.3,0,0,1,2,.34,14.3,14.3,0,0,1,2.66.81,10.31,10.31,0,0,1,2.53,1.63,7.23,7.23,0,0,1,2,2.62l5.43,12.08,3,.9v.91h-8.45Q293,50.15,290.8,45Zm-9.95-15.09h2.41a8.5,8.5,0,0,0,6.61-2.69q2.44-2.68,2.44-7.57t-2.44-7.58a8.49,8.49,0,0,0-6.61-2.68h-2.41Z"/><path class="cls-2" d="M323.09,28.42H330a11.78,11.78,0,0,1,.94-3,14.89,14.89,0,0,1,1.24-2.29l.54-.79h1.81V36h-1.81a13.76,13.76,0,0,1-2.72-6h-6.94V48.64h14.19a14.41,14.41,0,0,1,.39-3.38,10.68,10.68,0,0,1,1-2.66,16.24,16.24,0,0,1,1.18-1.81,14.23,14.23,0,0,1,1-1.15l.42-.36H343V50.15h-33.5v-.91l3.62-.9V9.71l-3.62-.91V7.9H341.8V18.76H340q-.42-.36-1.08-1a11.71,11.71,0,0,1-1.75-3.08,12.56,12.56,0,0,1-1.09-5.25h-13Z"/><path class="cls-2" d="M351.16,47.43l10.26-15.15L348.14,9.71l-3-.91V7.9h8.75a8.13,8.13,0,0,1,4.8,1.3A12.2,12.2,0,0,1,362,13l5.79,9.9,8.39-12.32L371.68,8.8V7.9h11.46v.9l-4.82,1.81-9.48,14,14,23.78,3,.9v.91h-8.75a8.2,8.2,0,0,1-4.8-1.3A12.31,12.31,0,0,1,369,45L362.44,34l-9.17,13.46,4.53,1.81v.91H346.33v-.91Z"/><path class="cls-2" d="M405.47,33.85h-3.31V48.34l3.62.9v.91h-17.2v-.91l3.62-.9V9.71l-3.62-.91V7.9h16.89q10,0,14.37,3.29t4.34,9.68q0,6.4-4.34,9.69T405.47,33.85Zm-3.31-1.51h3.31a7.45,7.45,0,0,0,6.13-2.9c1.55-1.93,2.32-4.78,2.32-8.57s-.77-6.63-2.32-8.57a7.47,7.47,0,0,0-6.13-2.89h-3.31Z"/><path class="cls-2" d="M442.89,28.42h6.94a11.78,11.78,0,0,1,.94-3A15.81,15.81,0,0,1,452,23.17l.54-.79h1.81V36h-1.81a13.76,13.76,0,0,1-2.72-6h-6.94V48.64h14.19a14.41,14.41,0,0,1,.39-3.38,10.68,10.68,0,0,1,1-2.66,16.24,16.24,0,0,1,1.18-1.81,14.23,14.23,0,0,1,1-1.15l.42-.36h1.81V50.15h-33.5v-.91l3.62-.9V9.71l-3.62-.91V7.9H461.6V18.76h-1.81q-.42-.36-1.08-1A11.71,11.71,0,0,1,457,14.66a12.56,12.56,0,0,1-1.09-5.25h-13Z"/><path class="cls-2" d="M491.78,45l-6-13.58h-3.92v16.9l4.23.9v.91H468.24v-.91l3.62-.9V9.71l-3.62-.91V7.9h16q19.31,0,19.31,11.77a10.31,10.31,0,0,1-.79,4.13,7.77,7.77,0,0,1-2.08,3,16.57,16.57,0,0,1-2.83,2A13.43,13.43,0,0,1,494.77,30c-1,.26-2,.46-2.84.6s-1.56.23-2.08.27h-.79l.82,0a15.6,15.6,0,0,1,2,.34,14.3,14.3,0,0,1,2.66.81A10.31,10.31,0,0,1,497,33.64a7.09,7.09,0,0,1,2,2.62l5.43,12.08,3,.9v.91H499Q494,50.15,491.78,45Zm-10-15.09h2.42a8.49,8.49,0,0,0,6.6-2.69q2.45-2.68,2.45-7.57t-2.45-7.58a8.48,8.48,0,0,0-6.6-2.68h-2.42Z"/><path class="cls-2" d="M535.23,50.15H518v-.91l3.62-.9V9.41h-6.94a14.54,14.54,0,0,1-.39,3.38,10.59,10.59,0,0,1-1,2.65,15.36,15.36,0,0,1-1.18,1.81,11.37,11.37,0,0,1-1,1.15l-.42.36H509V7.9h35.31V18.76h-1.81c-.29-.24-.65-.58-1.09-1a12,12,0,0,1-1.75-3.08,12.72,12.72,0,0,1-1.09-5.25h-6.94V48.34l3.62.9Z"/></g></svg>