<svg id="Слой_1" data-name="Слой 1" xmlns="http://www.w3.org/2000/svg" viewBox="0 0 698 337"><defs><style>.cls-1{opacity:0.1;}.cls-2{fill:#333;}</style></defs><g class="cls-1"><path class="cls-2" d="M67,95.86h8.11V97l-4.63,1.16v49.41l4.63,1.16v1.16h-22v-1.16l4.64-1.16V105.51L39.59,150.67H37.28L13.73,105.51v40.92l6.17,2.31v1.16H5.24v-1.16l6.17-2.31V98.17L6.78,97V95.86h9.65a10.84,10.84,0,0,1,6.37,1.66,13.42,13.42,0,0,1,4.05,4.9l16.83,32.19,12.9-32.19a10.74,10.74,0,0,1,3.59-5C61.64,96.37,63.91,95.86,67,95.86Z"/><path class="cls-2" d="M98.66,129.83,82.83,98.17,79,97V95.86h9.65a10.87,10.87,0,0,1,6.45,1.69,13.51,13.51,0,0,1,4,4.87l11.43,22.77L122.2,99.33,116.41,97V95.86h14.67V97l-6.17,2.32L111.4,129.05v18.53l4.63,1.16v1.16H94v-1.16l4.64-1.16Z"/><path class="cls-2" d="M151.54,149.13a9.15,9.15,0,0,0,9.65-9.65,8.28,8.28,0,0,0-2.81-6,31.64,31.64,0,0,0-6.84-4.94q-4-2.19-8.07-4.71a23.3,23.3,0,0,1-6.87-6.52,15.47,15.47,0,0,1-2.82-9.11,11.8,11.8,0,0,1,4.91-9.69q4.91-3.83,14-3.82A16.45,16.45,0,0,1,159,96a18,18,0,0,1,4.56,2.51l1.46,1.24a10.6,10.6,0,0,1,1.74-2.28,10,10,0,0,1,1.82-1.51l.69-.46h1.93v14.67h-3.09c-.1-.36-.26-.85-.46-1.47a30.87,30.87,0,0,0-1.47-3.24,22.33,22.33,0,0,0-2.58-4.09,14.23,14.23,0,0,0-3.94-3.25,10.7,10.7,0,0,0-5.45-1.46A6.76,6.76,0,0,0,149.07,99a8.77,8.77,0,0,0-2.16,6.1,8.89,8.89,0,0,0,2.05,5.67,18.12,18.12,0,0,0,5,4.37q3,1.77,6.6,3.93c2.4,1.45,4.6,2.86,6.61,4.25a17.84,17.84,0,0,1,5.05,5.41,13.5,13.5,0,0,1,2,7.25,13.1,13.1,0,0,1-5.52,10.77q-5.52,4.29-15.71,4.29a21.39,21.39,0,0,1-7.42-1.28,18.53,18.53,0,0,1-5-2.5L139.19,146a10.45,10.45,0,0,1-1.74,2.28,12,12,0,0,1-1.74,1.5l-.77.47H133V135.62h3.09c.1.36.26.85.46,1.46a25.73,25.73,0,0,0,1.55,3.25,20.53,20.53,0,0,0,2.82,4.09,15.1,15.1,0,0,0,4.44,3.24A13.27,13.27,0,0,0,151.54,149.13Z"/><path class="cls-2" d="M201.73,129.05h-4.25v18.53l4.63,1.16v1.16h-22v-1.16l4.63-1.16V98.17L180.11,97V95.86h21.62q12.81,0,18.37,4.2t5.56,12.39q0,8.19-5.56,12.4T201.73,129.05Zm-4.25-1.93h4.25a9.54,9.54,0,0,0,7.83-3.7q3-3.7,3-11t-3-11a9.54,9.54,0,0,0-7.83-3.7h-4.25Z"/><path class="cls-2" d="M275.23,102.11q6.79,7.41,6.79,20.77t-6.79,20.77q-6.8,7.41-18.3,7.41t-18.3-7.41q-6.8-7.41-6.79-20.77t6.79-20.77q6.8-7.41,18.3-7.41T275.23,102.11Zm-10.12,41.11q3.4-6.28,3.4-20.34t-3.4-20.35q-3.39-6.28-8.18-6.29t-8.18,6.29q-3.41,6.3-3.4,20.35t3.4,20.34q3.39,6.3,8.18,6.29T265.11,143.22Z"/><path class="cls-2" d="M321,149.9H299v-1.16l4.63-1.16V97.79h-8.88a18.64,18.64,0,0,1-.5,4.32,13.78,13.78,0,0,1-1.24,3.4,20.1,20.1,0,0,1-1.5,2.31,16.79,16.79,0,0,1-1.24,1.47l-.54.46h-2.31V95.86h45.16v13.89h-2.31c-.36-.31-.83-.74-1.39-1.31a15,15,0,0,1-2.24-3.94,16.09,16.09,0,0,1-1.39-6.71h-8.88v49.79l4.63,1.16Z"/><path class="cls-2" d="M368.49,143.34,360.77,126h-5v21.61l5.4,1.16v1.16H338.38v-1.16l4.64-1.16V98.17L338.38,97V95.86h20.46q24.71,0,24.71,15a13.52,13.52,0,0,1-1,5.29,10.07,10.07,0,0,1-2.67,3.78,20.19,20.19,0,0,1-3.63,2.51,16.58,16.58,0,0,1-3.93,1.58q-2,.51-3.63.78c-1.11.18-2,.29-2.67.34h-1c.26,0,.6,0,1,0a21.85,21.85,0,0,1,2.51.43,18.07,18.07,0,0,1,3.4,1,13.18,13.18,0,0,1,3.24,2.08,9.39,9.39,0,0,1,2.55,3.36l6.95,15.44,3.86,1.16v1.16H377.76Q371.36,149.9,368.49,143.34ZM355.76,124h3.08a10.88,10.88,0,0,0,8.46-3.44q3.12-3.43,3.12-9.69t-3.12-9.69a10.87,10.87,0,0,0-8.46-3.43h-3.08Z"/><path class="cls-2" d="M409.8,122.11h8.88a14.44,14.44,0,0,1,1.2-3.79,20.74,20.74,0,0,1,1.58-2.93l.69-1h2.32v17.38h-2.32a17.49,17.49,0,0,1-3.47-7.72H409.8V148h18.14a18.12,18.12,0,0,1,.51-4.32,13.41,13.41,0,0,1,1.23-3.4,19,19,0,0,1,1.51-2.32,16.35,16.35,0,0,1,1.23-1.46L433,136h2.32v13.9H392.43v-1.16l4.63-1.16V98.17L392.43,97V95.86h41.3v13.89h-2.31c-.36-.31-.83-.74-1.39-1.31a15.3,15.3,0,0,1-2.24-3.94,16.09,16.09,0,0,1-1.39-6.71H409.8Z"/><path class="cls-2" d="M445.7,146.43l13.13-19.38-17-28.88L438,97V95.86h11.2a10.38,10.38,0,0,1,6.13,1.66,15.65,15.65,0,0,1,4.29,4.9L467,115.08l10.73-15.75L472,97V95.86h14.67V97l-6.17,2.32-12.13,17.83,17.92,30.42,3.86,1.16v1.16H478.9a10.41,10.41,0,0,1-6.14-1.66,15.62,15.62,0,0,1-4.28-4.9l-8.34-14.13L448.4,146.43l5.79,2.31v1.16H439.53v-1.16Z"/><path class="cls-2" d="M515.19,129.05h-4.25v18.53l4.63,1.16v1.16h-22v-1.16l4.63-1.16V98.17L493.57,97V95.86h21.62q12.81,0,18.37,4.2t5.56,12.39q0,8.19-5.56,12.4T515.19,129.05Zm-4.25-1.93h4.25a9.57,9.57,0,0,0,7.84-3.7q3-3.7,3-11t-3-11a9.57,9.57,0,0,0-7.84-3.7h-4.25Z"/><path class="cls-2" d="M563.06,122.11h8.88a14.78,14.78,0,0,1,1.19-3.79,20.74,20.74,0,0,1,1.58-2.93l.7-1h2.32v17.38h-2.32a17.49,17.49,0,0,1-3.47-7.72h-8.88V148H581.2a18.64,18.64,0,0,1,.5-4.32,13.78,13.78,0,0,1,1.24-3.4,20.28,20.28,0,0,1,1.5-2.32,18,18,0,0,1,1.24-1.46l.54-.47h2.31v13.9H545.68v-1.16l4.64-1.16V98.17L545.68,97V95.86H587v13.89h-2.32c-.36-.31-.82-.74-1.39-1.31a15.36,15.36,0,0,1-2.23-3.94,16.09,16.09,0,0,1-1.39-6.71h-16.6Z"/><path class="cls-2" d="M625.59,143.34,617.87,126h-5v21.61l5.41,1.16v1.16H595.48v-1.16l4.64-1.16V98.17L595.48,97V95.86h20.46q24.7,0,24.71,15a13.52,13.52,0,0,1-1,5.29A10.07,10.07,0,0,1,637,120a20.19,20.19,0,0,1-3.63,2.51,16.58,16.58,0,0,1-3.93,1.58q-2,.51-3.63.78c-1.11.18-2,.29-2.67.34h-1c.26,0,.6,0,1,0a21.85,21.85,0,0,1,2.51.43,18.07,18.07,0,0,1,3.4,1,13.18,13.18,0,0,1,3.24,2.08,9.39,9.39,0,0,1,2.55,3.36l6.95,15.44,3.86,1.16v1.16H634.86Q628.46,149.9,625.59,143.34ZM612.85,124h3.09a10.88,10.88,0,0,0,8.46-3.44q3.12-3.43,3.12-9.69t-3.12-9.69a10.87,10.87,0,0,0-8.46-3.43h-3.09Z"/><path class="cls-2" d="M681.18,149.9h-22v-1.16l4.63-1.16V97.79h-8.88a18.64,18.64,0,0,1-.5,4.32,13.8,13.8,0,0,1-1.23,3.4,20.11,20.11,0,0,1-1.51,2.31,16.79,16.79,0,0,1-1.24,1.47l-.54.46H647.6V95.86h45.16v13.89h-2.31c-.36-.31-.83-.74-1.39-1.31a15.3,15.3,0,0,1-2.24-3.94,16.09,16.09,0,0,1-1.39-6.71h-8.88v49.79l4.63,1.16Z"/></g><g class="cls-1"><path class="cls-2" d="M67,187.1h8.11v1.16l-4.63,1.16v49.41L75.11,240v1.15h-22V240l4.64-1.16V196.75L39.59,241.92H37.28L13.73,196.75v40.92L19.9,240v1.15H5.24V240l6.17-2.32V189.42l-4.63-1.16V187.1h9.65a10.84,10.84,0,0,1,6.37,1.66,13.5,13.5,0,0,1,4.05,4.9l16.83,32.2,12.9-32.2a10.8,10.8,0,0,1,3.59-5C61.64,187.61,63.91,187.1,67,187.1Z"/><path class="cls-2" d="M98.66,221.07,82.83,189.42,79,188.26V187.1h9.65a10.87,10.87,0,0,1,6.45,1.7,13.38,13.38,0,0,1,4,4.86l11.43,22.78,11.73-25.87-5.79-2.31V187.1h14.67v1.16l-6.17,2.31L111.4,220.3v18.53L116,240v1.15H94V240l4.64-1.16Z"/><path class="cls-2" d="M151.54,240.37a9.13,9.13,0,0,0,9.65-9.65,8.26,8.26,0,0,0-2.81-6,31,31,0,0,0-6.84-4.94q-4-2.2-8.07-4.71a23.33,23.33,0,0,1-6.87-6.53,15.44,15.44,0,0,1-2.82-9.11,11.8,11.8,0,0,1,4.91-9.69q4.91-3.82,14-3.82a16.63,16.63,0,0,1,6.33,1.27,18,18,0,0,1,4.56,2.51l1.46,1.24a11.12,11.12,0,0,1,1.74-2.28,10.25,10.25,0,0,1,1.82-1.5l.69-.47h1.93v14.67h-3.09c-.1-.36-.26-.85-.46-1.46a31.71,31.71,0,0,0-1.47-3.25,23,23,0,0,0-2.58-4.09,14.39,14.39,0,0,0-3.94-3.24,10.61,10.61,0,0,0-5.45-1.47,6.76,6.76,0,0,0-5.17,2.39,8.77,8.77,0,0,0-2.16,6.1A8.94,8.94,0,0,0,149,202a18.09,18.09,0,0,0,5,4.36q3,1.78,6.6,3.94t6.61,4.25a17.8,17.8,0,0,1,5.05,5.4,13.51,13.51,0,0,1,2,7.26A13.12,13.12,0,0,1,168.8,238q-5.52,4.28-15.71,4.28a21.38,21.38,0,0,1-7.42-1.27,18.8,18.8,0,0,1-5-2.51l-1.47-1.24a10,10,0,0,1-1.74,2.28,11.57,11.57,0,0,1-1.74,1.51l-.77.46H133V226.86h3.09c.1.36.26.85.46,1.47a25.14,25.14,0,0,0,1.55,3.24,20.25,20.25,0,0,0,2.82,4.09,14.94,14.94,0,0,0,4.44,3.25A13.39,13.39,0,0,0,151.54,240.37Z"/><path class="cls-2" d="M201.73,220.3h-4.25v18.53l4.63,1.16v1.15h-22V240l4.63-1.16V189.42l-4.63-1.16V187.1h21.62q12.81,0,18.37,4.21t5.56,12.39q0,8.19-5.56,12.39T201.73,220.3Zm-4.25-1.93h4.25a9.55,9.55,0,0,0,7.83-3.71q3-3.71,3-11t-3-11a9.52,9.52,0,0,0-7.83-3.71h-4.25Z"/><path class="cls-2" d="M275.23,193.35q6.79,7.41,6.79,20.77t-6.79,20.77q-6.8,7.41-18.3,7.41t-18.3-7.41q-6.8-7.41-6.79-20.77t6.79-20.77q6.8-7.41,18.3-7.41T275.23,193.35Zm-10.12,41.12q3.4-6.3,3.4-20.35t-3.4-20.34q-3.39-6.3-8.18-6.29t-8.18,6.29q-3.41,6.28-3.4,20.34t3.4,20.35q3.39,6.28,8.18,6.29T265.11,234.47Z"/><path class="cls-2" d="M321,241.14H299V240l4.63-1.16V189h-8.88a18.64,18.64,0,0,1-.5,4.32,13.63,13.63,0,0,1-1.24,3.4,19.43,19.43,0,0,1-1.5,2.32,16.34,16.34,0,0,1-1.24,1.46l-.54.47h-2.31V187.1h45.16V201h-2.31c-.36-.31-.83-.75-1.39-1.32a14.71,14.71,0,0,1-2.24-3.93,16.14,16.14,0,0,1-1.39-6.72h-8.88v49.8L321,240Z"/><path class="cls-2" d="M368.49,234.58l-7.72-17.37h-5v21.62l5.4,1.16v1.15H338.38V240l4.64-1.16V189.42l-4.64-1.16V187.1h20.46q24.71,0,24.71,15.05a13.52,13.52,0,0,1-1,5.29,10.19,10.19,0,0,1-2.67,3.79,20.71,20.71,0,0,1-3.63,2.51,17,17,0,0,1-3.93,1.58c-1.32.33-2.53.59-3.63.77s-2,.3-2.67.35h-1c.26,0,.6,0,1,0a19.14,19.14,0,0,1,2.51.42,18.84,18.84,0,0,1,3.4,1,13.24,13.24,0,0,1,3.24,2.09,9.22,9.22,0,0,1,2.55,3.36l6.95,15.44,3.86,1.16v1.15H377.76Q371.36,241.14,368.49,234.58Zm-12.73-19.3h3.08a10.84,10.84,0,0,0,8.46-3.44q3.12-3.43,3.12-9.69t-3.12-9.68a10.88,10.88,0,0,0-8.46-3.44h-3.08Z"/><path class="cls-2" d="M409.8,213.35h8.88a14.26,14.26,0,0,1,1.2-3.78,20.39,20.39,0,0,1,1.58-2.94l.69-1h2.32V223h-2.32a17.49,17.49,0,0,1-3.47-7.72H409.8v23.93h18.14a18.12,18.12,0,0,1,.51-4.32,13.41,13.41,0,0,1,1.23-3.4,18.86,18.86,0,0,1,1.51-2.31,15.39,15.39,0,0,1,1.23-1.47l.54-.46h2.32v13.89H392.43V240l4.63-1.16V189.42l-4.63-1.16V187.1h41.3V201h-2.31c-.36-.31-.83-.75-1.39-1.32a15,15,0,0,1-2.24-3.93A16.14,16.14,0,0,1,426.4,189H409.8Z"/><path class="cls-2" d="M445.7,237.67l13.13-19.38-17-28.87L438,188.26V187.1h11.2a10.38,10.38,0,0,1,6.13,1.66,15.76,15.76,0,0,1,4.29,4.9L467,206.32l10.73-15.75L472,188.26V187.1h14.67v1.16l-6.17,2.31-12.13,17.84,17.92,30.42L490.1,240v1.15H478.9a10.41,10.41,0,0,1-6.14-1.66,15.51,15.51,0,0,1-4.28-4.9l-8.34-14.13L448.4,237.67l5.79,2.32v1.15H439.53V240Z"/><path class="cls-2" d="M515.19,220.3h-4.25v18.53l4.63,1.16v1.15h-22V240l4.63-1.16V189.42l-4.63-1.16V187.1h21.62q12.81,0,18.37,4.21t5.56,12.39q0,8.19-5.56,12.39T515.19,220.3Zm-4.25-1.93h4.25a9.58,9.58,0,0,0,7.84-3.71q3-3.71,3-11t-3-11a9.55,9.55,0,0,0-7.84-3.71h-4.25Z"/><path class="cls-2" d="M563.06,213.35h8.88a14.6,14.6,0,0,1,1.19-3.78,20.39,20.39,0,0,1,1.58-2.94l.7-1h2.32V223h-2.32a17.49,17.49,0,0,1-3.47-7.72h-8.88v23.93H581.2a18.64,18.64,0,0,1,.5-4.32,13.78,13.78,0,0,1,1.24-3.4,20.1,20.1,0,0,1,1.5-2.31,16.79,16.79,0,0,1,1.24-1.47l.54-.46h2.31v13.89H545.68V240l4.64-1.16V189.42l-4.64-1.16V187.1H587V201h-2.32c-.36-.31-.82-.75-1.39-1.32a15.06,15.06,0,0,1-2.23-3.93,16.14,16.14,0,0,1-1.39-6.72h-16.6Z"/><path class="cls-2" d="M625.59,234.58l-7.72-17.37h-5v21.62l5.41,1.16v1.15H595.48V240l4.64-1.16V189.42l-4.64-1.16V187.1h20.46q24.7,0,24.71,15.05a13.52,13.52,0,0,1-1,5.29,10.19,10.19,0,0,1-2.67,3.79,20.71,20.71,0,0,1-3.63,2.51,17,17,0,0,1-3.93,1.58c-1.32.33-2.53.59-3.63.77s-2,.3-2.67.35h-1c.26,0,.6,0,1,0a19.14,19.14,0,0,1,2.51.42,18.84,18.84,0,0,1,3.4,1,13.24,13.24,0,0,1,3.24,2.09,9.22,9.22,0,0,1,2.55,3.36l6.95,15.44,3.86,1.16v1.15H634.86Q628.46,241.14,625.59,234.58Zm-12.74-19.3h3.09a10.84,10.84,0,0,0,8.46-3.44q3.12-3.43,3.12-9.69t-3.12-9.68a10.88,10.88,0,0,0-8.46-3.44h-3.09Z"/><path class="cls-2" d="M681.18,241.14h-22V240l4.63-1.16V189h-8.88a18.64,18.64,0,0,1-.5,4.32,13.65,13.65,0,0,1-1.23,3.4,19.44,19.44,0,0,1-1.51,2.32,16.34,16.34,0,0,1-1.24,1.46l-.54.47H647.6V187.1h45.16V201h-2.31c-.36-.31-.83-.75-1.39-1.32a15,15,0,0,1-2.24-3.93,16.14,16.14,0,0,1-1.39-6.72h-8.88v49.8l4.63,1.16Z"/></g><g class="cls-1"><path class="cls-2" d="M67,4.61h8.11V5.77L70.48,6.93V56.34l4.63,1.16v1.16h-22V57.5l4.64-1.16V14.26L39.59,59.43H37.28L13.73,14.26V55.18L19.9,57.5v1.16H5.24V57.5l6.17-2.32V6.93L6.78,5.77V4.61h9.65A10.84,10.84,0,0,1,22.8,6.27a13.5,13.5,0,0,1,4.05,4.9l16.83,32.2,12.9-32.2a10.76,10.76,0,0,1,3.59-5C61.64,5.13,63.91,4.61,67,4.61Z"/><path class="cls-2" d="M98.66,38.58,82.83,6.93,79,5.77V4.61h9.65a10.87,10.87,0,0,1,6.45,1.7,13.38,13.38,0,0,1,4,4.86L110.47,34,122.2,8.09l-5.79-2.32V4.61h14.67V5.77l-6.17,2.32L111.4,37.81V56.34L116,57.5v1.16H94V57.5l4.64-1.16Z"/><path class="cls-2" d="M151.54,57.88a9.13,9.13,0,0,0,9.65-9.65,8.26,8.26,0,0,0-2.81-6,31.31,31.31,0,0,0-6.84-4.94q-4-2.2-8.07-4.71a23.33,23.33,0,0,1-6.87-6.53A15.44,15.44,0,0,1,133.78,17a11.8,11.8,0,0,1,4.91-9.69q4.91-3.81,14-3.82A16.46,16.46,0,0,1,159,4.73a17.7,17.7,0,0,1,4.56,2.51l1.46,1.23a11.12,11.12,0,0,1,1.74-2.28,10.25,10.25,0,0,1,1.82-1.5l.69-.46h1.93V18.89h-3.09c-.1-.35-.26-.84-.46-1.46a31.71,31.71,0,0,0-1.47-3.25,23,23,0,0,0-2.58-4.09,14.39,14.39,0,0,0-3.94-3.24,10.61,10.61,0,0,0-5.45-1.47,6.73,6.73,0,0,0-5.17,2.4,8.75,8.75,0,0,0-2.16,6.1A8.89,8.89,0,0,0,149,19.55a17.93,17.93,0,0,0,5,4.36q3,1.79,6.6,3.94t6.61,4.25a17.92,17.92,0,0,1,5.05,5.4,13.54,13.54,0,0,1,2,7.26,13.12,13.12,0,0,1-5.52,10.77q-5.52,4.29-15.71,4.28a21.38,21.38,0,0,1-7.42-1.27,18.5,18.5,0,0,1-5-2.51l-1.47-1.23a10.16,10.16,0,0,1-1.74,2.27,11.57,11.57,0,0,1-1.74,1.51l-.77.46H133V44.37h3.09c.1.36.26.85.46,1.47a25.14,25.14,0,0,0,1.55,3.24,20.61,20.61,0,0,0,2.82,4.1,15.1,15.1,0,0,0,4.44,3.24A13.26,13.26,0,0,0,151.54,57.88Z"/><path class="cls-2" d="M201.73,37.81h-4.25V56.34l4.63,1.16v1.16h-22V57.5l4.63-1.16V6.93l-4.63-1.16V4.61h21.62q12.81,0,18.37,4.21c3.71,2.8,5.56,6.94,5.56,12.39s-1.85,9.59-5.56,12.39S210.27,37.81,201.73,37.81Zm-4.25-1.93h4.25a9.52,9.52,0,0,0,7.83-3.71q3-3.71,3-11t-3-11a9.55,9.55,0,0,0-7.83-3.71h-4.25Z"/><path class="cls-2" d="M275.23,10.86Q282,18.29,282,31.63T275.23,52.4q-6.8,7.41-18.3,7.41t-18.3-7.41q-6.8-7.41-6.79-20.77t6.79-20.77q6.8-7.41,18.3-7.41T275.23,10.86ZM265.11,52q3.4-6.3,3.4-20.35t-3.4-20.34Q261.72,5,256.93,5t-8.18,6.29q-3.41,6.3-3.4,20.34T248.75,52q3.39,6.29,8.18,6.29T265.11,52Z"/><path class="cls-2" d="M321,58.66H299V57.5l4.63-1.16V6.54h-8.88a18.58,18.58,0,0,1-.5,4.32,13.63,13.63,0,0,1-1.24,3.4,19.43,19.43,0,0,1-1.5,2.32,16.79,16.79,0,0,1-1.24,1.47l-.54.46h-2.31V4.61h45.16v13.9h-2.31c-.36-.31-.83-.75-1.39-1.31a15,15,0,0,1-2.24-3.94,16.14,16.14,0,0,1-1.39-6.72h-8.88v49.8L321,57.5Z"/><path class="cls-2" d="M368.49,52.09l-7.72-17.37h-5V56.34l5.4,1.16v1.16H338.38V57.5L343,56.34V6.93l-4.64-1.16V4.61h20.46q24.71,0,24.71,15.06a13.55,13.55,0,0,1-1,5.29,10.07,10.07,0,0,1-2.67,3.78,20.71,20.71,0,0,1-3.63,2.51,16.58,16.58,0,0,1-3.93,1.58c-1.32.34-2.53.59-3.63.77s-2,.3-2.67.35h-1c.26,0,.6,0,1,0a23.51,23.51,0,0,1,2.51.42,18.07,18.07,0,0,1,3.4,1.05,12.89,12.89,0,0,1,3.24,2.08,9.22,9.22,0,0,1,2.55,3.36l6.95,15.44,3.86,1.16v1.16H377.76Q371.36,58.66,368.49,52.09Zm-12.73-19.3h3.08a10.87,10.87,0,0,0,8.46-3.43q3.12-3.43,3.12-9.69T367.3,10a10.88,10.88,0,0,0-8.46-3.44h-3.08Z"/><path class="cls-2" d="M409.8,30.86h8.88a14.49,14.49,0,0,1,1.2-3.78,20.39,20.39,0,0,1,1.58-2.94l.69-1h2.32V40.51h-2.32a17.44,17.44,0,0,1-3.47-7.72H409.8V56.73h18.14a18.14,18.14,0,0,1,.51-4.33A13.18,13.18,0,0,1,429.68,49a18.28,18.28,0,0,1,1.51-2.32,15.39,15.39,0,0,1,1.23-1.47l.54-.46h2.32v13.9H392.43V57.5l4.63-1.16V6.93l-4.63-1.16V4.61h41.3v13.9h-2.31c-.36-.31-.83-.75-1.39-1.31a15.3,15.3,0,0,1-2.24-3.94,16.14,16.14,0,0,1-1.39-6.72H409.8Z"/><path class="cls-2" d="M445.7,55.18,458.83,35.8l-17-28.87L438,5.77V4.61h11.2a10.38,10.38,0,0,1,6.13,1.66,15.76,15.76,0,0,1,4.29,4.9L467,23.84,477.74,8.09,472,5.77V4.61h14.67V5.77l-6.17,2.32L468.32,25.92l17.92,30.42,3.86,1.16v1.16H478.9A10.49,10.49,0,0,1,472.76,57a15.55,15.55,0,0,1-4.28-4.91L460.14,38,448.4,55.18l5.79,2.32v1.16H439.53V57.5Z"/><path class="cls-2" d="M515.19,37.81h-4.25V56.34l4.63,1.16v1.16h-22V57.5l4.63-1.16V6.93l-4.63-1.16V4.61h21.62q12.81,0,18.37,4.21c3.71,2.8,5.56,6.94,5.56,12.39s-1.85,9.59-5.56,12.39S523.73,37.81,515.19,37.81Zm-4.25-1.93h4.25A9.55,9.55,0,0,0,523,32.17q3-3.71,3-11t-3-11a9.58,9.58,0,0,0-7.84-3.71h-4.25Z"/><path class="cls-2" d="M563.06,30.86h8.88a14.84,14.84,0,0,1,1.19-3.78,20.39,20.39,0,0,1,1.58-2.94l.7-1h2.32V40.51h-2.32a17.44,17.44,0,0,1-3.47-7.72h-8.88V56.73H581.2a18.66,18.66,0,0,1,.5-4.33A13.54,13.54,0,0,1,582.94,49a19.43,19.43,0,0,1,1.5-2.32,16.79,16.79,0,0,1,1.24-1.47l.54-.46h2.31v13.9H545.68V57.5l4.64-1.16V6.93l-4.64-1.16V4.61H587v13.9h-2.32c-.36-.31-.82-.75-1.39-1.31a15.36,15.36,0,0,1-2.23-3.94,16.14,16.14,0,0,1-1.39-6.72h-16.6Z"/><path class="cls-2" d="M625.59,52.09l-7.72-17.37h-5V56.34l5.41,1.16v1.16H595.48V57.5l4.64-1.16V6.93l-4.64-1.16V4.61h20.46q24.7,0,24.71,15.06a13.55,13.55,0,0,1-1,5.29A10.07,10.07,0,0,1,637,28.74a20.71,20.71,0,0,1-3.63,2.51,16.58,16.58,0,0,1-3.93,1.58c-1.32.34-2.53.59-3.63.77s-2,.3-2.67.35h-1c.26,0,.6,0,1,0a23.51,23.51,0,0,1,2.51.42,18.07,18.07,0,0,1,3.4,1.05,12.89,12.89,0,0,1,3.24,2.08,9.22,9.22,0,0,1,2.55,3.36l6.95,15.44,3.86,1.16v1.16H634.86Q628.46,58.66,625.59,52.09Zm-12.74-19.3h3.09a10.87,10.87,0,0,0,8.46-3.43q3.12-3.43,3.12-9.69T624.4,10a10.88,10.88,0,0,0-8.46-3.44h-3.09Z"/><path class="cls-2" d="M681.18,58.66h-22V57.5l4.63-1.16V6.54h-8.88a18.58,18.58,0,0,1-.5,4.32,13.65,13.65,0,0,1-1.23,3.4,19.44,19.44,0,0,1-1.51,2.32,16.79,16.79,0,0,1-1.24,1.47l-.54.46H647.6V4.61h45.16v13.9h-2.31c-.36-.31-.83-.75-1.39-1.31a15.3,15.3,0,0,1-2.24-3.94,16.14,16.14,0,0,1-1.39-6.72h-8.88v49.8l4.63,1.16Z"/></g><g class="cls-1"><path class="cls-2" d="M67,278.34h8.11v1.16l-4.63,1.16v49.41l4.63,1.16v1.16h-22v-1.16l4.64-1.16V288L39.59,333.16H37.28L13.73,288v40.92l6.17,2.32v1.16H5.24v-1.16l6.17-2.32V280.66L6.78,279.5v-1.16h9.65A10.91,10.91,0,0,1,22.8,280a13.46,13.46,0,0,1,4.05,4.91L43.68,317.1l12.9-32.19a10.74,10.74,0,0,1,3.59-5C61.64,278.86,63.91,278.34,67,278.34Z"/><path class="cls-2" d="M98.66,312.31,82.83,280.66,79,279.5v-1.16h9.65a10.87,10.87,0,0,1,6.45,1.7,13.42,13.42,0,0,1,4,4.87l11.43,22.77,11.73-25.86-5.79-2.32v-1.16h14.67v1.16l-6.17,2.32L111.4,311.54v18.53l4.63,1.16v1.16H94v-1.16l4.64-1.16Z"/><path class="cls-2" d="M151.54,331.62a9.15,9.15,0,0,0,9.65-9.65,8.26,8.26,0,0,0-2.81-6,31.64,31.64,0,0,0-6.84-4.94q-4-2.21-8.07-4.71a23.42,23.42,0,0,1-6.87-6.52,15.49,15.49,0,0,1-2.82-9.11,11.78,11.78,0,0,1,4.91-9.69q4.91-3.83,14-3.82a16.45,16.45,0,0,1,6.33,1.27,18,18,0,0,1,4.56,2.51l1.46,1.23a10.8,10.8,0,0,1,1.74-2.27,10,10,0,0,1,1.82-1.51l.69-.46h1.93v14.67h-3.09c-.1-.36-.26-.85-.46-1.47a30.87,30.87,0,0,0-1.47-3.24,22.77,22.77,0,0,0-2.58-4.1,14.39,14.39,0,0,0-3.94-3.24,10.7,10.7,0,0,0-5.45-1.46,6.72,6.72,0,0,0-5.17,2.39,8.75,8.75,0,0,0-2.16,6.1,8.89,8.89,0,0,0,2.05,5.67,18.12,18.12,0,0,0,5,4.37q3,1.77,6.6,3.93t6.61,4.25a17.92,17.92,0,0,1,5.05,5.4,13.56,13.56,0,0,1,2,7.26,13.1,13.1,0,0,1-5.52,10.77q-5.52,4.29-15.71,4.29a21.39,21.39,0,0,1-7.42-1.28,18.5,18.5,0,0,1-5-2.51l-1.47-1.23a10.45,10.45,0,0,1-1.74,2.28,12,12,0,0,1-1.74,1.5l-.77.46H133V318.11h3.09c.1.36.26.84.46,1.46a25.73,25.73,0,0,0,1.55,3.25,20.82,20.82,0,0,0,2.82,4.09,15.1,15.1,0,0,0,4.44,3.24A13.27,13.27,0,0,0,151.54,331.62Z"/><path class="cls-2" d="M201.73,311.54h-4.25v18.53l4.63,1.16v1.16h-22v-1.16l4.63-1.16V280.66l-4.63-1.16v-1.16h21.62q12.81,0,18.37,4.21t5.56,12.39q0,8.19-5.56,12.39T201.73,311.54Zm-4.25-1.93h4.25a9.54,9.54,0,0,0,7.83-3.7q3-3.71,3-11t-3-11a9.55,9.55,0,0,0-7.83-3.71h-4.25Z"/><path class="cls-2" d="M275.23,284.6Q282,292,282,305.37t-6.79,20.76q-6.8,7.42-18.3,7.42t-18.3-7.42q-6.8-7.41-6.79-20.76t6.79-20.77q6.8-7.41,18.3-7.41T275.23,284.6Zm-10.12,41.11q3.4-6.29,3.4-20.34T265.11,285q-3.39-6.28-8.18-6.29T248.75,285q-3.41,6.3-3.4,20.35t3.4,20.34q3.39,6.3,8.18,6.29T265.11,325.71Z"/><path class="cls-2" d="M321,332.39H299v-1.16l4.63-1.16v-49.8h-8.88a18.66,18.66,0,0,1-.5,4.33A13.54,13.54,0,0,1,293,288a19.43,19.43,0,0,1-1.5,2.32,16.79,16.79,0,0,1-1.24,1.47l-.54.46h-2.31v-13.9h45.16v13.9h-2.31c-.36-.31-.83-.75-1.39-1.31a15,15,0,0,1-2.24-3.94,16.14,16.14,0,0,1-1.39-6.72h-8.88v49.8l4.63,1.16Z"/><path class="cls-2" d="M368.49,325.83l-7.72-17.38h-5v21.62l5.4,1.16v1.16H338.38v-1.16l4.64-1.16V280.66l-4.64-1.16v-1.16h20.46q24.71,0,24.71,15.06a13.52,13.52,0,0,1-1,5.29,10.07,10.07,0,0,1-2.67,3.78,20.71,20.71,0,0,1-3.63,2.51,16.58,16.58,0,0,1-3.93,1.58c-1.32.34-2.53.6-3.63.77s-2,.3-2.67.35h-1l1,0a21.85,21.85,0,0,1,2.51.43,17.36,17.36,0,0,1,3.4,1,13.18,13.18,0,0,1,3.24,2.08,9.31,9.31,0,0,1,2.55,3.36l6.95,15.44,3.86,1.16v1.16H377.76Q371.36,332.39,368.49,325.83Zm-12.73-19.31h3.08a10.87,10.87,0,0,0,8.46-3.43q3.12-3.43,3.12-9.69t-3.12-9.69a10.88,10.88,0,0,0-8.46-3.44h-3.08Z"/><path class="cls-2" d="M409.8,304.59h8.88a14.49,14.49,0,0,1,1.2-3.78,20.19,20.19,0,0,1,1.58-2.93l.69-1h2.32v17.37h-2.32a17.39,17.39,0,0,1-3.47-7.72H409.8v23.94h18.14a18.2,18.2,0,0,1,.51-4.33,13.32,13.32,0,0,1,1.23-3.39,18.28,18.28,0,0,1,1.51-2.32,15.39,15.39,0,0,1,1.23-1.47l.54-.46h2.32v13.9H392.43v-1.16l4.63-1.16V280.66l-4.63-1.16v-1.16h41.3v13.9h-2.31c-.36-.31-.83-.75-1.39-1.31a15.3,15.3,0,0,1-2.24-3.94,16.14,16.14,0,0,1-1.39-6.72H409.8Z"/><path class="cls-2" d="M445.7,328.91l13.13-19.37-17-28.88L438,279.5v-1.16h11.2a10.45,10.45,0,0,1,6.13,1.66,15.7,15.7,0,0,1,4.29,4.91L467,297.57l10.73-15.75L472,279.5v-1.16h14.67v1.16l-6.17,2.32-12.13,17.83,17.92,30.42,3.86,1.16v1.16H478.9a10.41,10.41,0,0,1-6.14-1.66,15.62,15.62,0,0,1-4.28-4.9l-8.34-14.13L448.4,328.91l5.79,2.32v1.16H439.53v-1.16Z"/><path class="cls-2" d="M515.19,311.54h-4.25v18.53l4.63,1.16v1.16h-22v-1.16l4.63-1.16V280.66l-4.63-1.16v-1.16h21.62q12.81,0,18.37,4.21t5.56,12.39q0,8.19-5.56,12.39T515.19,311.54Zm-4.25-1.93h4.25a9.57,9.57,0,0,0,7.84-3.7q3-3.71,3-11t-3-11a9.58,9.58,0,0,0-7.84-3.71h-4.25Z"/><path class="cls-2" d="M563.06,304.59h8.88a14.84,14.84,0,0,1,1.19-3.78,20.19,20.19,0,0,1,1.58-2.93l.7-1h2.32v17.37h-2.32a17.39,17.39,0,0,1-3.47-7.72h-8.88v23.94H581.2a18.73,18.73,0,0,1,.5-4.33,13.69,13.69,0,0,1,1.24-3.39,19.43,19.43,0,0,1,1.5-2.32,16.79,16.79,0,0,1,1.24-1.47l.54-.46h2.31v13.9H545.68v-1.16l4.64-1.16V280.66l-4.64-1.16v-1.16H587v13.9h-2.32c-.36-.31-.82-.75-1.39-1.31a15.36,15.36,0,0,1-2.23-3.94,16.14,16.14,0,0,1-1.39-6.72h-16.6Z"/><path class="cls-2" d="M625.59,325.83l-7.72-17.38h-5v21.62l5.41,1.16v1.16H595.48v-1.16l4.64-1.16V280.66l-4.64-1.16v-1.16h20.46q24.7,0,24.71,15.06a13.52,13.52,0,0,1-1,5.29,10.07,10.07,0,0,1-2.67,3.78,20.71,20.71,0,0,1-3.63,2.51,16.58,16.58,0,0,1-3.93,1.58c-1.32.34-2.53.6-3.63.77s-2,.3-2.67.35h-1l1,0a21.85,21.85,0,0,1,2.51.43,17.36,17.36,0,0,1,3.4,1,13.18,13.18,0,0,1,3.24,2.08,9.31,9.31,0,0,1,2.55,3.36l6.95,15.44,3.86,1.16v1.16H634.86Q628.46,332.39,625.59,325.83Zm-12.74-19.31h3.09a10.87,10.87,0,0,0,8.46-3.43q3.12-3.43,3.12-9.69t-3.12-9.69a10.88,10.88,0,0,0-8.46-3.44h-3.09Z"/><path class="cls-2" d="M681.18,332.39h-22v-1.16l4.63-1.16v-49.8h-8.88a18.66,18.66,0,0,1-.5,4.33A13.56,13.56,0,0,1,653.2,288a19.44,19.44,0,0,1-1.51,2.32,16.79,16.79,0,0,1-1.24,1.47l-.54.46H647.6v-13.9h45.16v13.9h-2.31c-.36-.31-.83-.75-1.39-1.31a15.3,15.3,0,0,1-2.24-3.94,16.14,16.14,0,0,1-1.39-6.72h-8.88v49.8l4.63,1.16Z"/></g></svg>