<svg id="Слой_1" data-name="Слой 1" xmlns="http://www.w3.org/2000/svg" viewBox="0 0 559 58"><defs><style>.cls-1{opacity:0.03;}.cls-2{fill:#fff;}</style></defs><g class="cls-1"><path class="cls-2" d="M59.13,8h6.33v.9l-3.62.91V48.41l3.62.91v.9H48.26v-.9l3.62-.91V15.52L37.7,50.83H35.89L17.48,15.52v32l4.83,1.81v.9H10.84v-.9l4.83-1.81V9.79l-3.62-.91V8h7.54a8.55,8.55,0,0,1,5,1.29,10.55,10.55,0,0,1,3.17,3.84L40.9,38.27,51,13.11a8.52,8.52,0,0,1,2.8-3.93A9.47,9.47,0,0,1,59.13,8Z"/><path class="cls-2" d="M83.87,34.53,71.5,9.79l-3-.91V8H76a8.5,8.5,0,0,1,5,1.32,10.42,10.42,0,0,1,3.11,3.81l8.93,17.8,9.18-20.22L97.75,8.88V8h11.47v.9l-4.83,1.81L93.83,33.93V48.41l3.62.91v.9H80.25v-.9l3.62-.91Z"/><path class="cls-2" d="M125.21,49.62a7.16,7.16,0,0,0,7.55-7.54,6.45,6.45,0,0,0-2.21-4.68,24.27,24.27,0,0,0-5.34-3.86q-3.13-1.72-6.31-3.69a18.1,18.1,0,0,1-5.37-5.1,12.06,12.06,0,0,1-2.2-7.12,9.23,9.23,0,0,1,3.83-7.57q3.84-3,11-3a12.76,12.76,0,0,1,4.95,1,13.88,13.88,0,0,1,3.56,2l1.14,1a8.85,8.85,0,0,1,1.36-1.78A7.83,7.83,0,0,1,138.55,8l.54-.37h1.51V19.14h-2.41c-.08-.28-.2-.66-.36-1.15a27.33,27.33,0,0,0-1.15-2.53,17.85,17.85,0,0,0-2-3.2,11.1,11.1,0,0,0-3.08-2.53,8.26,8.26,0,0,0-4.26-1.15,5.25,5.25,0,0,0-4,1.87,6.84,6.84,0,0,0-1.69,4.77,6.94,6.94,0,0,0,1.6,4.43,14,14,0,0,0,4,3.41l5.16,3.08q2.8,1.7,5.16,3.32a14.09,14.09,0,0,1,4,4.23,10.66,10.66,0,0,1,1.6,5.67,10.24,10.24,0,0,1-4.32,8.42q-4.32,3.34-12.28,3.35a16.6,16.6,0,0,1-5.8-1,14.35,14.35,0,0,1-3.92-2l-1.15-1A8.45,8.45,0,0,1,114.2,49a10.18,10.18,0,0,1-1.36,1.17l-.6.37h-1.51V39.06h2.41q.12.42.36,1.14a20.25,20.25,0,0,0,1.21,2.54,16.42,16.42,0,0,0,2.2,3.2,11.89,11.89,0,0,0,3.47,2.53A10.36,10.36,0,0,0,125.21,49.62Z"/><path class="cls-2" d="M164.44,33.93h-3.32V48.41l3.62.91v.9h-17.2v-.9l3.62-.91V9.79l-3.62-.91V8h16.9q10,0,14.36,3.29T183.15,21q0,6.4-4.35,9.69T164.44,33.93Zm-3.32-1.51h3.32a7.48,7.48,0,0,0,6.13-2.9c1.54-1.93,2.32-4.79,2.32-8.57s-.78-6.64-2.32-8.57a7.48,7.48,0,0,0-6.13-2.9h-3.32Z"/><path class="cls-2" d="M221.9,12.86q5.31,5.81,5.31,16.24T221.9,45.33q-5.31,5.81-14.31,5.8t-14.3-5.8Q188,39.54,188,29.1t5.31-16.24q5.31-5.79,14.3-5.79T221.9,12.86ZM214,45q2.65-4.92,2.66-15.9T214,13.2q-2.66-4.92-6.4-4.92T201.2,13.2q-2.67,4.92-2.66,15.9T201.2,45q2.66,4.92,6.39,4.92T214,45Z"/><path class="cls-2" d="M257.69,50.22h-17.2v-.9l3.62-.91V9.48h-6.94a14.41,14.41,0,0,1-.4,3.38,10.54,10.54,0,0,1-1,2.66,14.94,14.94,0,0,1-1.18,1.81,12.89,12.89,0,0,1-1,1.15l-.43.36h-1.81V8h35.31V18.84h-1.81c-.28-.24-.65-.58-1.09-1a12,12,0,0,1-1.75-3.07A12.73,12.73,0,0,1,261,9.48h-6.95V48.41l3.63.91Z"/><path class="cls-2" d="M294.8,45.09l-6-13.58h-3.92v16.9l4.22.91v.9h-17.8v-.9l3.62-.91V9.79l-3.62-.91V8h16q19.31,0,19.31,11.76a10.54,10.54,0,0,1-.78,4.14,8,8,0,0,1-2.08,3,17.24,17.24,0,0,1-2.84,2A13.7,13.7,0,0,1,297.79,30c-1,.26-2,.46-2.84.6s-1.56.23-2.08.27h-.78l.81,0a16.64,16.64,0,0,1,2,.33,14.3,14.3,0,0,1,2.66.82,10,10,0,0,1,2.53,1.63,7.23,7.23,0,0,1,2,2.62l5.43,12.07,3,.91v.9h-8.45Q297,50.22,294.8,45.09ZM284.85,30h2.41a8.5,8.5,0,0,0,6.61-2.69q2.44-2.68,2.44-7.58c0-3.25-.81-5.78-2.44-7.57a8.5,8.5,0,0,0-6.61-2.69h-2.41Z"/><path class="cls-2" d="M327.09,28.5H334a11.78,11.78,0,0,1,.94-3,14.42,14.42,0,0,1,1.24-2.29l.54-.79h1.81V36h-1.81A13.76,13.76,0,0,1,334,30h-6.94v18.7h14.19a14.54,14.54,0,0,1,.39-3.38,10.59,10.59,0,0,1,1-2.65,16.24,16.24,0,0,1,1.18-1.81,12.64,12.64,0,0,1,1-1.15l.42-.36H347V50.22h-33.5v-.9l3.62-.91V9.79l-3.62-.91V8H345.8V18.84H344c-.28-.24-.64-.58-1.08-1a11.42,11.42,0,0,1-1.75-3.07,12.57,12.57,0,0,1-1.09-5.26h-13Z"/><path class="cls-2" d="M355.16,47.51l10.26-15.15L352.14,9.79l-3-.91V8h8.75a8.2,8.2,0,0,1,4.8,1.29A12.35,12.35,0,0,1,366,13.11L371.81,23l8.39-12.31-4.52-1.81V8h11.46v.9l-4.82,1.81-9.48,13.94,14,23.78,3,.91v.9h-8.75a8.2,8.2,0,0,1-4.8-1.29A12.35,12.35,0,0,1,373,45.09l-6.52-11-9.17,13.46,4.53,1.81v.9H350.33v-.9Z"/><path class="cls-2" d="M409.47,33.93h-3.31V48.41l3.62.91v.9h-17.2v-.9l3.62-.91V9.79l-3.62-.91V8h16.89q10,0,14.37,3.29T428.18,21q0,6.4-4.34,9.69T409.47,33.93Zm-3.31-1.51h3.31a7.48,7.48,0,0,0,6.13-2.9q2.32-2.89,2.32-8.57t-2.32-8.57a7.48,7.48,0,0,0-6.13-2.9h-3.31Z"/><path class="cls-2" d="M446.89,28.5h6.94a11.78,11.78,0,0,1,.94-3A15.28,15.28,0,0,1,456,23.25l.54-.79h1.81V36h-1.81a13.76,13.76,0,0,1-2.72-6h-6.94v18.7h14.19a14.54,14.54,0,0,1,.39-3.38,10.59,10.59,0,0,1,1-2.65,16.24,16.24,0,0,1,1.18-1.81,12.64,12.64,0,0,1,1-1.15l.42-.36h1.81V50.22h-33.5v-.9l3.62-.91V9.79l-3.62-.91V8H465.6V18.84h-1.81c-.28-.24-.64-.58-1.08-1A11.42,11.42,0,0,1,461,14.74a12.57,12.57,0,0,1-1.09-5.26h-13Z"/><path class="cls-2" d="M495.78,45.09l-6-13.58h-3.92v16.9l4.23.91v.9H472.24v-.9l3.62-.91V9.79l-3.62-.91V8h16q19.31,0,19.31,11.76a10.36,10.36,0,0,1-.79,4.14,7.85,7.85,0,0,1-2.08,3,17.15,17.15,0,0,1-2.83,2A13.89,13.89,0,0,1,498.77,30c-1,.26-2,.46-2.84.6s-1.56.23-2.08.27h-.79l.82,0a17,17,0,0,1,2,.33,14.3,14.3,0,0,1,2.66.82A10,10,0,0,1,501,33.72a7.09,7.09,0,0,1,2,2.62l5.43,12.07,3,.91v.9H503Q498,50.22,495.78,45.09ZM485.82,30h2.42a8.49,8.49,0,0,0,6.6-2.69q2.45-2.68,2.45-7.58c0-3.25-.82-5.78-2.45-7.57a8.49,8.49,0,0,0-6.6-2.69h-2.42Z"/><path class="cls-2" d="M539.23,50.22H522v-.9l3.62-.91V9.48h-6.94a14.41,14.41,0,0,1-.39,3.38,10.54,10.54,0,0,1-1,2.66,16.24,16.24,0,0,1-1.18,1.81,12.64,12.64,0,0,1-1,1.15l-.42.36H513V8h35.31V18.84h-1.81a14.88,14.88,0,0,1-1.09-1,11.71,11.71,0,0,1-1.75-3.07,12.73,12.73,0,0,1-1.09-5.26h-6.94V48.41l3.62.91Z"/></g></svg>