<svg xmlns="http://www.w3.org/2000/svg" viewBox="0 0 537.45 217.83"><defs><style>.cls-1{opacity:0.1;}.cls-2{fill:#fff;}.cls-3{opacity:0.03;}</style></defs><g id="Layer_2" data-name="Layer 2"><g id="Layer_1-2" data-name="Layer 1"><g class="cls-1"><path class="cls-2" d="M48.28,58.83h6.34v.9L51,60.64V99.27l3.62.9v.91H37.42v-.91l3.62-.9V66.37L26.86,101.68H25.05L6.64,66.37v32l4.83,1.81v.91H0v-.91l4.83-1.81V60.64l-3.62-.91v-.9H8.75a8.47,8.47,0,0,1,5,1.3A10.52,10.52,0,0,1,16.9,64L30.06,89.13,40.14,64A8.37,8.37,0,0,1,42.94,60,9.37,9.37,0,0,1,48.28,58.83Z"/><path class="cls-2" d="M73,85.38,60.65,60.64l-3-.91v-.9h7.54a8.44,8.44,0,0,1,5,1.33A10.4,10.4,0,0,1,73.33,64l8.93,17.8,9.18-20.22-4.53-1.81v-.9H98.38v.9l-4.83,1.81L83,84.78V99.27l3.62.9v.91H69.41v-.91l3.62-.9Z"/><path class="cls-2" d="M114.37,100.47a7.14,7.14,0,0,0,7.54-7.54,6.44,6.44,0,0,0-2.2-4.68,24.27,24.27,0,0,0-5.34-3.86c-2.09-1.15-4.2-2.38-6.31-3.68a18.36,18.36,0,0,1-5.37-5.1,12.12,12.12,0,0,1-2.2-7.13,9.2,9.2,0,0,1,3.83-7.57q3.84-3,11-3a12.76,12.76,0,0,1,5,1,13.83,13.83,0,0,1,3.56,2l1.15,1a8,8,0,0,1,1.36-1.78,7.24,7.24,0,0,1,1.42-1.18l.54-.36h1.51V70h-2.41c-.09-.28-.21-.66-.37-1.14a23,23,0,0,0-1.14-2.54,17.88,17.88,0,0,0-2-3.2,11,11,0,0,0-3.07-2.53,8.26,8.26,0,0,0-4.26-1.15,5.27,5.27,0,0,0-4,1.87,6.84,6.84,0,0,0-1.69,4.77,7,7,0,0,0,1.6,4.44,14.06,14.06,0,0,0,4,3.41c1.57.92,3.29,2,5.16,3.07s3.59,2.24,5.16,3.32a13.94,13.94,0,0,1,3.95,4.23,10.57,10.57,0,0,1,1.6,5.67,10.26,10.26,0,0,1-4.31,8.42Q123.54,102,115.58,102a16.79,16.79,0,0,1-5.8-1,14.45,14.45,0,0,1-3.92-2l-1.15-1a7.94,7.94,0,0,1-1.36,1.78A10.55,10.55,0,0,1,102,101l-.61.36H99.88V89.91h2.42c.08.28.2.66.36,1.15a19.54,19.54,0,0,0,1.21,2.53,16.13,16.13,0,0,0,2.2,3.2,11.77,11.77,0,0,0,3.47,2.54A10.48,10.48,0,0,0,114.37,100.47Z"/><path class="cls-2" d="M153.6,84.78h-3.32V99.27l3.62.9v.91H136.7v-.91l3.62-.9V60.64l-3.62-.91v-.9h16.9q10,0,14.36,3.29t4.35,9.68q0,6.4-4.35,9.69T153.6,84.78Zm-3.32-1.51h3.32a7.43,7.43,0,0,0,6.12-2.9c1.55-1.93,2.33-4.78,2.33-8.57s-.78-6.63-2.33-8.57a7.45,7.45,0,0,0-6.12-2.89h-3.32Z"/><path class="cls-2" d="M211.05,63.72q5.32,5.79,5.32,16.23t-5.32,16.24q-5.31,5.79-14.3,5.79t-14.3-5.79q-5.31-5.81-5.31-16.24t5.31-16.23q5.31-5.8,14.3-5.8T211.05,63.72Zm-7.9,32.14Q205.8,90.94,205.8,80t-2.65-15.9q-2.66-4.92-6.4-4.92c-2.49,0-4.63,1.64-6.4,4.92S187.7,72.63,187.7,80s.88,12.63,2.65,15.91,3.91,4.91,6.4,4.91S201.38,99.14,203.15,95.86Z"/><path class="cls-2" d="M246.84,101.08h-17.2v-.91l3.62-.9V60.34h-6.94a14.54,14.54,0,0,1-.39,3.38,10.59,10.59,0,0,1-1,2.65,15.36,15.36,0,0,1-1.18,1.81,11.37,11.37,0,0,1-1,1.15l-.42.36h-1.81V58.83H255.9V69.69h-1.81c-.29-.24-.65-.58-1.09-1a12,12,0,0,1-1.75-3.08,12.72,12.72,0,0,1-1.09-5.25h-6.94V99.27l3.62.9Z"/><path class="cls-2" d="M284,96l-6-13.58H274v16.9l4.23.9v.91H260.42v-.91l3.62-.9V60.64l-3.62-.91v-.9h16q19.31,0,19.31,11.77a10.49,10.49,0,0,1-.78,4.13,8,8,0,0,1-2.09,3,16.57,16.57,0,0,1-2.83,2A13.25,13.25,0,0,1,287,80.89c-1,.26-2,.46-2.84.6s-1.56.23-2.08.27h-.78l.81,0a16.64,16.64,0,0,1,2,.33,15.09,15.09,0,0,1,2.66.82,10.31,10.31,0,0,1,2.53,1.63,7.09,7.09,0,0,1,2,2.62l5.44,12.08,3,.9v.91H291.2Q286.19,101.08,284,96ZM274,80.86h2.42A8.51,8.51,0,0,0,283,78.17q2.45-2.69,2.44-7.57T283,63a8.5,8.5,0,0,0-6.61-2.68H274Z"/><path class="cls-2" d="M316.25,79.35h6.94a11.39,11.39,0,0,1,.94-3,15.93,15.93,0,0,1,1.23-2.29l.55-.79h1.81V86.89h-1.81a13.64,13.64,0,0,1-2.72-6h-6.94V99.57h14.18a13.91,13.91,0,0,1,.4-3.38,10.68,10.68,0,0,1,1-2.66A14.94,14.94,0,0,1,333,91.72a14.55,14.55,0,0,1,1-1.15l.43-.36h1.81v10.87h-33.5v-.91l3.62-.9V60.64l-3.62-.91v-.9H335V69.69h-1.81c-.28-.24-.64-.58-1.09-1a12.33,12.33,0,0,1-1.75-3.08,12.71,12.71,0,0,1-1.08-5.25h-13Z"/><path class="cls-2" d="M344.32,98.36l10.26-15.15L341.3,60.64l-3-.91v-.9H347a8.13,8.13,0,0,1,4.8,1.3A12.2,12.2,0,0,1,355.18,64l5.79,9.9,8.39-12.32-4.53-1.81v-.9H376.3v.9l-4.83,1.81L362,75.49l14,23.78,3,.9v.91h-8.75a8.2,8.2,0,0,1-4.8-1.3A12.18,12.18,0,0,1,362.12,96l-6.52-11-9.17,13.46,4.52,1.81v.91H339.49v-.91Z"/><path class="cls-2" d="M398.63,84.78h-3.32V99.27l3.62.9v.91h-17.2v-.91l3.62-.9V60.64l-3.62-.91v-.9h16.9q10,0,14.37,3.29t4.34,9.68q0,6.4-4.34,9.69T398.63,84.78Zm-3.32-1.51h3.32a7.45,7.45,0,0,0,6.13-2.9c1.55-1.93,2.32-4.78,2.32-8.57s-.77-6.63-2.32-8.57a7.47,7.47,0,0,0-6.13-2.89h-3.32Z"/><path class="cls-2" d="M436.05,79.35H443a11.39,11.39,0,0,1,.94-3,15.93,15.93,0,0,1,1.23-2.29l.55-.79h1.81V86.89h-1.81a13.64,13.64,0,0,1-2.72-6h-6.94V99.57h14.18a14.41,14.41,0,0,1,.4-3.38,10.68,10.68,0,0,1,1-2.66,14.94,14.94,0,0,1,1.18-1.81,12.42,12.42,0,0,1,1-1.15l.42-.36H456v10.87h-33.5v-.91l3.62-.9V60.64l-3.62-.91v-.9h32.29V69.69H453c-.28-.24-.64-.58-1.09-1a12.33,12.33,0,0,1-1.75-3.08A12.71,12.71,0,0,1,449,60.34h-13Z"/><path class="cls-2" d="M484.94,96l-6-13.58H475v16.9l4.22.9v.91H461.4v-.91l3.62-.9V60.64l-3.62-.91v-.9h16q19.32,0,19.32,11.77a10.49,10.49,0,0,1-.79,4.13,8,8,0,0,1-2.08,3,16.65,16.65,0,0,1-2.84,2,13.18,13.18,0,0,1-3.07,1.24c-1,.26-2,.46-2.84.6s-1.56.23-2.08.27h-.79l.82,0a17,17,0,0,1,2,.33,15,15,0,0,1,2.65.82,10.35,10.35,0,0,1,2.54,1.63,7.2,7.2,0,0,1,2,2.62l5.43,12.08,3,.9v.91h-8.45Q487.17,101.08,484.94,96ZM475,80.86h2.41A8.5,8.5,0,0,0,484,78.17q2.44-2.69,2.45-7.57T484,63a8.49,8.49,0,0,0-6.61-2.68H475Z"/><path class="cls-2" d="M528.39,101.08h-17.2v-.91l3.62-.9V60.34h-6.94a14.54,14.54,0,0,1-.39,3.38,10.2,10.2,0,0,1-1,2.65,14.18,14.18,0,0,1-1.17,1.81,12.88,12.88,0,0,1-1,1.15l-.42.36h-1.81V58.83h35.31V69.69h-1.82q-.42-.36-1.08-1a12,12,0,0,1-1.75-3.08,12.56,12.56,0,0,1-1.09-5.25h-6.94V99.27l3.62.9Z"/></g><g class="cls-3"><path class="cls-2" d="M48.28,116.75h6.34v.91l-3.62.9v38.63l3.62.9V159H37.42v-.91l3.62-.9V124.3L26.86,159.6H25.05L6.64,124.3v32l4.83,1.81V159H0v-.91l4.83-1.81V118.56l-3.62-.9v-.91H8.75a8.47,8.47,0,0,1,5,1.3,10.52,10.52,0,0,1,3.17,3.83l13.16,25.17,10.08-25.17a8.37,8.37,0,0,1,2.8-3.92A9.37,9.37,0,0,1,48.28,116.75Z"/><path class="cls-2" d="M73,143.31,60.65,118.56l-3-.9v-.91h7.54a8.44,8.44,0,0,1,5,1.33,10.4,10.4,0,0,1,3.11,3.8l8.93,17.81,9.18-20.22-4.53-1.81v-.91H98.38v.91l-4.83,1.81L83,142.7v14.49l3.62.9V159H69.41v-.91l3.62-.9Z"/><path class="cls-2" d="M114.37,158.4a7.16,7.16,0,0,0,7.54-7.55,6.44,6.44,0,0,0-2.2-4.68,24.94,24.94,0,0,0-5.34-3.86c-2.09-1.15-4.2-2.37-6.31-3.68a18.36,18.36,0,0,1-5.37-5.1,12.09,12.09,0,0,1-2.2-7.12,9.2,9.2,0,0,1,3.83-7.58q3.84-3,11-3a12.94,12.94,0,0,1,5,1,14.14,14.14,0,0,1,3.56,2l1.15,1a8.25,8.25,0,0,1,1.36-1.78,7.24,7.24,0,0,1,1.42-1.18l.54-.36h1.51v11.47h-2.41c-.09-.28-.21-.67-.37-1.15a23.92,23.92,0,0,0-1.14-2.54,17.79,17.79,0,0,0-2-3.19,11.07,11.07,0,0,0-3.07-2.54,8.35,8.35,0,0,0-4.26-1.15,5.25,5.25,0,0,0-4,1.88,6.8,6.8,0,0,0-1.69,4.76,7,7,0,0,0,1.6,4.44,14.06,14.06,0,0,0,4,3.41c1.57.93,3.29,1.95,5.16,3.08s3.59,2.23,5.16,3.32a13.79,13.79,0,0,1,3.95,4.22,10.58,10.58,0,0,1,1.6,5.68,10.26,10.26,0,0,1-4.31,8.41q-4.32,3.36-12.28,3.35a16.79,16.79,0,0,1-5.8-1,14.78,14.78,0,0,1-3.92-2l-1.15-1a7.72,7.72,0,0,1-1.36,1.78,9.8,9.8,0,0,1-1.35,1.18l-.61.36H99.88V147.83h2.42c.08.29.2.67.36,1.15a18.92,18.92,0,0,0,1.21,2.53,16.13,16.13,0,0,0,2.2,3.2,11.77,11.77,0,0,0,3.47,2.54A10.49,10.49,0,0,0,114.37,158.4Z"/><path class="cls-2" d="M153.6,142.7h-3.32v14.49l3.62.9V159H136.7v-.91l3.62-.9V118.56l-3.62-.9v-.91h16.9q10,0,14.36,3.29t4.35,9.69q0,6.39-4.35,9.68T153.6,142.7Zm-3.32-1.51h3.32a7.45,7.45,0,0,0,6.12-2.89q2.33-2.9,2.33-8.57t-2.33-8.57a7.46,7.46,0,0,0-6.12-2.9h-3.32Z"/><path class="cls-2" d="M211.05,121.64q5.32,5.79,5.32,16.23t-5.32,16.24q-5.31,5.79-14.3,5.79t-14.3-5.79q-5.31-5.79-5.31-16.24t5.31-16.23q5.31-5.79,14.3-5.79T211.05,121.64Zm-7.9,32.14q2.65-4.92,2.65-15.91T203.15,122q-2.66-4.92-6.4-4.92c-2.49,0-4.63,1.64-6.4,4.92s-2.65,8.58-2.65,15.9.88,12.63,2.65,15.91,3.91,4.92,6.4,4.92S201.38,157.06,203.15,153.78Z"/><path class="cls-2" d="M246.84,159h-17.2v-.91l3.62-.9V118.26h-6.94a14.48,14.48,0,0,1-.39,3.38,10.68,10.68,0,0,1-1,2.66,17.22,17.22,0,0,1-1.18,1.81,12.23,12.23,0,0,1-1,1.14l-.42.36h-1.81V116.75H255.9v10.86h-1.81c-.29-.24-.65-.58-1.09-1a11.83,11.83,0,0,1-1.75-3.08,12.72,12.72,0,0,1-1.09-5.25h-6.94v38.93l3.62.9Z"/><path class="cls-2" d="M284,153.87l-6-13.58H274v16.9l4.23.9V159H260.42v-.91l3.62-.9V118.56l-3.62-.9v-.91h16q19.31,0,19.31,11.77a10.45,10.45,0,0,1-.78,4.13,7.9,7.9,0,0,1-2.09,3,16,16,0,0,1-2.83,2,12.82,12.82,0,0,1-3.08,1.24c-1,.26-2,.46-2.84.6s-1.56.24-2.08.28h-.78l.81,0a16.64,16.64,0,0,1,2,.33,14.3,14.3,0,0,1,2.66.81,10.31,10.31,0,0,1,2.53,1.63,7.13,7.13,0,0,1,2,2.63l5.44,12.07,3,.9V159H291.2Q286.19,159,284,153.87Zm-10-15.09h2.42a8.48,8.48,0,0,0,6.61-2.69q2.45-2.68,2.44-7.57T283,121a8.51,8.51,0,0,0-6.61-2.69H274Z"/><path class="cls-2" d="M316.25,137.27h6.94a11.51,11.51,0,0,1,.94-3,15.93,15.93,0,0,1,1.23-2.29l.55-.78h1.81v13.58h-1.81a13.73,13.73,0,0,1-2.72-6h-6.94v18.71h14.18a14,14,0,0,1,.4-3.38,10.68,10.68,0,0,1,1-2.66,15.76,15.76,0,0,1,1.18-1.81,12.46,12.46,0,0,1,1-1.14l.43-.36h1.81V159h-33.5v-.91l3.62-.9V118.56l-3.62-.9v-.91H335v10.86h-1.81c-.28-.24-.64-.58-1.09-1a12.13,12.13,0,0,1-1.75-3.08,12.71,12.71,0,0,1-1.08-5.25h-13Z"/><path class="cls-2" d="M344.32,156.28l10.26-15.15L341.3,118.56l-3-.9v-.91H347a8.13,8.13,0,0,1,4.8,1.3,12.2,12.2,0,0,1,3.35,3.83l5.79,9.9,8.39-12.31-4.53-1.81v-.91H376.3v.91l-4.83,1.81L362,133.41l14,23.78,3,.9V159h-8.75a8.13,8.13,0,0,1-4.8-1.3,12.07,12.07,0,0,1-3.35-3.83l-6.52-11.05-9.17,13.46,4.52,1.81V159H339.49v-.91Z"/><path class="cls-2" d="M398.63,142.7h-3.32v14.49l3.62.9V159h-17.2v-.91l3.62-.9V118.56l-3.62-.9v-.91h16.9q10,0,14.37,3.29t4.34,9.69q0,6.39-4.34,9.68T398.63,142.7Zm-3.32-1.51h3.32a7.47,7.47,0,0,0,6.13-2.89q2.33-2.9,2.32-8.57t-2.32-8.57a7.48,7.48,0,0,0-6.13-2.9h-3.32Z"/><path class="cls-2" d="M436.05,137.27H443a11.51,11.51,0,0,1,.94-3,15.93,15.93,0,0,1,1.23-2.29l.55-.78h1.81v13.58h-1.81a13.73,13.73,0,0,1-2.72-6h-6.94v18.71h14.18a14.48,14.48,0,0,1,.4-3.38,10.68,10.68,0,0,1,1-2.66,15.76,15.76,0,0,1,1.18-1.81,10.86,10.86,0,0,1,1-1.14l.42-.36H456V159h-33.5v-.91l3.62-.9V118.56l-3.62-.9v-.91h32.29v10.86H453c-.28-.24-.64-.58-1.09-1a12.13,12.13,0,0,1-1.75-3.08,12.71,12.71,0,0,1-1.08-5.25h-13Z"/><path class="cls-2" d="M484.94,153.87l-6-13.58H475v16.9l4.22.9V159H461.4v-.91l3.62-.9V118.56l-3.62-.9v-.91h16q19.32,0,19.32,11.77a10.45,10.45,0,0,1-.79,4.13,7.88,7.88,0,0,1-2.08,3,16.1,16.1,0,0,1-2.84,2,12.76,12.76,0,0,1-3.07,1.24c-1,.26-2,.46-2.84.6s-1.56.24-2.08.28h-.79l.82,0a17,17,0,0,1,2,.33,14.19,14.19,0,0,1,2.65.81,10.35,10.35,0,0,1,2.54,1.63,7.23,7.23,0,0,1,2,2.63l5.43,12.07,3,.9V159h-8.45Q487.17,159,484.94,153.87Zm-10-15.09h2.41a8.46,8.46,0,0,0,6.61-2.69q2.44-2.68,2.45-7.57T484,121a8.5,8.5,0,0,0-6.61-2.69H475Z"/><path class="cls-2" d="M528.39,159h-17.2v-.91l3.62-.9V118.26h-6.94a14.48,14.48,0,0,1-.39,3.38,10.28,10.28,0,0,1-1,2.66,15.76,15.76,0,0,1-1.17,1.81,14,14,0,0,1-1,1.14l-.42.36h-1.81V116.75h35.31v10.86h-1.82q-.42-.36-1.08-1a11.83,11.83,0,0,1-1.75-3.08,12.56,12.56,0,0,1-1.09-5.25h-6.94v38.93l3.62.9Z"/></g><g class="cls-3"><path class="cls-2" d="M48.28,174.67h6.34v.91l-3.62.9v38.63l3.62.91v.9H37.42V216l3.62-.91V182.22L26.86,217.53H25.05L6.64,182.22v32L11.47,216v.9H0V216l4.83-1.81V176.48l-3.62-.9v-.91H8.75a8.55,8.55,0,0,1,5,1.3,10.61,10.61,0,0,1,3.17,3.83L30.06,205,40.14,179.8a8.42,8.42,0,0,1,2.8-3.92A9.45,9.45,0,0,1,48.28,174.67Z"/><path class="cls-2" d="M73,201.23,60.65,176.48l-3-.9v-.91h7.54a8.52,8.52,0,0,1,5,1.33,10.48,10.48,0,0,1,3.11,3.8l8.93,17.81,9.18-20.22-4.53-1.81v-.91H98.38v.91l-4.83,1.81L83,200.63v14.48l3.62.91v.9H69.41V216l3.62-.91Z"/><path class="cls-2" d="M114.37,216.32a7.14,7.14,0,0,0,7.54-7.55,6.42,6.42,0,0,0-2.2-4.67,24.62,24.62,0,0,0-5.34-3.87c-2.09-1.14-4.2-2.37-6.31-3.68a18.23,18.23,0,0,1-5.37-5.1,12.06,12.06,0,0,1-2.2-7.12,9.19,9.19,0,0,1,3.83-7.57q3.84-3,11-3a12.94,12.94,0,0,1,5,1,13.81,13.81,0,0,1,3.56,2l1.15,1a8.25,8.25,0,0,1,1.36-1.78,8,8,0,0,1,1.42-1.18l.54-.36h1.51v11.47h-2.41l-.37-1.15a23.13,23.13,0,0,0-1.14-2.53,17.53,17.53,0,0,0-2-3.2,11.07,11.07,0,0,0-3.07-2.54,8.34,8.34,0,0,0-4.26-1.14,5.24,5.24,0,0,0-4,1.87,6.82,6.82,0,0,0-1.69,4.77,7,7,0,0,0,1.6,4.43,13.9,13.9,0,0,0,4,3.41c1.57.93,3.29,2,5.16,3.08s3.59,2.23,5.16,3.32a13.9,13.9,0,0,1,3.95,4.22,10.6,10.6,0,0,1,1.6,5.68,10.27,10.27,0,0,1-4.31,8.42q-4.32,3.35-12.28,3.35a16.79,16.79,0,0,1-5.8-1,14.49,14.49,0,0,1-3.92-2l-1.15-1a7.72,7.72,0,0,1-1.36,1.78,9.16,9.16,0,0,1-1.35,1.18l-.61.36H99.88V205.76h2.42q.12.42.36,1.14a18.86,18.86,0,0,0,1.21,2.54,16.73,16.73,0,0,0,2.2,3.2,11.76,11.76,0,0,0,3.47,2.53A10.36,10.36,0,0,0,114.37,216.32Z"/><path class="cls-2" d="M153.6,200.63h-3.32v14.48l3.62.91v.9H136.7V216l3.62-.91V176.48l-3.62-.9v-.91h16.9q10,0,14.36,3.29t4.35,9.69c0,4.27-1.45,7.49-4.35,9.69S160.28,200.63,153.6,200.63Zm-3.32-1.51h3.32a7.46,7.46,0,0,0,6.12-2.9q2.33-2.9,2.33-8.57t-2.33-8.57a7.46,7.46,0,0,0-6.12-2.9h-3.32Z"/><path class="cls-2" d="M211.05,179.56q5.32,5.81,5.32,16.24T211.05,212q-5.31,5.81-14.3,5.8t-14.3-5.8q-5.31-5.79-5.31-16.23t5.31-16.24q5.31-5.79,14.3-5.79T211.05,179.56Zm-7.9,32.14q2.65-4.92,2.65-15.9t-2.65-15.91q-2.66-4.9-6.4-4.91c-2.49,0-4.63,1.64-6.4,4.91s-2.65,8.59-2.65,15.91.88,12.62,2.65,15.9,3.91,4.92,6.4,4.92S201.38,215,203.15,211.7Z"/><path class="cls-2" d="M246.84,216.92h-17.2V216l3.62-.91V176.18h-6.94a14.41,14.41,0,0,1-.39,3.38,10.68,10.68,0,0,1-1,2.66,16.24,16.24,0,0,1-1.18,1.81,14.23,14.23,0,0,1-1,1.15l-.42.36h-1.81V174.67H255.9v10.87h-1.81c-.29-.24-.65-.59-1.09-1a11.83,11.83,0,0,1-1.75-3.08,12.72,12.72,0,0,1-1.09-5.25h-6.94v38.93l3.62.91Z"/><path class="cls-2" d="M284,211.79l-6-13.58H274v16.9l4.23.91v.9H260.42V216l3.62-.91V176.48l-3.62-.9v-.91h16q19.31,0,19.31,11.77a10.54,10.54,0,0,1-.78,4.14,7.94,7.94,0,0,1-2.09,2.95,16.62,16.62,0,0,1-2.83,2,13.2,13.2,0,0,1-3.08,1.23c-1,.27-2,.47-2.84.61s-1.56.23-2.08.27h-.78l.81,0a16.64,16.64,0,0,1,2,.33,13.58,13.58,0,0,1,2.66.82,10.25,10.25,0,0,1,2.53,1.62,7.13,7.13,0,0,1,2,2.63l5.44,12.07,3,.91v.9H291.2Q286.19,216.92,284,211.79ZM274,196.7h2.42A8.5,8.5,0,0,0,283,194q2.45-2.69,2.44-7.58T283,178.87a8.51,8.51,0,0,0-6.61-2.69H274Z"/><path class="cls-2" d="M316.25,195.19h6.94a11.32,11.32,0,0,1,.94-2.95,16.14,16.14,0,0,1,1.23-2.3l.55-.78h1.81v13.58h-1.81a13.63,13.63,0,0,1-2.72-6h-6.94v18.71h14.18a14,14,0,0,1,.4-3.38,10.59,10.59,0,0,1,1-2.65,14.19,14.19,0,0,1,1.18-1.81,11.57,11.57,0,0,1,1-1.15l.43-.36h1.81v10.86h-33.5V216l3.62-.91V176.48l-3.62-.9v-.91H335v10.87h-1.81c-.28-.24-.64-.59-1.09-1a12.13,12.13,0,0,1-1.75-3.08,12.71,12.71,0,0,1-1.08-5.25h-13Z"/><path class="cls-2" d="M344.32,214.21l10.26-15.15L341.3,176.48l-3-.9v-.91H347a8.2,8.2,0,0,1,4.8,1.3,12.31,12.31,0,0,1,3.35,3.83l5.79,9.9,8.39-12.31-4.53-1.81v-.91H376.3v.91l-4.83,1.81L362,191.33l14,23.78,3,.91v.9h-8.75a8.13,8.13,0,0,1-4.8-1.3,12.07,12.07,0,0,1-3.35-3.83l-6.52-11-9.17,13.46L351,216v.9H339.49V216Z"/><path class="cls-2" d="M398.63,200.63h-3.32v14.48l3.62.91v.9h-17.2V216l3.62-.91V176.48l-3.62-.9v-.91h16.9q10,0,14.37,3.29t4.34,9.69c0,4.27-1.45,7.49-4.34,9.69S405.31,200.63,398.63,200.63Zm-3.32-1.51h3.32a7.48,7.48,0,0,0,6.13-2.9q2.33-2.9,2.32-8.57t-2.32-8.57a7.48,7.48,0,0,0-6.13-2.9h-3.32Z"/><path class="cls-2" d="M436.05,195.19H443a11.32,11.32,0,0,1,.94-2.95,16.14,16.14,0,0,1,1.23-2.3l.55-.78h1.81v13.58h-1.81a13.63,13.63,0,0,1-2.72-6h-6.94v18.71h14.18a14.54,14.54,0,0,1,.4-3.38,10.59,10.59,0,0,1,1-2.65,14.19,14.19,0,0,1,1.18-1.81,10.18,10.18,0,0,1,1-1.15l.42-.36H456v10.86h-33.5V216l3.62-.91V176.48l-3.62-.9v-.91h32.29v10.87H453c-.28-.24-.64-.59-1.09-1a12.13,12.13,0,0,1-1.75-3.08,12.71,12.71,0,0,1-1.08-5.25h-13Z"/><path class="cls-2" d="M484.94,211.79l-6-13.58H475v16.9l4.22.91v.9H461.4V216l3.62-.91V176.48l-3.62-.9v-.91h16q19.32,0,19.32,11.77a10.54,10.54,0,0,1-.79,4.14,7.92,7.92,0,0,1-2.08,2.95,16.7,16.7,0,0,1-2.84,2,13.14,13.14,0,0,1-3.07,1.23c-1,.27-2,.47-2.84.61s-1.56.23-2.08.27h-.79l.82,0a17,17,0,0,1,2,.33,13.48,13.48,0,0,1,2.65.82,10.29,10.29,0,0,1,2.54,1.62,7.23,7.23,0,0,1,2,2.63l5.43,12.07,3,.91v.9h-8.45Q487.17,216.92,484.94,211.79ZM475,196.7h2.41A8.49,8.49,0,0,0,484,194q2.44-2.69,2.45-7.58T484,178.87a8.5,8.5,0,0,0-6.61-2.69H475Z"/><path class="cls-2" d="M528.39,216.92h-17.2V216l3.62-.91V176.18h-6.94a14.41,14.41,0,0,1-.39,3.38,10.28,10.28,0,0,1-1,2.66,14.93,14.93,0,0,1-1.17,1.81c-.41.52-.73.9-1,1.15l-.42.36h-1.81V174.67h35.31v10.87h-1.82c-.28-.24-.64-.59-1.08-1a11.83,11.83,0,0,1-1.75-3.08,12.56,12.56,0,0,1-1.09-5.25h-6.94v38.93l3.62.91Z"/></g><g class="cls-3"><path class="cls-2" d="M48.28.91h6.34v.9L51,2.72V41.34l3.62.91v.9H37.42v-.9L41,41.34V8.45L26.86,43.76H25.05L6.64,8.45v32l4.83,1.81v.9H0v-.9l4.83-1.81V2.72L1.21,1.81V.91H8.75a8.55,8.55,0,0,1,5,1.29A10.65,10.65,0,0,1,16.9,6L30.06,31.2,40.14,6a8.4,8.4,0,0,1,2.8-3.93A9.46,9.46,0,0,1,48.28.91Z"/><path class="cls-2" d="M73,27.46,60.65,2.72l-3-.91V.91h7.54a8.52,8.52,0,0,1,5,1.32A10.52,10.52,0,0,1,73.33,6l8.93,17.8L91.44,3.62,86.91,1.81V.91H98.38v.9L93.55,3.62,83,26.86V41.34l3.62.91v.9H69.41v-.9L73,41.34Z"/><path class="cls-2" d="M114.37,42.55A7.14,7.14,0,0,0,121.91,35a6.44,6.44,0,0,0-2.2-4.68,24.27,24.27,0,0,0-5.34-3.86c-2.09-1.15-4.2-2.38-6.31-3.69a18.1,18.1,0,0,1-5.37-5.1,12.06,12.06,0,0,1-2.2-7.12A9.19,9.19,0,0,1,104.32,3q3.84-3,11-3a12.76,12.76,0,0,1,5,1,13.54,13.54,0,0,1,3.56,2l1.15,1a8.5,8.5,0,0,1,1.36-1.78A7.5,7.5,0,0,1,127.71,1l.54-.37h1.51V12.07h-2.41L127,10.92a24,24,0,0,0-1.14-2.53,17.88,17.88,0,0,0-2-3.2,11,11,0,0,0-3.07-2.53,8.26,8.26,0,0,0-4.26-1.15,5.24,5.24,0,0,0-4,1.87,6.84,6.84,0,0,0-1.69,4.77,6.94,6.94,0,0,0,1.6,4.43,13.9,13.9,0,0,0,4,3.41l5.16,3.08c1.87,1.13,3.59,2.23,5.16,3.32a13.94,13.94,0,0,1,3.95,4.23,10.57,10.57,0,0,1,1.6,5.67,10.26,10.26,0,0,1-4.31,8.42q-4.32,3.34-12.28,3.35a16.56,16.56,0,0,1-5.8-1,14.2,14.2,0,0,1-3.92-2l-1.15-1a8.17,8.17,0,0,1-1.36,1.78A9.61,9.61,0,0,1,102,43.09l-.61.36H99.88V32h2.42q.12.42.36,1.14a18.86,18.86,0,0,0,1.21,2.54,16.42,16.42,0,0,0,2.2,3.2,11.76,11.76,0,0,0,3.47,2.53A10.36,10.36,0,0,0,114.37,42.55Z"/><path class="cls-2" d="M153.6,26.86h-3.32V41.34l3.62.91v.9H136.7v-.9l3.62-.91V2.72l-3.62-.91V.91h16.9q10,0,14.36,3.28t4.35,9.69q0,6.4-4.35,9.69T153.6,26.86Zm-3.32-1.51h3.32a7.46,7.46,0,0,0,6.12-2.9q2.33-2.89,2.33-8.57t-2.33-8.57a7.46,7.46,0,0,0-6.12-2.9h-3.32Z"/><path class="cls-2" d="M211.05,5.79q5.32,5.8,5.32,16.24t-5.32,16.23q-5.31,5.81-14.3,5.8t-14.3-5.8q-5.31-5.79-5.31-16.23t5.31-16.24Q187.76,0,196.75,0T211.05,5.79Zm-7.9,32.14Q205.8,33,205.8,22t-2.65-15.9q-2.66-4.92-6.4-4.92c-2.49,0-4.63,1.64-6.4,4.92S187.7,14.71,187.7,22s.88,12.62,2.65,15.9,3.91,4.92,6.4,4.92S201.38,41.21,203.15,37.93Z"/><path class="cls-2" d="M246.84,43.15h-17.2v-.9l3.62-.91V2.41h-6.94a14.41,14.41,0,0,1-.39,3.38,10.54,10.54,0,0,1-1,2.66,16.24,16.24,0,0,1-1.18,1.81,12.64,12.64,0,0,1-1,1.15l-.42.36h-1.81V.91H255.9V11.77h-1.81a14.88,14.88,0,0,1-1.09-1,11.83,11.83,0,0,1-1.75-3.08,12.65,12.65,0,0,1-1.09-5.25h-6.94V41.34l3.62.91Z"/><path class="cls-2" d="M284,38l-6-13.58H274v16.9l4.23.91v.9H260.42v-.9l3.62-.91V2.72l-3.62-.91V.91h16q19.31,0,19.31,11.76a10.54,10.54,0,0,1-.78,4.14,8,8,0,0,1-2.09,3,17.15,17.15,0,0,1-2.83,2A13.2,13.2,0,0,1,287,23c-1,.27-2,.47-2.84.61s-1.56.23-2.08.27h-.78l.81,0a16.64,16.64,0,0,1,2,.33,14.3,14.3,0,0,1,2.66.82,10,10,0,0,1,2.53,1.63,7.09,7.09,0,0,1,2,2.62l5.44,12.07,3,.91v.9H291.2Q286.19,43.15,284,38ZM274,22.93h2.42A8.5,8.5,0,0,0,283,20.25q2.45-2.68,2.44-7.58c0-3.25-.81-5.78-2.44-7.57a8.51,8.51,0,0,0-6.61-2.69H274Z"/><path class="cls-2" d="M316.25,21.43h6.94a11.27,11.27,0,0,1,.94-3,16.14,16.14,0,0,1,1.23-2.3l.55-.78h1.81V29h-1.81a13.63,13.63,0,0,1-2.72-6h-6.94V41.64h14.18a14,14,0,0,1,.4-3.38,10.59,10.59,0,0,1,1-2.65A14.94,14.94,0,0,1,333,33.8a12.89,12.89,0,0,1,1-1.15l.43-.36h1.81V43.15h-33.5v-.9l3.62-.91V2.72l-3.62-.91V.91H335V11.77h-1.81c-.28-.24-.64-.58-1.09-1a12.13,12.13,0,0,1-1.75-3.08,12.65,12.65,0,0,1-1.08-5.25h-13Z"/><path class="cls-2" d="M344.32,40.44l10.26-15.15L341.3,2.72l-3-.91V.91H347a8.2,8.2,0,0,1,4.8,1.29A12.35,12.35,0,0,1,355.18,6L361,15.93l8.39-12.31-4.53-1.81V.91H376.3v.9l-4.83,1.81L362,17.56l14,23.78,3,.91v.9h-8.75a8.2,8.2,0,0,1-4.8-1.29A12.23,12.23,0,0,1,362.12,38L355.6,27l-9.17,13.46L351,42.25v.9H339.49v-.9Z"/><path class="cls-2" d="M398.63,26.86h-3.32V41.34l3.62.91v.9h-17.2v-.9l3.62-.91V2.72l-3.62-.91V.91h16.9q10,0,14.37,3.28t4.34,9.69q0,6.4-4.34,9.69T398.63,26.86Zm-3.32-1.51h3.32a7.48,7.48,0,0,0,6.13-2.9q2.33-2.89,2.32-8.57t-2.32-8.57a7.48,7.48,0,0,0-6.13-2.9h-3.32Z"/><path class="cls-2" d="M436.05,21.43H443a11.27,11.27,0,0,1,.94-3,16.14,16.14,0,0,1,1.23-2.3l.55-.78h1.81V29h-1.81a13.63,13.63,0,0,1-2.72-6h-6.94V41.64h14.18a14.54,14.54,0,0,1,.4-3.38,10.59,10.59,0,0,1,1-2.65,14.94,14.94,0,0,1,1.18-1.81,11.19,11.19,0,0,1,1-1.15l.42-.36H456V43.15h-33.5v-.9l3.62-.91V2.72l-3.62-.91V.91h32.29V11.77H453c-.28-.24-.64-.58-1.09-1a12.13,12.13,0,0,1-1.75-3.08A12.65,12.65,0,0,1,449,2.41h-13Z"/><path class="cls-2" d="M484.94,38l-6-13.58H475v16.9l4.22.91v.9H461.4v-.9l3.62-.91V2.72l-3.62-.91V.91h16q19.32,0,19.32,11.76a10.54,10.54,0,0,1-.79,4.14,8,8,0,0,1-2.08,3,17.24,17.24,0,0,1-2.84,2A13.14,13.14,0,0,1,487.93,23c-1,.27-2,.47-2.84.61s-1.56.23-2.08.27h-.79l.82,0a17,17,0,0,1,2,.33,14.19,14.19,0,0,1,2.65.82,10.06,10.06,0,0,1,2.54,1.63,7.2,7.2,0,0,1,2,2.62l5.43,12.07,3,.91v.9h-8.45Q487.17,43.15,484.94,38ZM475,22.93h2.41A8.49,8.49,0,0,0,484,20.25q2.44-2.68,2.45-7.58c0-3.25-.82-5.78-2.45-7.57a8.5,8.5,0,0,0-6.61-2.69H475Z"/><path class="cls-2" d="M528.39,43.15h-17.2v-.9l3.62-.91V2.41h-6.94a14.41,14.41,0,0,1-.39,3.38,10.14,10.14,0,0,1-1,2.66,14.93,14.93,0,0,1-1.17,1.81,14.54,14.54,0,0,1-1,1.15l-.42.36h-1.81V.91h35.31V11.77h-1.82c-.28-.24-.64-.58-1.08-1a11.83,11.83,0,0,1-1.75-3.08,12.49,12.49,0,0,1-1.09-5.25h-6.94V41.34l3.62.91Z"/></g></g></g></svg>