<svg xmlns="http://www.w3.org/2000/svg" viewBox="0 0 16.76 16.76"><defs><style>.cls-1{fill:#333;}</style></defs><g id="Layer_2" data-name="Layer 2"><g id="Layer_1-2" data-name="Layer 1"><path class="cls-1" d="M12.23,16.76a7,7,0,0,1-2.33-.55,16.28,16.28,0,0,1-4.3-2.69A20.94,20.94,0,0,1,2.14,9.76,11.93,11.93,0,0,1,.28,6.08a4.55,4.55,0,0,1,0-3.19A3.53,3.53,0,0,1,.84,2,19.76,19.76,0,0,1,2.42.38,1.57,1.57,0,0,1,4.69.61C5.34,1.45,6,2.3,6.56,3.18a1.57,1.57,0,0,1-.19,2.14L5.24,6.47c-.34.34-.36.4-.16.85a7.9,7.9,0,0,0,1.27,2,8.7,8.7,0,0,0,3.2,2.34c.38.16.45.15.73-.14l1.13-1.14a1.61,1.61,0,0,1,2.22-.15c.84.69,1.66,1.4,2.49,2.09a1.59,1.59,0,0,1,.2,2.38,15.87,15.87,0,0,1-1.15,1.17A4.05,4.05,0,0,1,12.23,16.76ZM2.19,1.48c-.32.34-.59.65-.87.94a2.18,2.18,0,0,0-.5,1A4.59,4.59,0,0,0,1,6.16,12.4,12.4,0,0,0,3.13,10,19.8,19.8,0,0,0,7.5,14.15,11,11,0,0,0,11.33,16a4.35,4.35,0,0,0,2.32,0,3.77,3.77,0,0,0,1.62-1.12l-4.22-3.17-.44.41a1,1,0,0,1-1.23.22A10,10,0,0,1,6,9.89,8.84,8.84,0,0,1,4.43,7.44a1.11,1.11,0,0,1,.29-1.39c.11-.1.22-.22.34-.35Zm9.32,9.69,4.22,3.17a1,1,0,0,0,0-1.52c-.82-.71-1.65-1.41-2.48-2.11a.92.92,0,0,0-1.17,0C11.88,10.81,11.72,11,11.51,11.17Zm-6-5.94A2.62,2.62,0,0,0,5.75,5a1.07,1.07,0,0,0,.13-1.67L4.29,1.14A1,1,0,0,0,2.68,1Z"/><path class="cls-1" d="M7.11,12.17c0,.28-.21.45-.41.38a.55.55,0,0,1-.21-.14A20.16,20.16,0,0,1,3.31,9l-.18-.28a.28.28,0,0,1,.07-.37.31.31,0,0,1,.41,0,.77.77,0,0,1,.17.19,21.29,21.29,0,0,0,3.09,3.34A2.24,2.24,0,0,1,7.11,12.17Z"/><path class="cls-1" d="M8.17,13a.31.31,0,0,1-.33.32A.32.32,0,0,1,7.53,13a.33.33,0,0,1,.34-.32A.31.31,0,0,1,8.17,13Z"/></g></g></svg>