<svg xmlns="http://www.w3.org/2000/svg" viewBox="0 0 12.22 16.76"><defs><style>.cls-1{fill:#333;}</style></defs><g id="Layer_2" data-name="Layer 2"><g id="Layer_1-2" data-name="Layer 1"><path class="cls-1" d="M6,16.76c-1.14-1.5-2.27-2.94-3.35-4.43a20,20,0,0,1-2.22-4A6,6,0,0,1,2.79,1a6.07,6.07,0,0,1,7.84,1,5.76,5.76,0,0,1,1.13,6.27,19,19,0,0,1-2.47,4.37c-.91,1.28-1.93,2.49-2.91,3.73A4.5,4.5,0,0,1,6,16.76Zm.08-1.53c.71-.92,1.4-1.79,2.06-2.7A19.34,19.34,0,0,0,11,7.62,4.93,4.93,0,0,0,9.32,2.1a5.13,5.13,0,0,0-6.39,0A5,5,0,0,0,1.45,8.15,31.34,31.34,0,0,0,6.12,15.23Z"/><path class="cls-1" d="M9.71,5.86a3.6,3.6,0,1,1-7.2,0,3.6,3.6,0,1,1,7.2,0Zm-6.23,0a2.63,2.63,0,1,0,5.26,0,2.63,2.63,0,0,0-5.26,0Z"/></g></g></svg>