<svg xmlns="http://www.w3.org/2000/svg" viewBox="0 0 17.45 16.76"><defs><style>.cls-1{fill:#333;}</style></defs><g id="Layer_2" data-name="Layer 2"><g id="Layer_1-2" data-name="Layer 1"><path class="cls-1" d="M3.89,11.64l-.21-1.31H2.25c-.26,0-.39-.13-.39-.34s.13-.34.38-.34H3.66l.17-1.27H.6a1.47,1.47,0,0,1-.41-.07A.29.29,0,0,1,0,8a.32.32,0,0,1,.28-.29,1.58,1.58,0,0,1,.31,0H4l.59-1.32h-2A.35.35,0,0,1,2.33,6a.32.32,0,0,1,.27-.33,1.62,1.62,0,0,1,.31,0H4.82a.55.55,0,0,0,.5-.22A6.47,6.47,0,0,1,7,4a7.15,7.15,0,0,1,1.78-.75L9,3.15V2.32a3.62,3.62,0,0,1-.33-.2A1.17,1.17,0,0,1,8.2.9a1.15,1.15,0,0,1,1-.87A3,3,0,0,1,9.5,0h2.1L12,0a1.21,1.21,0,0,1,1,.88,1.21,1.21,0,0,1-.55,1.24,2.72,2.72,0,0,1-.3.16v.84l.65.2A6.77,6.77,0,0,1,17,7.4a6.62,6.62,0,0,1,.41,3.24,6.82,6.82,0,0,1-1,2.81,1.37,1.37,0,0,1-.13.2.35.35,0,0,1-.42.08.33.33,0,0,1-.14-.41,2.27,2.27,0,0,1,.19-.34,6,6,0,0,0,.79-3.71,6,6,0,0,0-3.3-4.88A6.17,6.17,0,0,0,5.78,5.93,6,6,0,0,0,4.42,9.11a6.25,6.25,0,0,0,1.29,4.63,5.94,5.94,0,0,0,1.74,1.49,6,6,0,0,0,3,.84,6.06,6.06,0,0,0,3.21-.8c.12-.07.24-.14.37-.2a.32.32,0,0,1,.43.14.27.27,0,0,1-.08.4,5.53,5.53,0,0,1-.91.53,6.83,6.83,0,0,1-5.63,0A6.65,6.65,0,0,1,4.29,12.7l-.06-.15c-.05-.18-.17-.23-.35-.22H1.74c-.27,0-.37-.15-.36-.37s.12-.3.37-.3H3.89Zm6.66-10v0c.43,0,.86,0,1.28,0a.39.39,0,0,0,.42-.42.45.45,0,0,0-.36-.49,1.18,1.18,0,0,0-.27,0H9.53a1.34,1.34,0,0,0-.35,0,.44.44,0,0,0-.3.48.41.41,0,0,0,.35.4l.31,0Zm.82.68H9.76V3h1.61Z"/><path class="cls-1" d="M15.84,9.88a5.28,5.28,0,1,1-5.25-5.29A5.25,5.25,0,0,1,15.84,9.88ZM6,9.87a4.6,4.6,0,0,0,9.19,0A4.6,4.6,0,1,0,6,9.87Z"/><path class="cls-1" d="M15.52,14.49a.33.33,0,0,1-.34.35.32.32,0,0,1-.31-.33.33.33,0,0,1,.33-.35A.33.33,0,0,1,15.52,14.49Z"/><path class="cls-1" d="M.68,12a.35.35,0,0,1-.34.34A.35.35,0,0,1,0,12a.34.34,0,0,1,.32-.32A.34.34,0,0,1,.68,12Z"/><path class="cls-1" d="M11.53,9.4c.16.67.06,1.08-.37,1.35a1,1,0,0,1-1.14,0c-.45-.27-.57-.66-.43-1.4l-.53-.53c-.07-.08-.15-.15-.21-.23a.35.35,0,0,1,0-.46.33.33,0,0,1,.46,0c.09.07.16.16.25.24s.33.33.52.5a1.24,1.24,0,0,1,.89,0l1.52-1.48a2.68,2.68,0,0,1,.26-.23.32.32,0,0,1,.43,0,.31.31,0,0,1,0,.42.65.65,0,0,1-.16.17Zm-1,.85a.38.38,0,0,0,0-.75.4.4,0,0,0-.38.37A.39.39,0,0,0,10.57,10.25Z"/><path class="cls-1" d="M10.91,6.4v.16a.37.37,0,0,1-.33.33.35.35,0,0,1-.34-.3,1.18,1.18,0,0,1,0-.42.32.32,0,0,1,.32-.28.35.35,0,0,1,.33.32,1.21,1.21,0,0,1,0,.19Z"/><path class="cls-1" d="M14.17,9.55a.3.3,0,0,1,.14,0,.3.3,0,0,1,.23.32.26.26,0,0,1-.21.29,1.61,1.61,0,0,1-.49,0,.32.32,0,0,1-.28-.33.34.34,0,0,1,.32-.32A2.65,2.65,0,0,1,14.17,9.55Z"/><path class="cls-1" d="M10.9,13.31a.92.92,0,0,1,0,.17c0,.23-.13.36-.32.37s-.34-.13-.36-.37a1,1,0,0,1,0-.35.32.32,0,0,1,.34-.26.33.33,0,0,1,.31.3A.37.37,0,0,1,10.9,13.31Z"/><path class="cls-1" d="M7.07,9.54H7.3a.3.3,0,0,1,.26.32.29.29,0,0,1-.27.32,1.7,1.7,0,0,1-.39,0,.31.31,0,0,1-.3-.33.32.32,0,0,1,.31-.33Z"/></g></g></svg>