<svg xmlns="http://www.w3.org/2000/svg" viewBox="0 0 59.11 104.19"><defs><style>.cls-1{fill:#f3f3f3;}</style></defs><g id="Layer_2" data-name="Layer 2"><g id="Layer_1-2" data-name="Layer 1"><path class="cls-1" d="M53.81,0V7.64Q37.58,13.58,28.39,26.28T19.18,52.72a8,8,0,0,0,.94,4.36,1.71,1.71,0,0,0,1.4.94,4.86,4.86,0,0,0,2.34-1.09q5-3.59,12.64-3.59,8.88,0,15.75,7.25a24.27,24.27,0,0,1,6.86,17.24,25.36,25.36,0,0,1-7.87,18.4,25.88,25.88,0,0,1-19.11,8q-13.1,0-22.62-10.76T0,64.57A59.9,59.9,0,0,1,13,26.83Q25.89,10.13,53.81,0Z"/></g></g></svg>