<svg xmlns="http://www.w3.org/2000/svg" viewBox="0 0 59.11 104.19"><defs><style>.cls-1{fill:#f3f3f3;}</style></defs><g id="Layer_2" data-name="Layer 2"><g id="Layer_1-2" data-name="Layer 1"><path class="cls-1" d="M5.3,104.19V96.55q16.07-5.94,25.27-18.64t9.2-26.44a8.07,8.07,0,0,0-.93-4.37,1.42,1.42,0,0,0-1.25-.93,5.69,5.69,0,0,0-2.5,1.09,20.83,20.83,0,0,1-12.47,3.59q-9.06,0-15.84-7.26A24.37,24.37,0,0,1,0,26.36,25.53,25.53,0,0,1,7.8,8,25.82,25.82,0,0,1,27,0Q39.92,0,49.52,10.76t9.59,28.86A60.07,60.07,0,0,1,46.17,77.28Q33.22,94,5.3,104.19Z"/></g></g></svg>