<svg xmlns="http://www.w3.org/2000/svg" viewBox="0 0 20.96 20.98"><defs><style>.cls-1{fill:#be2433;}</style></defs><g id="Layer_2" data-name="Layer 2"><g id="Layer_1-2" data-name="Layer 1"><path class="cls-1" d="M18.26,4.79c0,.2,0,.32-.05.44a.37.37,0,0,1-.4.33.39.39,0,0,1-.39-.34.86.86,0,0,1,0-.23c0-.41,0-.81,0-1.22s.14-.57.55-.58h1.31a.48.48,0,0,1,.51.44c0,.21-.21.37-.5.39h-.51c.27.43.51.79.73,1.16a10.07,10.07,0,0,1,1.19,7.61,10.17,10.17,0,0,1-5.59,7.09A10,10,0,0,1,8,20.65a10.25,10.25,0,0,1-6.79-5.37A10.13,10.13,0,0,1,0,10,10.32,10.32,0,0,1,2.67,3.51a10.2,10.2,0,0,1,4.61-3A9.87,9.87,0,0,1,11.57.07a1.6,1.6,0,0,1,.23,0,.4.4,0,0,1,.29.43.36.36,0,0,1-.32.34,1.22,1.22,0,0,1-.33,0,9.82,9.82,0,0,0-4.36.58A9.65,9.65,0,0,0,.86,11.37a9.27,9.27,0,0,0,1.72,4.68,9.42,9.42,0,0,0,6,3.9A9.37,9.37,0,0,0,16,18.39,9.33,9.33,0,0,0,20,12.31,9.51,9.51,0,0,0,18.43,5S18.35,4.91,18.26,4.79Z"/><path class="cls-1" d="M10.54,2.68A7.83,7.83,0,0,1,16,5a7.44,7.44,0,0,1,2,3.53,7.58,7.58,0,0,1-.35,5A7.47,7.47,0,0,1,12,18.13a7.53,7.53,0,0,1-7.58-2.69,7.76,7.76,0,0,1-.69-8.91c.22-.36.41-.47.65-.34s.25.37,0,.73a6.88,6.88,0,0,0-.72,5.37A6.63,6.63,0,0,0,8,17a6.66,6.66,0,0,0,7.47-1.69,6.68,6.68,0,0,0,1.79-6.42A7,7,0,0,0,8.81,3.69,7.33,7.33,0,0,0,7,4.43c-.1.05-.19.11-.29.15a.41.41,0,0,1-.53-.18.39.39,0,0,1,.14-.53A5.19,5.19,0,0,1,7,3.5,8.16,8.16,0,0,1,10.54,2.68Z"/><path class="cls-1" d="M11.74,9.83c.24.87.1,1.43-.43,1.8a1.44,1.44,0,0,1-1.66,0c-.54-.38-.68-.94-.44-1.81L8.13,8.72c-.1-.1-.2-.2-.29-.31a.4.4,0,0,1,.57-.55c.27.24.52.5.77.76s.37.41.54.6a5,5,0,0,1,.75-.12,3.82,3.82,0,0,1,.68.11L11.43,9l2.28-2.28A2.61,2.61,0,0,1,14,6.4a.39.39,0,0,1,.54.55,1.64,1.64,0,0,1-.28.31L12.07,9.48Zm-1.26,1.23a.54.54,0,0,0,.56-.6.53.53,0,0,0-.57-.54.57.57,0,0,0,0,1.14Z"/><path class="cls-1" d="M4.92,10.87c-.11,0-.22,0-.33,0a.36.36,0,0,1-.33-.38.35.35,0,0,1,.32-.39,3.11,3.11,0,0,1,.61,0,.38.38,0,0,1,.36.41.4.4,0,0,1-.4.38H4.92Z"/><path class="cls-1" d="M10.07,4.91a2.09,2.09,0,0,1,0-.36.36.36,0,0,1,.38-.28.34.34,0,0,1,.37.3,4.68,4.68,0,0,1,0,.65.36.36,0,0,1-.38.34.38.38,0,0,1-.4-.37,2.43,2.43,0,0,1,0-.27Z"/><path class="cls-1" d="M16.05,10.09a2.31,2.31,0,0,1,.37,0,.35.35,0,0,1,.27.39.33.33,0,0,1-.29.36,3.54,3.54,0,0,1-.65,0,.35.35,0,0,1-.34-.37.38.38,0,0,1,.36-.41h.28Z"/><path class="cls-1" d="M10.88,16.06a2.33,2.33,0,0,1,0,.37.37.37,0,0,1-.38.28.34.34,0,0,1-.36-.3,3.51,3.51,0,0,1,0-.65.36.36,0,0,1,.38-.34.38.38,0,0,1,.4.36,2.62,2.62,0,0,1,0,.28Z"/><path class="cls-1" d="M13.72.82a.41.41,0,0,1-.42.4A.39.39,0,0,1,12.91.8.42.42,0,0,1,13.3.41.46.46,0,0,1,13.72.82Z"/><path class="cls-1" d="M5.23,5.64a.39.39,0,1,1,.4-.41A.37.37,0,0,1,5.23,5.64Z"/></g></g></svg>