<svg xmlns="http://www.w3.org/2000/svg" viewBox="0 0 15.97 15.9"><defs><style>.cls-1{fill:#e7e6e6;}</style></defs><g id="Слой_2" data-name="Слой 2"><g id="Слой_1-2" data-name="Слой 1"><path class="cls-1" d="M8,0l6,0a2,2,0,0,1,1.17.37,2,2,0,0,1,.72,1.13,2.62,2.62,0,0,1,.07.79l0,11.53a2,2,0,0,1-1.47,2,1.51,1.51,0,0,1-.37.07l-12.26,0a1.5,1.5,0,0,1-1-.34A2,2,0,0,1,0,13.87C0,9.93,0,6,0,2.06A2,2,0,0,1,1.34.1,1.1,1.1,0,0,1,1.6,0H8ZM10.5,2.34l-.1,0c-.48,0-1,0-1.45,0a4.93,4.93,0,0,0-1.09.14A1.92,1.92,0,0,0,6.59,3.93a15.05,15.05,0,0,0,0,1.64l0,.44H5.74c-.35,0-.35,0-.36.37s0,.77,0,1.15,0,.39.37.39h.78v.42c0,1.61,0,3.22,0,4.82,0,.14,0,.29.07.4a13.56,13.56,0,0,0,2.22,0v-.38c0-1.63,0-3.27,0-4.9,0-.14-.05-.28.07-.42h1.43A5.53,5.53,0,0,0,10.48,6H8.82c0-.46,0-.89,0-1.33a.42.42,0,0,1,.45-.42h1.23Z"/></g></g></svg>