<svg xmlns="http://www.w3.org/2000/svg" viewBox="0 0 15.89 15.96"><defs><style>.cls-1{fill:#e7e6e6;}</style></defs><g id="Слой_2" data-name="Слой 2"><g id="Слой_1-2" data-name="Слой 1"><path class="cls-1" d="M4.58,5.77A4.05,4.05,0,0,0,5.13,11a4,4,0,0,0,4.87.55,3.9,3.9,0,0,0,1.86-2.62,4.27,4.27,0,0,0-.62-3.18,1.57,1.57,0,0,1,.25,0h4.22a.16.16,0,0,1,.16.17v.27q0,3.32,0,6.63a3.15,3.15,0,0,1-2.51,3.12,2.32,2.32,0,0,1-.52.07L3.09,16a3,3,0,0,1-1.92-.72,3.48,3.48,0,0,1-1.14-2,2,2,0,0,1,0-.35c0-2.28,0-4.57,0-6.86a.75.75,0,0,1,0-.15c0-.18,0-.21.23-.22h4C4.35,5.69,4.49,5.65,4.58,5.77Z"/><path class="cls-1" d="M3.07,4V3.58c0-1,0-2.09,0-3.14a1.77,1.77,0,0,1,0-.23c0-.14.07-.19.23-.19s.22,0,.23.18a2.43,2.43,0,0,1,0,.27c0,1,0,2.05,0,3.07V3.9c.2.14.39.07.61.08v-.4c0-1,0-2.07,0-3.1a2.43,2.43,0,0,0,0-.27A.17.17,0,0,1,4.32,0h8.21a3.21,3.21,0,0,1,3.28,2.6,5.82,5.82,0,0,1,.06,1V5.17a1.27,1.27,0,0,1-.26,0H11.05a.63.63,0,0,1-.44-.16A3.89,3.89,0,0,0,9,4.2a4.05,4.05,0,0,0-2.53.11,3.45,3.45,0,0,0-1.28.81.48.48,0,0,1-.39.11H.29L0,5.22v-2A3.14,3.14,0,0,1,1.1.8,1.38,1.38,0,0,1,1.36.65V4H1.9C2,3.87,2,3.75,2,3.64V.27L2.43.13c0,.46,0,.88,0,1.29s0,.85,0,1.27,0,.84,0,1.28Zm10-2.6c-.28,0-.56,0-.84,0a.47.47,0,0,0-.51.5c0,.56,0,1.12,0,1.68a.5.5,0,0,0,.51.5h1.64a.52.52,0,0,0,.51-.47c0-.57,0-1.14,0-1.71a.52.52,0,0,0-.56-.5C13.59,1.36,13.33,1.37,13.08,1.37Z"/><path class="cls-1" d="M11.06,8.08a3.07,3.07,0,0,1-3.17,3.1A3,3,0,0,1,4.8,8.12,3.11,3.11,0,0,1,7.92,4.91,3.15,3.15,0,0,1,11.06,8.08Zm-5.38,0A2.27,2.27,0,1,0,10.21,8,2.22,2.22,0,0,0,7.89,5.78,2.19,2.19,0,0,0,5.68,8.09Z"/></g></g></svg>