<svg xmlns="http://www.w3.org/2000/svg" viewBox="0 0 26.53 26.57"><defs><style>.cls-1{fill:#fff;}</style></defs><g id="Layer_2" data-name="Layer 2"><g id="Layer_1-2" data-name="Layer 1"><path class="cls-1" d="M13.14,0c5.22.25,9.13,2.42,11.71,6.84a12.59,12.59,0,0,1,1.58,4.86,13,13,0,0,1-1.31,7.57,12.86,12.86,0,0,1-5.25,5.53,13.09,13.09,0,0,1-7.43,1.74A12.68,12.68,0,0,1,7,25a1.25,1.25,0,0,0-1.11-.12c-1.26.42-2.52.8-3.78,1.19-.24.07-.49.15-.74.21a.84.84,0,0,1-1-.88,2.8,2.8,0,0,1,.2-.74C1,23.47,1.5,22.28,2,21.1a.92.92,0,0,0-.07-.93,13.15,13.15,0,0,1-1.88-5.8,12.53,12.53,0,0,1,.24-3.76A13.08,13.08,0,0,1,4.52,3.33,12.65,12.65,0,0,1,10.94.27C11.72.15,12.5.08,13.14,0ZM1.24,25.39l.65-.18c1.32-.41,2.64-.82,3.94-1.25a1.68,1.68,0,0,1,1.42.14,11.88,11.88,0,0,0,6.17,1.55A12,12,0,0,0,21,23,12.26,12.26,0,0,0,25.13,9.83a12,12,0,0,0-7.57-8.12,12,12,0,0,0-6.1-.63A11.93,11.93,0,0,0,7.34,2.45,12.36,12.36,0,0,0,1,14.84a11.34,11.34,0,0,0,1.67,4.81,1.82,1.82,0,0,1,.15,1.79c-.44,1-.85,2.08-1.26,3.13C1.46,24.8,1.38,25,1.24,25.39Z"/><path class="cls-1" d="M8.24,4.84a1.34,1.34,0,0,1,1.11.62c.61,1,1.21,1.89,1.78,2.86a1.28,1.28,0,0,1-.23,1.76c-.26.27-.52.54-.79.79a.73.73,0,0,0-.21.8,7,7,0,0,0,5,5,.72.72,0,0,0,.84-.21c.27-.28.55-.56.84-.83a1.23,1.23,0,0,1,1.62-.22c1,.59,2,1.21,3,1.85a1.25,1.25,0,0,1,.45,1.62c-.47,1-1,2-1.48,3a1.27,1.27,0,0,1-1.39.69,15.91,15.91,0,0,1-5.36-1.74,19,19,0,0,1-6.11-5.3A16.2,16.2,0,0,1,4.06,8a1.37,1.37,0,0,1,.77-1.52C5.75,6,6.69,5.48,7.63,5A3.31,3.31,0,0,1,8.24,4.84ZM18.53,21.59c.64,0,.69,0,.9-.4l1.28-2.53c.19-.4.16-.53-.23-.79l-.8-.5c-.55-.34-1.1-.7-1.65-1s-.65-.31-1.08.12c-.19.19-.4.38-.58.59a1.59,1.59,0,0,1-1.81.46A8,8,0,0,1,10.5,14.8,7.63,7.63,0,0,1,9,11.92a1.51,1.51,0,0,1,.44-1.66c.23-.21.45-.44.67-.67.38-.38.41-.51.13-1-.51-.85-1-1.68-1.57-2.51-.26-.41-.39-.44-.83-.22L5.51,7.08C5,7.36,4.94,7.38,5,8a2.64,2.64,0,0,0,0,.29,14.6,14.6,0,0,0,1.25,3.87,17.58,17.58,0,0,0,9.18,8.61A14,14,0,0,0,18.53,21.59Z"/><path class="cls-1" d="M15.16,2a11.65,11.65,0,0,1,6.33,3.3,1.86,1.86,0,0,1,.26.31.41.41,0,0,1-.07.54.44.44,0,0,1-.55,0,2.62,2.62,0,0,1-.3-.28,10.51,10.51,0,0,0-5.64-3L15,2.84a.47.47,0,0,1-.35-.54A.48.48,0,0,1,15.16,2Z"/><path class="cls-1" d="M13.28,1.83a.45.45,0,0,1,.43.4.44.44,0,1,1-.88,0A.46.46,0,0,1,13.28,1.83Z"/></g></g></svg>