<svg xmlns="http://www.w3.org/2000/svg" viewBox="0 0 15.97 15.97"><defs><style>.cls-1{fill:#e7e6e6;}</style></defs><g id="Слой_2" data-name="Слой 2"><g id="Слой_1-2" data-name="Слой 1"><path class="cls-1" d="M0,15,0,1s0,0,0,0A1,1,0,0,1,.77.07L.88,0,15.06,0l0,0a1.05,1.05,0,0,1,.84.85s0,0,0,0L16,15s0,0,0,0a1.05,1.05,0,0,1-.94.86h0L1,16S1,16,.9,16a1.05,1.05,0,0,1-.83-.79A.83.83,0,0,1,0,15ZM6.1,5.17s.05,0,.09,0a.93.93,0,0,1,.31.13.65.65,0,0,1,.25.47,4,4,0,0,1,0,.6,6.27,6.27,0,0,1,0,1.06,1,1,0,0,1-.11.34.22.22,0,0,1-.3.11.7.7,0,0,1-.23-.15,2.24,2.24,0,0,1-.34-.42Q5.53,7,5.32,6.63a8.68,8.68,0,0,1-.51-1c0-.1-.09-.21-.14-.31A.43.43,0,0,0,4.25,5H2.66a.69.69,0,0,0-.2,0,.2.2,0,0,0-.14.25l.05.15c.11.24.22.49.34.73s.28.56.43.84a.47.47,0,0,0,0,.1c.22.4.44.8.69,1.19s.39.59.6.88.28.34.42.51a4.59,4.59,0,0,0,.8.73,4.4,4.4,0,0,0,1,.52,3.92,3.92,0,0,0,.59.15,3.17,3.17,0,0,0,.61.07h0a3,3,0,0,0,.67,0,.74.74,0,0,0,.24-.11s.05-.05.06-.08a.53.53,0,0,0,0-.17c0-.14,0-.27,0-.41a1.45,1.45,0,0,1,.1-.41.59.59,0,0,1,.17-.24.31.31,0,0,1,.32-.06,1.12,1.12,0,0,1,.35.25l.45.49a3.94,3.94,0,0,0,.5.5,1.19,1.19,0,0,0,.77.25h1.42a1,1,0,0,0,.42-.1.29.29,0,0,0,.19-.3.51.51,0,0,0-.07-.24,4,4,0,0,0-.49-.68l-.47-.47-.32-.3a2.94,2.94,0,0,1-.39-.4.44.44,0,0,1-.09-.46A1.15,1.15,0,0,1,12,8l.73-1a10.22,10.22,0,0,0,.66-1c.08-.14.16-.29.23-.44a.84.84,0,0,0,.08-.32.21.21,0,0,0-.18-.24A1.11,1.11,0,0,0,13.22,5h-2a.32.32,0,0,0-.2.21l-.17.39c-.1.23-.2.47-.31.69s-.22.4-.34.59a5.6,5.6,0,0,1-.49.68,1.6,1.6,0,0,1-.27.25c-.17.13-.25.09-.36,0A.19.19,0,0,1,9,7.72a.86.86,0,0,1-.09-.35V6.9c0-.22,0-.44,0-.66s0-.62,0-.93a1,1,0,0,0-.06-.25.34.34,0,0,0-.19-.18l-.25-.06A1.46,1.46,0,0,0,8,4.76c-.35,0-.7,0-1.05,0a1.78,1.78,0,0,0-.51.1.78.78,0,0,0-.26.17A.2.2,0,0,0,6.1,5.17Z"/></g></g></svg>