<svg xmlns="http://www.w3.org/2000/svg" viewBox="0 0 15.96 15.95"><defs><style>.cls-1{fill:#e7e6e6;}</style></defs><g id="Слой_2" data-name="Слой 2"><g id="Слой_1-2" data-name="Слой 1"><path class="cls-1" d="M0,13.25,0,2.63s0-.07,0-.11c0-.22,0-.44,0-.66a1.58,1.58,0,0,1,.16-.68A2.15,2.15,0,0,1,1,.29,1.72,1.72,0,0,1,1.71,0a3.54,3.54,0,0,1,.46,0H14.24a.69.69,0,0,1,.2,0A2,2,0,0,1,15.6.88a1.67,1.67,0,0,1,.32.91c0,.22,0,.44,0,.66,0,.92,0,1.83,0,2.75,0,1.09,0,2.17,0,3.26v3.88c0,.58,0,1.16,0,1.74,0,.13,0,.27,0,.4a1.38,1.38,0,0,1-.21.48,2.24,2.24,0,0,1-.82.77,1.43,1.43,0,0,1-.6.17c-.29,0-.57,0-.86,0H6.35c-1,0-2,0-2.94,0l-1.54,0a2.71,2.71,0,0,1-.4,0A1.26,1.26,0,0,1,1,15.68a2.13,2.13,0,0,1-.85-1,1,1,0,0,1-.06-.23,5.46,5.46,0,0,1,0-.57c0-.18,0-.37,0-.56C0,13.31,0,13.28,0,13.25Zm1.74,1,.12,0,2.25-.7.93-.3a.19.19,0,0,1,.16,0l.26.13a7.13,7.13,0,0,0,.84.31,6,6,0,0,0,1.1.22c.25,0,.51,0,.77,0A5.69,5.69,0,0,0,9,13.83a5.25,5.25,0,0,0,1-.22,5.94,5.94,0,0,0,1.74-.88,6.09,6.09,0,0,0,2.38-3.68,3.11,3.11,0,0,0,.09-.6v-1a4.21,4.21,0,0,0-.06-.79,7.28,7.28,0,0,0-.45-1.39,5.75,5.75,0,0,0-1.15-1.69A5.9,5.9,0,0,0,11,2.46,6.28,6.28,0,0,0,9.76,2a4.8,4.8,0,0,0-1.07-.19l-.94,0a5.48,5.48,0,0,0-.57.05,5.67,5.67,0,0,0-1.08.26A6.22,6.22,0,0,0,3.35,4a6,6,0,0,0-1,1.67A6.08,6.08,0,0,0,2,7.5,5.64,5.64,0,0,0,2,8.73a5.71,5.71,0,0,0,.18.82,6.7,6.7,0,0,0,.58,1.35.18.18,0,0,1,0,.16l-.9,2.68Z"/><path class="cls-1" d="M3.34,12.68l.12-.39c.15-.45.29-.9.45-1.35a.21.21,0,0,0,0-.2l-.22-.37A4.88,4.88,0,0,1,3.1,9,5,5,0,0,1,3,7.5a4.92,4.92,0,0,1,1-2.67,5.25,5.25,0,0,1,1.7-1.48,5.34,5.34,0,0,1,1.22-.48,4.47,4.47,0,0,1,1-.13,6.3,6.3,0,0,1,1,0,4.29,4.29,0,0,1,.6.13,4.82,4.82,0,0,1,1.3.56,5.18,5.18,0,0,1,1.43,1.29,5.4,5.4,0,0,1,.9,1.87,3.86,3.86,0,0,1,.11.68c0,.31,0,.63,0,1A4.38,4.38,0,0,1,13,9.35a5.05,5.05,0,0,1-.86,1.6,5.17,5.17,0,0,1-1.46,1.26,5.28,5.28,0,0,1-1.53.59,2.76,2.76,0,0,1-.49.07,5.07,5.07,0,0,1-.55,0,4.11,4.11,0,0,1-.7,0,4.94,4.94,0,0,1-.94-.22,5,5,0,0,1-1.1-.52.21.21,0,0,0-.19,0l-1.75.56ZM6.13,5H6.05a.48.48,0,0,0-.38.14,1.55,1.55,0,0,0-.21.23,1.63,1.63,0,0,0-.34,1.36,2.63,2.63,0,0,0,.34.87A7.66,7.66,0,0,0,6.85,9.35a4.59,4.59,0,0,0,1.07.75,6.86,6.86,0,0,0,1.37.51,1.4,1.4,0,0,0,.61.07,1.77,1.77,0,0,0,.93-.4,1,1,0,0,0,.33-.47,2.63,2.63,0,0,0,.07-.49.2.2,0,0,0-.11-.19l-.07,0c-.29-.14-.58-.29-.88-.42L9.8,8.52a.2.2,0,0,0-.24.07c-.15.19-.31.38-.48.56s-.12.15-.33.08a3.14,3.14,0,0,1-.61-.3A3.69,3.69,0,0,1,6.91,7.77a3.87,3.87,0,0,1-.21-.34.11.11,0,0,1,0-.13c0-.06.08-.12.13-.17a3.48,3.48,0,0,0,.28-.39.29.29,0,0,0,0-.3c0-.1-.08-.21-.13-.31-.13-.32-.27-.63-.41-.94a.18.18,0,0,0-.16-.13Z"/></g></g></svg>