<svg xmlns="http://www.w3.org/2000/svg" viewBox="0 0 70.99 137.13"><defs><style>.cls-1{fill:#be2433;}</style></defs><g id="Layer_2" data-name="Layer 2"><g id="Layer_1-2" data-name="Layer 1"><path class="cls-1" d="M57.26.5l.24,64.76.12,65-.26-.36L71,133.75l.28.08v3.61h-.39l-59.5.09h-.48v-3.78l.36-.1,13.65-3.9-.35.47.17-107.1.5.26L4.75,37.79,4.53,38l-.16-.21L.47,32.86l-.16-.2.19-.17L36.12.43l0,0h0Zm0,0L36.19.6l.06,0L.87,32.89l0-.37,3.91,4.87-.39-.06L24.88,22.87l.51-.36v.62l.17,107.1v.36l-.36.11-13.65,3.9.35-.47v2.92l-.49-.48,59.5.09-.39.39v-2.92l.28.37-13.64-3.92-.27-.08v-.27L57,65.46Z" transform="translate(-0.31 -0.4)"/></g></g></svg>