<svg xmlns="http://www.w3.org/2000/svg" viewBox="0 0 99.66 142.76"><defs><style>.cls-1{fill:#be2433;}</style></defs><g id="Layer_2" data-name="Layer 2"><g id="Layer_1-2" data-name="Layer 1"><path class="cls-1" d="M42.44,142.91a70,70,0,0,1-19.11-2.36,41.8,41.8,0,0,1-8.93-3.65,38.21,38.21,0,0,1-7.7-5.8,21.9,21.9,0,0,1-5.31-8,17.66,17.66,0,0,1-.55-9.56,14,14,0,0,1,1.82-4.47A13.57,13.57,0,0,1,6,105.53a15.3,15.3,0,0,1,9.16-2.72h0l7.81,1h.1v.1l0,31.21L23,135c4.65,2.26,9.93,2.83,15.07,2.89A30.74,30.74,0,0,0,53,134.57a23.57,23.57,0,0,0,10.23-11.15,41.27,41.27,0,0,0,3.27-15,63.55,63.55,0,0,0-1-15.4,37.74,37.74,0,0,0-2.26-7.36,25.94,25.94,0,0,0-4-6.5,22.35,22.35,0,0,0-13-7.58A36.31,36.31,0,0,0,38.51,71h-8.1V65.52h6.86a35.1,35.1,0,0,0,6.43-.31,15.77,15.77,0,0,0,5.86-2.4,20.56,20.56,0,0,0,4.68-4.35,27.14,27.14,0,0,0,5.26-11.6A54.92,54.92,0,0,0,60.55,34a45.21,45.21,0,0,0-2-12.73A27.36,27.36,0,0,0,56,15.42a23.07,23.07,0,0,0-4.07-4.9A17.63,17.63,0,0,0,40.33,5.85a29.8,29.8,0,0,0-6.39.5,28.16,28.16,0,0,0-6.11,1.79l0,0h0L26,8.75l.32-.45V39.89L26,40a32.94,32.94,0,0,1-6.62,1,19.66,19.66,0,0,1-6.68-.75,13.6,13.6,0,0,1-9.07-9.43A18.2,18.2,0,0,1,5,17.62a29,29,0,0,1,9-9.75,38,38,0,0,1,12-5.61,59.36,59.36,0,0,1,13.1-2A86.8,86.8,0,0,1,65.46,2.82,56.77,56.77,0,0,1,71.74,5a47.71,47.71,0,0,1,5.92,3,40.47,40.47,0,0,1,10,8.67A29.45,29.45,0,0,1,93.6,28.47a29.94,29.94,0,0,1,.8,6.6,31.28,31.28,0,0,1-.56,6.62A28.28,28.28,0,0,1,83.46,58.26a28.91,28.91,0,0,1-5.76,3.3,78.12,78.12,0,0,1-12.42,4.52,49.12,49.12,0,0,1-6.49,1.33c-1.1.16-2.2.18-3.29.29l-3.29.3v-.4a40.71,40.71,0,0,1,4.54.3c1.5.2,3,.45,4.48.71,3,.52,5.94,1.16,8.86,2a47.81,47.81,0,0,1,8.51,3.16,51.15,51.15,0,0,1,7.88,4.49,31.15,31.15,0,0,1,6.7,6.11,33.62,33.62,0,0,1,4.55,7.85,34.83,34.83,0,0,1,2,17.85,31,31,0,0,1-7.25,16.38A39.6,39.6,0,0,1,78,137a68.48,68.48,0,0,1-17.45,4.69A127,127,0,0,1,42.44,142.91Zm0,0a126.76,126.76,0,0,0,18.06-1.23,68.66,68.66,0,0,0,17.42-4.74,39.61,39.61,0,0,0,14.45-10.63A31.05,31.05,0,0,0,99.54,110a34.72,34.72,0,0,0-2.05-17.74A33.54,33.54,0,0,0,93,84.49a31.07,31.07,0,0,0-6.65-6A51.51,51.51,0,0,0,78.45,74,47.46,47.46,0,0,0,70,70.89c-2.91-.78-5.86-1.41-8.83-1.92-1.49-.25-3-.5-4.47-.7A42.1,42.1,0,0,0,52.2,68l0-.39c8.83-.25,17.37-2.79,25.33-6.47a28.17,28.17,0,0,0,5.66-3.27,26.41,26.41,0,0,0,4.64-4.57,26.06,26.06,0,0,0,5.5-11.71,30.24,30.24,0,0,0,.53-6.51,28.33,28.33,0,0,0-6.65-18,39.6,39.6,0,0,0-9.87-8.51,47,47,0,0,0-5.84-2.95,56.62,56.62,0,0,0-6.2-2.12A85.91,85.91,0,0,0,39.22,1,58.18,58.18,0,0,0,26.29,3,37.06,37.06,0,0,0,14.53,8.54,28.33,28.33,0,0,0,5.8,18,17.35,17.35,0,0,0,4.47,30.52,12.69,12.69,0,0,0,13,39.3a18.42,18.42,0,0,0,6.37.69,32.3,32.3,0,0,0,6.42-.94l-.36.47V8l.32-.11,1.76-.58-.07,0a28.92,28.92,0,0,1,6.37-1.86,31,31,0,0,1,6.59-.5,19.08,19.08,0,0,1,6.5,1.37,18.46,18.46,0,0,1,5.6,3.56A24,24,0,0,1,56.68,15a28,28,0,0,1,2.71,6,46.06,46.06,0,0,1,2,13,56.12,56.12,0,0,1-1.1,13A28.1,28.1,0,0,1,54.8,58.92,21.7,21.7,0,0,1,50,63.39a16.69,16.69,0,0,1-6.13,2.5,18.33,18.33,0,0,1-3.3.3H30.74l.33-.33v4.88l-.32-.33h7.77A37.17,37.17,0,0,1,46.3,71a23.74,23.74,0,0,1,7.33,2.76,23.41,23.41,0,0,1,6,5,26.29,26.29,0,0,1,4.12,6.65A37.85,37.85,0,0,1,66,92.9a63.77,63.77,0,0,1,1,15.54,42,42,0,0,1-3.35,15.17,24,24,0,0,1-10.44,11.31,31.08,31.08,0,0,1-15.12,3.28c-5.16-.07-10.48-.65-15.2-3l-.08,0v-.1l0-31.21.1.11-7.8-1h0a15.06,15.06,0,0,0-9,2.66,13.17,13.17,0,0,0-3.27,3.47A13.6,13.6,0,0,0,1,113.57a17.48,17.48,0,0,0,.53,9.48,21.64,21.64,0,0,0,5.25,8,38.07,38.07,0,0,0,7.67,5.81,41.63,41.63,0,0,0,8.9,3.67A69.93,69.93,0,0,0,42.44,142.91Z" transform="translate(-0.43 -0.14)"/></g></g></svg>