<svg xmlns="http://www.w3.org/2000/svg" viewBox="0 0 97.43 140.07"><defs><style>.cls-1{fill:#be2433;}</style></defs><g id="Layer_2" data-name="Layer 2"><g id="Layer_1-2" data-name="Layer 1"><path class="cls-1" d="M95.89,40.49A36.42,36.42,0,0,1,92.63,56c-2.21,4.87-5.75,9-9.54,12.72a65.16,65.16,0,0,1-12.78,9.54c-4.66,2.6-9.39,5-14.14,7.44s-9.58,4.69-14.36,7a116.25,116.25,0,0,0-13.72,8.14A76,76,0,0,0,15.81,111a38.64,38.64,0,0,0-8.32,13.43l-.16-.23,72.18-.09-.27.23a38.11,38.11,0,0,1,3.69-12.91,43,43,0,0,1,3.39-5.83A16.53,16.53,0,0,1,88.54,103L91,100.74l.09-.08h6.28V101l.06,39v.36h-.37L.5,140.47H0v-6.22c0-1.91,0-3.82.08-5.76A50,50,0,0,1,2,117.1,55.6,55.6,0,0,1,12.9,96.93,143.86,143.86,0,0,1,29.2,80.76l8.57-7.62c2.89-2.5,5.69-5.07,8.39-7.77a75.24,75.24,0,0,0,7.58-8.5A52,52,0,0,0,59.41,47a36.16,36.16,0,0,0,2.82-11,42.5,42.5,0,0,0-.53-11.32,25.93,25.93,0,0,0-4.29-10.39,21,21,0,0,0-8.65-7A23.57,23.57,0,0,0,37.65,5.73,39.72,39.72,0,0,0,32,6.45,29.37,29.37,0,0,0,26.55,8h0l-1.76.59L25,8.3,24.9,39.52v.16l-.16,0a30.1,30.1,0,0,1-10,.86,13.89,13.89,0,0,1-8.93-4.24,14.2,14.2,0,0,1-3.72-9.16A17,17,0,0,1,4.31,17.5,26.54,26.54,0,0,1,10.89,10,40.5,40.5,0,0,1,15,7.1a38.86,38.86,0,0,1,4.43-2.32A56.91,56.91,0,0,1,38.82.55c3.32-.2,6.65-.17,10-.05a94.31,94.31,0,0,1,9.94.87,55.88,55.88,0,0,1,19,5.88,34.3,34.3,0,0,1,13.87,14A41,41,0,0,1,95.89,40.49Zm0,0a41,41,0,0,0-4.37-19.25A34.25,34.25,0,0,0,77.65,7.34,55.89,55.89,0,0,0,58.71,1.53,94.11,94.11,0,0,0,48.79.69c-3.32-.12-6.65-.13-10,.08A56.47,56.47,0,0,0,19.5,5a37.43,37.43,0,0,0-4.39,2.31,39.56,39.56,0,0,0-4,2.89A26.29,26.29,0,0,0,4.6,17.66a16.76,16.76,0,0,0-2.13,9.5,13.91,13.91,0,0,0,3.65,8.92,13.5,13.5,0,0,0,8.7,4.1,29.85,29.85,0,0,0,9.82-.87l-.17.21,0-31.22V8.12l.18-.06,1.75-.59h0a30.58,30.58,0,0,1,5.57-1.56,42.07,42.07,0,0,1,5.71-.74A24.28,24.28,0,0,1,49,6.78,21.79,21.79,0,0,1,57.91,14a26.56,26.56,0,0,1,4.42,10.62A39.45,39.45,0,0,1,63,30.37a41.17,41.17,0,0,1-.1,5.77A36.84,36.84,0,0,1,60.05,47.3a51.85,51.85,0,0,1-5.72,10,74.41,74.41,0,0,1-7.63,8.61c-2.7,2.72-5.52,5.32-8.4,7.83l-8.55,7.63A144,144,0,0,0,13.58,97.5a54.65,54.65,0,0,0-10.7,19.87,49.07,49.07,0,0,0-1.82,11.17C1,130.43,1,132.33,1,134.25V140l-.49-.49,96.56.13-.36.36,0-39,.31.32H91.21l.21-.08L89,103.46a16,16,0,0,0-2.15,2.48,43.74,43.74,0,0,0-3.36,5.74,37.67,37.67,0,0,0-3.67,12.72l0,.24h-.24l-72.18-.1H7.09l.08-.22a38.75,38.75,0,0,1,8.42-13.52A76.08,76.08,0,0,1,28,100.66a119.54,119.54,0,0,1,13.77-8.12c4.79-2.33,9.62-4.57,14.37-7s9.5-4.82,14.15-7.4A64.93,64.93,0,0,0,83,68.66c3.8-3.7,7.34-7.81,9.56-12.67A36.45,36.45,0,0,0,95.89,40.49Z" transform="translate(0 -0.41)"/></g></g></svg>