<svg xmlns="http://www.w3.org/2000/svg" viewBox="0 0 11.4 20.21"><defs><style>.cls-1{fill:#fff;}</style></defs><g id="Layer_2" data-name="Layer 2"><g id="Layer_1-2" data-name="Layer 1"><path class="cls-1" d="M8.42,10.05,6.88,11.56l-4,4L.42,18a1.25,1.25,0,0,0-.06,1.8,1.27,1.27,0,0,0,1.84,0l3.61-3.6L10,12l1-1A1.32,1.32,0,0,0,11,9.12c-2.21-2.19-4.4-4.39-6.6-6.58L2.2.4A1.27,1.27,0,0,0,.63.18,1.22,1.22,0,0,0,.09,1.69a2.76,2.76,0,0,0,.65.84c1,1,2,2,3,3L8.1,9.86A2.7,2.7,0,0,0,8.42,10.05Z"/></g></g></svg>