<svg xmlns="http://www.w3.org/2000/svg" viewBox="0 0 16.94 18.96"><defs><style>.cls-1{fill:#333;}</style></defs><g id="Layer_2" data-name="Layer 2"><g id="Layer_1-2" data-name="Layer 1"><path class="cls-1" d="M3.31,2.46V2.17l-.07,0c-.5-.19-.59-.32-.6-.84a5.76,5.76,0,0,1,0-.59A.65.65,0,0,1,3.38,0h2A.33.33,0,0,1,5.59.3a.29.29,0,0,1-.25.25A2.48,2.48,0,0,1,5,.57H3.25v.91l0,0,0,0,.21,0H13.68a5.16,5.16,0,0,0,0-1H7a2.32,2.32,0,0,1-.46,0,.24.24,0,0,1-.2-.28A.24.24,0,0,1,6.6,0h6.85a1.51,1.51,0,0,1,.3,0,.56.56,0,0,1,.48.41,2.61,2.61,0,0,1,0,1.21c-.06.32-.32.43-.61.5v.29a.58.58,0,0,0,.14,0h2.08c.72,0,1.05.32,1.07,1a7.49,7.49,0,0,1-1.1,4.26A6.57,6.57,0,0,1,12,10.65a1.8,1.8,0,0,0-.49.22,4.71,4.71,0,0,1-1.15.61.75.75,0,0,0-.42.38,3,3,0,0,0-.24,2.36c.06.19.13.37.21.6h.62a1.21,1.21,0,0,1,1.15.83,1.93,1.93,0,0,1,.06.42c0,.15,0,.3,0,.47a1.91,1.91,0,0,0,.67.06,2.33,2.33,0,0,1,.53.07.41.41,0,0,1,.32.4c0,.47,0,.93,0,1.4a.49.49,0,0,1-.49.48H4.19a.47.47,0,0,1-.46-.46c0-.46,0-.93,0-1.4a.43.43,0,0,1,.34-.43,1.84,1.84,0,0,1,.41-.06c.24,0,.48,0,.76,0,0-.19,0-.35,0-.51a1.22,1.22,0,0,1,1.24-1.27h.6A3.7,3.7,0,0,0,7.41,13,3.39,3.39,0,0,0,7,11.8a.59.59,0,0,0-.33-.29,5.25,5.25,0,0,1-1.26-.67,1.63,1.63,0,0,0-.47-.2A7,7,0,0,1,2,8.94,6.88,6.88,0,0,1,.26,5.78,8.8,8.8,0,0,1,0,3.44a1,1,0,0,1,1-1C1.77,2.47,2.51,2.46,3.31,2.46Zm.61-.33a1,1,0,0,0,0,.12c0,1.55,0,3.1,0,4.65A4.16,4.16,0,0,0,5.05,9.73,4.45,4.45,0,0,0,9.4,11.17,4.49,4.49,0,0,0,13,7c.05-1.55,0-3.1,0-4.65a1.41,1.41,0,0,0,0-.18ZM13.6,7.62c.12-.14.26-.27.36-.41.2-.29.38-.6.57-.89a.29.29,0,0,1,.4-.11.28.28,0,0,1,.07.37,4.47,4.47,0,0,1-1.13,1.55,4.3,4.3,0,0,0-.64.55,11.71,11.71,0,0,0-.62,1.13,5.86,5.86,0,0,0,2.52-2,6.9,6.9,0,0,0,1.23-4.38c0-.33-.09-.41-.45-.41h-2l-.29,0v.69H14c.34,0,.67,0,1,0s.6.17.59.47a5.22,5.22,0,0,1-.16,1.11c0,.07-.17.15-.26.16a.27.27,0,0,1-.25-.25.44.44,0,0,1,0-.16c0-.24.07-.49.11-.75-.49,0-1,0-1.45,0ZM4.27,18.37h8.37a3,3,0,0,0,0-1.17c-1-.07-8,0-8.36,0ZM3.3,3H1c-.32,0-.4.09-.41.41A7.72,7.72,0,0,0,.77,5.53a6.08,6.08,0,0,0,2.8,3.9,4.13,4.13,0,0,0,.76.37c-.2-.37-.37-.69-.55-1a1.35,1.35,0,0,0-.25-.28,5,5,0,0,1-1.25-1.3,6.44,6.44,0,0,1-1-2.85.55.55,0,0,1,.5-.62,1.82,1.82,0,0,1,.33,0H3.3Zm7.86,13.55c0-.18,0-.32,0-.46a1.11,1.11,0,0,0-.05-.25.59.59,0,0,0-.57-.47H6.37a.6.6,0,0,0-.53.42,1.4,1.4,0,0,0,0,.76ZM7.68,11.81c.09.3.19.59.26.89a5.65,5.65,0,0,1,0,.59,4.08,4.08,0,0,1-.3,1.53H9.26a3.83,3.83,0,0,1,0-3ZM1.88,4.32A5.34,5.34,0,0,0,3.39,7.66c-.13-1.15,0-2.23-.09-3.35H1.88Z"/><path class="cls-1" d="M8.47,8.28c-.25.13-.47.26-.7.36a1,1,0,0,1-.49.07A.59.59,0,0,1,6.76,8c0-.21.06-.42.09-.63a.43.43,0,0,0-.16-.48,4.16,4.16,0,0,1-.42-.42.63.63,0,0,1,.37-1.09l.87-.17.3-.61a.7.7,0,0,1,.66-.49.73.73,0,0,1,.67.5l.29.6c.28,0,.58.1.88.17a.64.64,0,0,1,.36,1.09,3.33,3.33,0,0,1-.42.42.45.45,0,0,0-.16.49c0,.18.06.36.08.54a.65.65,0,0,1-1,.71C9,8.55,8.73,8.41,8.47,8.28Zm0-3.66c-.16.3-.27.51-.37.72a.77.77,0,0,1-.67.5,5.4,5.4,0,0,0-.58.09,1.53,1.53,0,0,0-.25.13l.64.61a.67.67,0,0,1,.2.7,3.82,3.82,0,0,0-.11.57,1.16,1.16,0,0,0,0,.28c.28-.14.53-.26.77-.4a.66.66,0,0,1,.68,0l.57.29.27.08a2.6,2.6,0,0,0-.11-.77.75.75,0,0,1,.24-.8c.19-.18.37-.37.58-.58a.88.88,0,0,0-.18-.1c-.21,0-.42-.08-.63-.1a.77.77,0,0,1-.68-.49c0-.12-.11-.25-.18-.38S8.57,4.8,8.45,4.62Z"/></g></g></svg>