<svg xmlns="http://www.w3.org/2000/svg" viewBox="0 0 21.79 24.39"><defs><style>.cls-1{fill:#fff;}</style></defs><g id="Layer_2" data-name="Layer 2"><g id="Layer_1-2" data-name="Layer 1"><path class="cls-1" d="M4.25,3.16V2.79s0-.06-.08-.07c-.65-.24-.76-.4-.77-1.07,0-.26,0-.51,0-.77A.84.84,0,0,1,4.35,0h2.5a.42.42,0,0,1,.34.38A.34.34,0,0,1,6.87.7a2.69,2.69,0,0,1-.49,0c-.72,0-1.45,0-2.2,0V1.91l0,0a.05.05,0,0,0,0,0l.27,0H17.6a7.33,7.33,0,0,0,0-1.25H17c-2.66,0-5.33,0-8,0a3,3,0,0,1-.6,0A.31.31,0,0,1,8.17.32.32.32,0,0,1,8.49,0H17.3a2.38,2.38,0,0,1,.38,0,.72.72,0,0,1,.63.53,3.57,3.57,0,0,1,0,1.56c-.08.41-.42.56-.79.64v.37a1,1,0,0,0,.18.05H20.4a1.2,1.2,0,0,1,1.38,1.35A9.71,9.71,0,0,1,20.37,10a8.51,8.51,0,0,1-5,3.7,2.47,2.47,0,0,0-.64.29,5.82,5.82,0,0,1-1.48.78,1,1,0,0,0-.54.49,3.8,3.8,0,0,0-.3,3c.07.24.16.47.26.77.26,0,.53,0,.8,0A1.54,1.54,0,0,1,15,20.14a1.84,1.84,0,0,1,.08.53c0,.2,0,.39,0,.61a2.53,2.53,0,0,0,.86.07c.23,0,.47,0,.69.09A.52.52,0,0,1,17,22c0,.59,0,1.19,0,1.79a.64.64,0,0,1-.62.63h-11a.62.62,0,0,1-.6-.59c0-.6,0-1.2,0-1.8a.52.52,0,0,1,.43-.55,2.35,2.35,0,0,1,.53-.09c.31,0,.61,0,1,0,0-.23,0-.44,0-.65a1.56,1.56,0,0,1,1.59-1.63c.24,0,.47,0,.76,0a4.71,4.71,0,0,0,.43-2.29A4.17,4.17,0,0,0,9,15.19a.72.72,0,0,0-.43-.39A6.81,6.81,0,0,1,7,13.94a2.38,2.38,0,0,0-.59-.25A9.14,9.14,0,0,1,2.62,11.5,8.7,8.7,0,0,1,.34,7.44a11.31,11.31,0,0,1-.34-3A1.26,1.26,0,0,1,1.32,3.15C2.28,3.18,3.24,3.16,4.25,3.16Zm.8-.42a1.17,1.17,0,0,0,0,.15c0,2,0,4,0,6A5.3,5.3,0,0,0,6.5,12.51a5.7,5.7,0,0,0,5.59,1.86A5.78,5.78,0,0,0,16.76,9c.07-2,0-4,0-6,0-.07,0-.14,0-.23ZM17.49,9.8A4.58,4.58,0,0,0,18,9.27c.26-.37.48-.76.73-1.14A.37.37,0,0,1,19.2,8a.35.35,0,0,1,.1.47,5.78,5.78,0,0,1-1.46,2,5.09,5.09,0,0,0-.81.71,13.88,13.88,0,0,0-.81,1.45,7.49,7.49,0,0,0,3.24-2.56,8.81,8.81,0,0,0,1.59-5.63c0-.43-.12-.53-.58-.53-.85,0-1.7,0-2.55,0a2.46,2.46,0,0,0-.37,0v.88H19.3c.45,0,.76.22.76.61a6.42,6.42,0,0,1-.21,1.43c0,.09-.21.19-.33.2s-.29-.14-.33-.32a.82.82,0,0,1,0-.21c.05-.31.09-.62.14-1-.63,0-1.22,0-1.87,0ZM5.5,23.63H16.26a4,4,0,0,0,0-1.51C15,22,6,22.08,5.5,22.17ZM4.25,3.89c-1,0-2,0-3,0-.41,0-.51.11-.52.53A9.4,9.4,0,0,0,1,7.12a7.84,7.84,0,0,0,3.61,5,4.59,4.59,0,0,0,1,.47c-.26-.47-.47-.88-.71-1.28A1.2,1.2,0,0,0,4.54,11a6.43,6.43,0,0,1-1.6-1.69A8.35,8.35,0,0,1,1.7,5.62a.71.71,0,0,1,.64-.8,2.06,2.06,0,0,1,.43,0H4.25ZM14.36,21.33c0-.24,0-.42,0-.59a1.65,1.65,0,0,0-.07-.32.76.76,0,0,0-.73-.61H8.62a3.1,3.1,0,0,0-.43,0,.71.71,0,0,0-.67.54,1.77,1.77,0,0,0,0,1ZM9.88,15.19a11.59,11.59,0,0,1,.33,1.15,6.19,6.19,0,0,1,0,.76,4.78,4.78,0,0,1-.38,2c.7,0,1.34,0,2,0a5,5,0,0,1,0-3.87ZM2.42,5.56a6.91,6.91,0,0,0,1.94,4.3c-.17-1.48,0-2.88-.11-4.32H2.77Z"/><path class="cls-1" d="M10.9,10.65a9.61,9.61,0,0,1-.9.46,1.39,1.39,0,0,1-.63.1.75.75,0,0,1-.67-.88c0-.27.07-.54.12-.8a.61.61,0,0,0-.21-.63,5.5,5.5,0,0,1-.54-.54A.81.81,0,0,1,8.54,7c.37-.08.74-.14,1.12-.21.13-.27.27-.53.39-.79a.91.91,0,0,1,.85-.64.94.94,0,0,1,.85.65l.38.77c.36.07.75.13,1.13.22a.82.82,0,0,1,.46,1.41,4.51,4.51,0,0,1-.54.53.59.59,0,0,0-.2.63c0,.23.08.46.1.7a.84.84,0,0,1-1.24.91C11.53,11,11.23,10.83,10.9,10.65Zm0-4.71c-.2.39-.35.66-.47.94a1,1,0,0,1-.87.64,6.46,6.46,0,0,0-.75.11,1.72,1.72,0,0,0-.32.17c.31.29.58.53.83.78a.89.89,0,0,1,.26.9c-.06.24-.11.49-.15.74a2.29,2.29,0,0,0,0,.36l1-.52a.87.87,0,0,1,.88,0c.23.13.48.25.72.37.09,0,.19.06.35.11a3.4,3.4,0,0,0-.14-1,1,1,0,0,1,.3-1c.25-.23.48-.47.75-.74a1.19,1.19,0,0,0-.23-.13,7.36,7.36,0,0,0-.8-.12,1,1,0,0,1-.88-.63c-.07-.17-.15-.33-.23-.49S11,6.17,10.87,5.94Z"/></g></g></svg>