<svg xmlns="http://www.w3.org/2000/svg" viewBox="0 0 16.17 16.11"><defs><style>.cls-1{fill:#fff;}</style></defs><g id="Layer_2" data-name="Layer 2"><g id="Layer_1-2" data-name="Layer 1"><path class="cls-1" d="M8.08,0h6.1a1.94,1.94,0,0,1,1.19.38,2.07,2.07,0,0,1,.74,1.14,3.16,3.16,0,0,1,.06.81V14a2,2,0,0,1-1.48,2,1.69,1.69,0,0,1-.38.07H1.87a1.64,1.64,0,0,1-1-.35A2.07,2.07,0,0,1,0,14q0-6,0-12a2,2,0,0,1,1.37-2A.76.76,0,0,1,1.62,0a4.35,4.35,0,0,1,.51,0Zm2.57,2.37-.1,0H9.07A4.62,4.62,0,0,0,8,2.49,1.93,1.93,0,0,0,6.68,4c-.07.55,0,1.1-.06,1.66v.44h-.8c-.35,0-.35,0-.36.38V7.62c0,.4,0,.4.38.4h.79v.42c0,1.64,0,3.27,0,4.9,0,.14,0,.29.06.41a13.84,13.84,0,0,0,2.25,0V8.37A.6.6,0,0,1,9,7.94h1.46a5.63,5.63,0,0,0,.15-1.86H8.94c0-.47,0-.91,0-1.35a.42.42,0,0,1,.46-.43h1.24Z"/></g></g></svg>