<svg xmlns="http://www.w3.org/2000/svg" viewBox="0 0 16.1 16.17"><defs><style>.cls-1{fill:#fff;}</style></defs><g id="Layer_2" data-name="Layer 2"><g id="Layer_1-2" data-name="Layer 1"><path class="cls-1" d="M4.65,5.84a4.09,4.09,0,0,0,5.48,5.83A4,4,0,0,0,12,9a4.36,4.36,0,0,0-.63-3.23l.26,0h4.27c.1,0,.17.06.17.17v7a3.2,3.2,0,0,1-2.55,3.17,2.33,2.33,0,0,1-.53.07H3.11a3,3,0,0,1-1.94-.73,3.46,3.46,0,0,1-1.15-2,1.3,1.3,0,0,1,0-.34V6c0-.18.05-.21.24-.22H4.29C4.41,5.76,4.55,5.71,4.65,5.84Z"/><path class="cls-1" d="M3.11,4V.2c0-.15.08-.2.23-.2s.23.05.24.19a2.43,2.43,0,0,1,0,.27V3.94c.21.14.4.07.62.08V.2A.18.18,0,0,1,4.39,0h8.33A3.24,3.24,0,0,1,16,2.64a5.23,5.23,0,0,1,.06,1V5.26l-.27,0H11.21a.68.68,0,0,1-.45-.17,4.12,4.12,0,0,0-4.19-.77,3.68,3.68,0,0,0-1.3.82.47.47,0,0,1-.39.11H.29L0,5.27V3.2A3.19,3.19,0,0,1,1.12.79,1.53,1.53,0,0,1,1.39.64V4h.54c.12-.1.08-.23.08-.34V.25L2.47.11c0,.47,0,.89,0,1.32s0,.85,0,1.28V4ZM13.27,1.39c-.28,0-.57,0-.85,0a.47.47,0,0,0-.51.51c0,.57,0,1.14,0,1.71a.52.52,0,0,0,.52.51h1.67a.53.53,0,0,0,.52-.47c0-.58,0-1.16,0-1.73a.54.54,0,0,0-.56-.52Z"/><path class="cls-1" d="M11.21,8.2A3.11,3.11,0,0,1,8,11.34,3.08,3.08,0,0,1,4.86,8.22,3.15,3.15,0,0,1,8,5,3.19,3.19,0,0,1,11.21,8.2Zm-5.46,0a2.3,2.3,0,1,0,4.6-.06A2.25,2.25,0,0,0,8,5.86,2.23,2.23,0,0,0,5.75,8.2Z"/></g></g></svg>