<svg xmlns="http://www.w3.org/2000/svg" viewBox="0 0 101.86 56.75"><defs><style>.cls-1,.cls-3{fill:#fff;}.cls-1{opacity:0.6;}.cls-2{opacity:0.3;}.cls-4{opacity:0.9;}</style></defs><g id="Layer_2" data-name="Layer 2"><g id="Layer_1-2" data-name="Layer 1"><path class="cls-1" d="M60,1.75,42.88,47.58v0h0v0l-3.3,8.77a.49.49,0,0,1-.46.33H37.75c-5.4,0-11.27-4.39-13.09-9.78h0l-12-36.78C11,5.12,5.55,1,.49,1A.5.5,0,0,1,0,.51.49.49,0,0,1,.49,0H17.56c5.42,0,11.3,4.4,13.1,9.8l0,.07L42.44,46,59.11,1.4a.5.5,0,1,1,.93.35ZM13.83,56.25a.49.49,0,0,1-.5.49H4a.49.49,0,0,1-.49-.49.5.5,0,0,1,.49-.5h1a3.13,3.13,0,0,0,3.13-3.13h0V3.21a.5.5,0,0,1,1,0V52.62a3.13,3.13,0,0,0,3.13,3.13h1A.5.5,0,0,1,13.83,56.25Zm67.16,0a.49.49,0,0,1-.49.49H55a.5.5,0,0,1-.5-.49.51.51,0,0,1,.5-.5h1a3.13,3.13,0,0,0,3.13-3.13V.51a.5.5,0,0,1,.5-.49H80.5A.49.49,0,0,1,81,.51a.49.49,0,0,1-.49.5h-1a3.13,3.13,0,0,0-3.13,3.13V52.62a3.13,3.13,0,0,0,3.13,3.13h1A.5.5,0,0,1,81,56.25Z"/><g class="cls-2"><path class="cls-3" d="M85.15,1H76.26V55.75h8.89A15.74,15.74,0,0,0,100.87,40a.5.5,0,0,1,1,0V56.25a.49.49,0,0,1-.49.49H54.9l-.07,0a.47.47,0,0,1-.36-.47.51.51,0,0,1,.42-.49h.94a3.37,3.37,0,0,0,.55,0,3.17,3.17,0,0,0,2.74-3.11S59.13,0,59.13,0h42.24a.5.5,0,0,1,.49.5V16.74a.5.5,0,0,1-1,0A15.75,15.75,0,0,0,85.15,1Zm3.13,32V32a3.15,3.15,0,0,0-3.14-3.14h0a.49.49,0,0,1-.49-.49.5.5,0,0,1,.49-.5h0a3.14,3.14,0,0,0,3.14-3.13v-1a.49.49,0,0,1,.49-.5.5.5,0,0,1,.5.5V33a.5.5,0,0,1-.5.49A.49.49,0,0,1,88.28,33Z"/></g><g class="cls-4"><path class="cls-3" d="M45.44,56.25a.49.49,0,0,1-.49.5H28.72a.5.5,0,0,1-.5-.5V40a.5.5,0,0,1,.5-.5.49.49,0,0,1,.49.5C29.14,49.77,37,55.05,45.44,56.25ZM37.29,10.42c.59,10.47,10.17,9.63,17.93,9.36,16-.49,24.69,20.47,13.16,31.47a18.34,18.34,0,0,1-12.87,5.5h-.35a.79.79,0,0,1-.44-.06.51.51,0,0,1-.24-.47.57.57,0,0,1,.26-.41.85.85,0,0,1,.38-.05h.36a7.6,7.6,0,0,0,.82,0,4.8,4.8,0,0,0,.52-.09C67.62,54.06,66.91,37,55.23,36.92c-13.29,1.54-26.57-3.13-27-18.42C28,8.67,36.61,0,46.44,0,46.68,0,56.73,0,57,0H73.22a.43.43,0,0,1,.37.14.8.8,0,0,1,.07.32c-.12.47.06,5.31.14,10,0,.93,0,1.85,0,2.68,0,.49,0,.95,0,1.37a5.75,5.75,0,0,1-.5,2.67c-.21.18-.54-.28-.55-.45s-.06-.36-.07-.54,0-.33,0-.48A15.09,15.09,0,0,0,69.63,7.4a16.09,16.09,0,0,0-3.25-3.24,14.73,14.73,0,0,0-5.27-2.58,17.53,17.53,0,0,0-2.18-.44A15.67,15.67,0,0,0,57,1C49.19,1,37.67-.72,37.29,10.42Z"/></g><path class="cls-3" d="M28.22,52.48V40.1a.51.51,0,0,1,.16-.44.53.53,0,0,1,.32-.13.47.47,0,0,1,.34.11c.18.19.17.22.17.64a15.85,15.85,0,0,0,.57,4.15,14.27,14.27,0,0,0,3.37,5.94,16.08,16.08,0,0,0,2.21,2,20.24,20.24,0,0,0,4.39,2.42l.39.16.14-.39A18.68,18.68,0,0,1,36,52.25a14,14,0,0,1-6.31-11c0-.45,0-.92-.07-1.37a.88.88,0,0,0-.9-.81.9.9,0,0,0-.87.79,4,4,0,0,0,0,.49V52.05Z"/><path class="cls-3" d="M74.16,8.11c0-1.09,0-2.17-.06-3.26s0-2.26-.07-3.4a3.26,3.26,0,0,1,0-.54A1,1,0,0,0,73.94,0h-.69c.51,0,.42.39.37,1.32l.12,5.18c0,.72.05,1.51.05,2.24,0,1.9,0,3.23,0,5.13,0,.53-.13,3.64-.72,3.31-.1-.05-.48-.15-.42-1.49a15.35,15.35,0,0,0-3.91-9.36A15.37,15.37,0,0,0,60.84,1.5c-.46-.11-1.5-.32-1.71-.34l0,.4.4.07a14.87,14.87,0,0,1,8.31,4.3,14.91,14.91,0,0,1,4.46,10.58,1.19,1.19,0,0,0,.42.91.6.6,0,0,0,1-.16,2.12,2.12,0,0,0,.22-.7c.09-.75.15-1.5.22-2.25C74.17,14.2,74.16,8.26,74.16,8.11Z"/></g></g></svg>