<svg xmlns="http://www.w3.org/2000/svg" viewBox="0 0 18.49 24.41"><defs><style>.cls-1{fill:#fff;}</style></defs><g id="Layer_2" data-name="Layer 2"><g id="Layer_1-2" data-name="Layer 1"><path class="cls-1" d="M3.69,16.27l-.36-.13a1.3,1.3,0,0,1-1-1,3.64,3.64,0,0,1-.16-.63,1.07,1.07,0,0,0-.5-.75c-.19-.13-.37-.28-.56-.42a1.15,1.15,0,0,1-.51-1.07,5.6,5.6,0,0,1,.1-.81,1.14,1.14,0,0,0-.18-.93,6.11,6.11,0,0,1-.36-.61,1.25,1.25,0,0,1,0-1.34,4.48,4.48,0,0,1,.28-.47A1.29,1.29,0,0,0,.7,6.94a3.91,3.91,0,0,1-.07-.76,1.13,1.13,0,0,1,.48-1c.22-.19.46-.35.7-.52a.9.9,0,0,0,.37-.58c0-.25.13-.49.18-.73a1.28,1.28,0,0,1,1-1c.24-.06.48-.14.73-.18a.92.92,0,0,0,.62-.41c.14-.21.29-.42.45-.62A1.21,1.21,0,0,1,6.42.66,2.4,2.4,0,0,0,8.55.23a1.2,1.2,0,0,1,1.39,0,6.26,6.26,0,0,1,.55.34,1.07,1.07,0,0,0,.93.18c.21-.05.43-.06.64-.09a1.33,1.33,0,0,1,1.32.57l.42.57a1,1,0,0,0,.61.41c.25,0,.49.12.74.18a1.25,1.25,0,0,1,1,1,5.69,5.69,0,0,1,.18.68,1,1,0,0,0,.46.7l.53.38a1.23,1.23,0,0,1,.57,1.16,6.31,6.31,0,0,1-.1.76A1.16,1.16,0,0,0,18,8a4.65,4.65,0,0,1,.36.61,1.2,1.2,0,0,1,0,1.24,6,6,0,0,1-.39.66,1.14,1.14,0,0,0-.17.93c0,.25.08.5.1.75a1.25,1.25,0,0,1-.56,1.17l-.61.45a.92.92,0,0,0-.39.63c0,.21-.11.42-.16.63a1.32,1.32,0,0,1-1,1.06,2.34,2.34,0,0,0-.3.11l.21.49,2.2,4.9a5.44,5.44,0,0,1,.22.5.4.4,0,0,1-.42.57,3.41,3.41,0,0,1-.43-.06l-1.67-.19c-.22.31-.46.65-.69,1s-.31.45-.48.67c-.31.4-.57.37-.8-.1s-.36-.79-.53-1.19c-.68-1.5-1.35-3-2-4.51a1.28,1.28,0,0,0-.12-.22,1.54,1.54,0,0,1-2,0c-.11.23-.21.42-.3.62l-2.24,5a2.59,2.59,0,0,1-.14.29c-.23.46-.5.49-.8.09s-.48-.68-.72-1l-.43-.62-1.91.22c-.07,0-.14,0-.22,0a.39.39,0,0,1-.39-.58c.29-.68.59-1.35.9-2l1.6-3.57A2.49,2.49,0,0,0,3.69,16.27ZM6.35,1.4a.7.7,0,0,0-.69.35c-.11.18-.25.35-.37.53a1.58,1.58,0,0,1-1,.67l-.58.13a.71.71,0,0,0-.64.64c0,.2-.09.39-.13.59a1.49,1.49,0,0,1-.63,1,2.7,2.7,0,0,1-.4.29.88.88,0,0,0-.45,1.14l0,.16A2,2,0,0,1,1.2,8.42c-.58.9-.61.74,0,1.68a2,2,0,0,1,.29,1.5c0,.12-.05.25-.08.37a.76.76,0,0,0,.4.92A1.92,1.92,0,0,1,2,13a1.85,1.85,0,0,1,1,1.46,1,1,0,0,0,1,1,1.88,1.88,0,0,1,1.47,1,2,2,0,0,1,.13.18.79.79,0,0,0,1,.4,4.49,4.49,0,0,1,.64-.1,1.59,1.59,0,0,1,1.08.25c1.06.66.83.65,1.87,0A1.69,1.69,0,0,1,11.31,17l.75.11a.7.7,0,0,0,.75-.31c.62-.86.52-1.08,2-1.35a.74.74,0,0,0,.6-.63c0-.07,0-.14,0-.21A2.05,2.05,0,0,1,16.53,13s.09-.07.14-.09a.81.81,0,0,0,.4-1c0-.11-.05-.21-.07-.32a2,2,0,0,1,.28-1.5c.64-1,.57-.77,0-1.72A2,2,0,0,1,17,6.94c0-.13.05-.25.08-.38a.78.78,0,0,0-.42-.95,2.21,2.21,0,0,1-1.21-1.82.09.09,0,0,0,0,0,.73.73,0,0,0-.67-.67A2.61,2.61,0,0,1,14.49,3,2,2,0,0,1,13,2c-.46-.69-.56-.7-1.35-.55l-.32.06a1.59,1.59,0,0,1-1.14-.25C10,1.14,9.77,1,9.55.89a.54.54,0,0,0-.61,0c-.2.12-.42.23-.61.37a1.71,1.71,0,0,1-1.39.26ZM6,17.92c-.2.45-.4.92-.61,1.38s-.4.89-.61,1.33c-.13.28-.34.37-.56.27s-.25-.28-.14-.56a6.21,6.21,0,0,1,.26-.59l1-2.17-.82-1.1a55.92,55.92,0,0,0-2.36,5.38l1.4-.17a.6.6,0,0,1,.68.31c.26.4.55.79.84,1.19a57.62,57.62,0,0,0,2.39-5.45Zm7.17-.35L14.27,20a2.88,2.88,0,0,1,.19.45.34.34,0,0,1-.22.44.4.4,0,0,1-.48-.16c0-.09-.09-.2-.14-.29L13,19l-.49-1.06-.74-.07L11,17.73l2.47,5.5c.28-.41.56-.75.77-1.12a.81.81,0,0,1,1-.41c.4.07.81.11,1.3.17L14,16.43Z"/><path class="cls-1" d="M10.85,7.3l1.86.23a3.85,3.85,0,0,1,.49.07.68.68,0,0,1,.31,1.21c-.46.44-.92.88-1.4,1.29a.57.57,0,0,0-.21.66c.14.58.26,1.16.37,1.75s-.1.89-.54,1a1.16,1.16,0,0,1-.57-.13c-.51-.27-1-.55-1.51-.85a.65.65,0,0,0-.79,0c-.51.32-1,.59-1.57.87a.68.68,0,0,1-.77,0,.76.76,0,0,1-.31-.86c.11-.58.22-1.17.37-1.75a.6.6,0,0,0-.22-.71c-.47-.4-.91-.83-1.37-1.24a.64.64,0,0,1-.27-.66A.69.69,0,0,1,5.3,7.6c.43-.07.86-.12,1.29-.17l1-.13.83-1.77a2.81,2.81,0,0,1,.19-.39.68.68,0,0,1,1.17,0,5.44,5.44,0,0,1,.27.54ZM7,12.61l.55-.29c.41-.23.83-.45,1.23-.7a.77.77,0,0,1,.9,0c.42.26.85.48,1.28.72.13.08.27.14.49.25,0-.25,0-.43-.08-.6-.08-.43-.16-.85-.27-1.27a.91.91,0,0,1,.35-1.05c.51-.4,1-.86,1.46-1.32-.75-.09-1.45-.19-2.15-.26a.62.62,0,0,1-.58-.4c-.22-.5-.46-1-.69-1.47l-.25-.48c-.12.24-.22.41-.3.59-.21.44-.42.88-.61,1.33a.67.67,0,0,1-.62.43c-.7.06-1.4.17-2.13.26l.29.28L7.19,9.84a.61.61,0,0,1,.21.68c0,.12,0,.24-.07.37Z"/><path class="cls-1" d="M15.36,9.13a5.24,5.24,0,0,0-.47-2.3c-.05-.12-.1-.24-.14-.36A.38.38,0,0,1,15,5.94c.18-.08.37,0,.48.24A9.25,9.25,0,0,1,16,7.59a6.64,6.64,0,0,1-1.07,5.63,6.7,6.7,0,0,1-5.21,2.94,6.6,6.6,0,0,1-3-.47,12.65,12.65,0,0,1-1.57-.86.51.51,0,0,1-.16-.13.38.38,0,0,1,0-.5.34.34,0,0,1,.48-.08l.84.51a6.12,6.12,0,0,0,8.47-2.55A5.83,5.83,0,0,0,15.36,9.13Z"/><path class="cls-1" d="M9.1,2.3a7.48,7.48,0,0,1,2.78.54,2.33,2.33,0,0,1,.39.19.43.43,0,0,1,.25.53c-.08.19-.27.25-.56.15-.45-.14-.88-.33-1.34-.44a5.79,5.79,0,0,0-4.95.95A6,6,0,0,0,3.13,8.37a6,6,0,0,0,1,4.34c.09.14.17.28.26.41a.3.3,0,0,1-.06.4.5.5,0,0,1-.39.08.82.82,0,0,1-.35-.32A6.34,6.34,0,0,1,2.4,10.45a6.75,6.75,0,0,1,2.14-6.3A6.72,6.72,0,0,1,9.1,2.3Z"/><path class="cls-1" d="M14.53,4.92c0,.08-.09.23-.18.28s-.32.08-.4,0a7,7,0,0,1-.72-.72.27.27,0,0,1,0-.39c.1-.07.28-.16.37-.12a1.91,1.91,0,0,1,.84.8A.62.62,0,0,1,14.53,4.92Z"/></g></g></svg>