<svg xmlns="http://www.w3.org/2000/svg" viewBox="0 0 14.37 18.97"><defs><style>.cls-1{fill:#333;}</style></defs><g id="Layer_2" data-name="Layer 2"><g id="Layer_1-2" data-name="Layer 1"><path class="cls-1" d="M2.87,12.65a1.9,1.9,0,0,0-.28-.1,1.06,1.06,0,0,1-.76-.78,5,5,0,0,1-.12-.49.79.79,0,0,0-.38-.58l-.45-.33a.93.93,0,0,1-.39-.84,4.2,4.2,0,0,1,.08-.62.91.91,0,0,0-.14-.73,3.64,3.64,0,0,1-.28-.47,1,1,0,0,1,0-1,2.67,2.67,0,0,1,.22-.36,1,1,0,0,0,.17-.92A3.81,3.81,0,0,1,.49,4.8.87.87,0,0,1,.86,4l.54-.4a.63.63,0,0,0,.29-.45c0-.19.1-.38.15-.57a1,1,0,0,1,.75-.77,5.45,5.45,0,0,1,.58-.14.71.71,0,0,0,.47-.32L4,.91a1,1,0,0,1,1-.4A1.84,1.84,0,0,0,6.65.18a.92.92,0,0,1,1.07,0c.15.09.3.17.44.27a.82.82,0,0,0,.71.14c.17,0,.34,0,.51-.08a1,1,0,0,1,1,.45c.11.15.22.29.32.44a.76.76,0,0,0,.48.32,5.27,5.27,0,0,1,.57.14,1,1,0,0,1,.76.77c0,.18.11.35.14.53a.74.74,0,0,0,.36.54l.41.3a.94.94,0,0,1,.44.9c0,.2,0,.39-.08.59a.94.94,0,0,0,.15.76,2.78,2.78,0,0,1,.28.47.94.94,0,0,1,0,1,5.24,5.24,0,0,1-.3.51.88.88,0,0,0-.14.72,5.77,5.77,0,0,1,.08.58,1,1,0,0,1-.43.91l-.47.35a.73.73,0,0,0-.31.49,3.89,3.89,0,0,1-.12.49,1,1,0,0,1-.81.82l-.23.09c.05.13.1.26.16.38l1.71,3.81c.06.13.12.26.17.39a.31.31,0,0,1-.33.44,1.88,1.88,0,0,1-.33-.05l-1.3-.14c-.17.24-.36.5-.54.77s-.24.35-.37.51c-.24.32-.45.29-.62-.07s-.28-.62-.42-.93c-.52-1.16-1-2.33-1.57-3.5A1.47,1.47,0,0,0,8,14.08a1.19,1.19,0,0,1-1.58,0c-.09.19-.17.33-.23.48-.58,1.3-1.17,2.6-1.75,3.89a1.6,1.6,0,0,1-.1.23c-.19.36-.39.38-.63.07s-.37-.53-.56-.8l-.33-.48-1.49.16-.16,0c-.28,0-.42-.19-.31-.45.22-.53.46-1.05.7-1.58l1.24-2.77A2.2,2.2,0,0,0,2.87,12.65ZM4.94,1.09a.52.52,0,0,0-.54.27c-.09.14-.19.27-.29.41a1.22,1.22,0,0,1-.79.52l-.46.1a.56.56,0,0,0-.49.5c0,.16-.07.31-.1.46a1.19,1.19,0,0,1-.49.76,3.46,3.46,0,0,1-.31.22.69.69,0,0,0-.35.89l0,.12A1.58,1.58,0,0,1,.93,6.55c-.45.7-.47.57,0,1.3A1.57,1.57,0,0,1,1.16,9L1.1,9.3a.59.59,0,0,0,.31.72l.13.1a1.47,1.47,0,0,1,.78,1.14.8.8,0,0,0,.8.8,1.48,1.48,0,0,1,1.14.78,1.47,1.47,0,0,1,.1.13.61.61,0,0,0,.75.31l.5-.08a1.35,1.35,0,0,1,.85.2c.82.51.64.5,1.44,0a1.28,1.28,0,0,1,.89-.2,5.81,5.81,0,0,1,.58.09.54.54,0,0,0,.58-.25c.49-.66.41-.84,1.58-1.05a.56.56,0,0,0,.46-.49l0-.16a1.6,1.6,0,0,1,.83-1.25A.87.87,0,0,0,13,10a.63.63,0,0,0,.32-.75L13.21,9a1.56,1.56,0,0,1,.22-1.17c.5-.78.45-.6,0-1.34a1.61,1.61,0,0,1-.21-1.13c0-.1,0-.19.06-.29a.61.61,0,0,0-.33-.74A1.73,1.73,0,0,1,12,3v0a.59.59,0,0,0-.53-.52l-.21-.05a1.59,1.59,0,0,1-1.15-.76c-.35-.54-.43-.55-1-.43l-.25,0A1.16,1.16,0,0,1,7.93,1C7.77.89,7.59.79,7.43.69A.42.42,0,0,0,7,.69,4.48,4.48,0,0,0,6.48,1a1.32,1.32,0,0,1-1.09.2ZM4.68,13.93,4.2,15l-.47,1c-.11.21-.27.28-.44.21s-.19-.23-.11-.44.13-.31.2-.46l.75-1.68-.64-.86A43.8,43.8,0,0,0,1.66,17l1.08-.13a.48.48,0,0,1,.54.24c.2.31.42.61.64.93a44,44,0,0,0,1.86-4.24Zm5.57-.27c.28.64.57,1.27.85,1.9a2.55,2.55,0,0,1,.14.35.27.27,0,0,1-.17.34.3.3,0,0,1-.37-.12,1,1,0,0,1-.11-.23c-.17-.39-.35-.77-.52-1.16s-.25-.55-.38-.82l-.58-.05-.59-.09,1.92,4.27a8.52,8.52,0,0,0,.6-.87.62.62,0,0,1,.74-.31l1,.13-1.9-4.23Z"/><path class="cls-1" d="M8.43,5.68l1.45.17a2.32,2.32,0,0,1,.38.06.53.53,0,0,1,.24.94c-.36.34-.71.68-1.09,1a.46.46,0,0,0-.16.51c.11.45.2.91.29,1.36s-.08.69-.43.74a.74.74,0,0,1-.43-.1c-.4-.21-.8-.42-1.18-.66a.53.53,0,0,0-.62,0c-.39.25-.8.46-1.21.68a.54.54,0,0,1-.6,0,.57.57,0,0,1-.24-.67c.09-.45.17-.91.28-1.36A.48.48,0,0,0,5,7.83c-.37-.31-.71-.65-1.07-1a.5.5,0,0,1-.21-.51.54.54,0,0,1,.45-.45l1-.13.82-.1c.21-.46.43-.92.64-1.37A2.8,2.8,0,0,1,6.73,4a.53.53,0,0,1,.91,0c.08.13.14.28.21.42C8,4.83,8.23,5.23,8.43,5.68Zm-3,4.12.43-.22c.32-.18.64-.35,1-.55a.62.62,0,0,1,.71,0c.32.2.66.38,1,.57l.38.19c0-.2,0-.34-.06-.47-.07-.33-.13-.66-.21-1a.72.72,0,0,1,.27-.81c.39-.31.75-.67,1.14-1-.59-.08-1.13-.16-1.68-.21A.48.48,0,0,1,7.91,6c-.17-.39-.35-.77-.53-1.15l-.2-.36c-.09.18-.17.31-.23.45-.16.34-.33.68-.48,1A.51.51,0,0,1,6,6.28c-.54,0-1.08.13-1.65.2l.23.22c.34.32.67.64,1,1a.46.46,0,0,1,.16.52c0,.1,0,.2,0,.29Z"/><path class="cls-1" d="M11.94,7.1a4.08,4.08,0,0,0-.37-1.79A2.33,2.33,0,0,1,11.46,5a.3.3,0,0,1,.17-.41c.14-.06.28,0,.37.18a7.28,7.28,0,0,1,.41,1.1,5.18,5.18,0,0,1-.83,4.38,5.2,5.2,0,0,1-4,2.28,5.08,5.08,0,0,1-2.35-.36A11.94,11.94,0,0,1,4,11.53a.35.35,0,0,1-.13-.11.3.3,0,0,1,0-.38A.27.27,0,0,1,4.19,11l.65.4a4.76,4.76,0,0,0,6.59-2A4.62,4.62,0,0,0,11.94,7.1Z"/><path class="cls-1" d="M7.07,1.79a5.85,5.85,0,0,1,2.16.41l.31.15a.34.34,0,0,1,.19.42c-.06.15-.21.19-.43.12s-.69-.26-1-.35a4.48,4.48,0,0,0-3.85.74,4.66,4.66,0,0,0-2,3.22A4.7,4.7,0,0,0,3.2,9.88c.07.11.14.21.2.32a.23.23,0,0,1,0,.31.41.41,0,0,1-.3.06.72.72,0,0,1-.28-.24,5.09,5.09,0,0,1-.92-2.21,5.26,5.26,0,0,1,1.67-4.9A5.19,5.19,0,0,1,7.07,1.79Z"/><path class="cls-1" d="M11.29,3.83c0,.06-.07.18-.14.21a.35.35,0,0,1-.3,0,4.23,4.23,0,0,1-.56-.56.2.2,0,0,1,0-.3c.08-.06.22-.13.29-.09a1.39,1.39,0,0,1,.65.62S11.28,3.77,11.29,3.83Z"/></g></g></svg>