<svg xmlns="http://www.w3.org/2000/svg" viewBox="0 0 8.79 8.79"><defs><style>.cls-1{fill:#bc2130;}</style></defs><g id="Layer_2" data-name="Layer 2"><g id="Layer_1-2" data-name="Layer 1"><path class="cls-1" d="M3,4.39,1.39,2.84.28,1.73A.77.77,0,0,1,.27.55l.3-.3a.77.77,0,0,1,1.14,0L4.23,2.78l.16.15.17-.15L7,.3A.78.78,0,0,1,8.27.3c.1.1.2.19.29.29a.76.76,0,0,1,0,1.12L6,4.23l-.15.17L6,4.56,8.46,7a.79.79,0,0,1,0,1.29l-.21.21a.77.77,0,0,1-1.2,0L4.78,6.22l-.36-.38L4.24,6,1.79,8.45a.8.8,0,0,1-1.3,0l-.2-.2A.78.78,0,0,1,.3,7L1.79,5.55Z"/></g></g></svg>