<svg xmlns="http://www.w3.org/2000/svg" viewBox="0 0 11.09 15.79"><defs><style>.cls-1{fill:#bc2130;}</style></defs><g id="Layer_2" data-name="Layer 2"><g id="Layer_1-2" data-name="Layer 1"><path class="cls-1" d="M11.09,10.26a5.33,5.33,0,0,1-1.54,3.82,5.31,5.31,0,0,1-4.67,1.66,5.36,5.36,0,0,1-4.59-3.8A4.69,4.69,0,0,1,.55,8.1C1.11,7.05,1.71,6,2.3,5Q3.58,2.71,4.86.46s0,0,0,0c.21-.51.71-.63,1.07,0,.84,1.46,1.74,2.9,2.61,4.35.66,1.1,1.33,2.19,2,3.3A4.06,4.06,0,0,1,11.09,10.26ZM5.42,1.38a2,2,0,0,0-.12.2Q3.41,4.89,1.53,8.23a4.2,4.2,0,0,0-.3.6,4.45,4.45,0,0,0,1.32,4.92,4.56,4.56,0,0,0,6.5-.51,4.12,4.12,0,0,0,.74-4.56,6.23,6.23,0,0,0-.44-.8L6.71,3.5Z"/></g></g></svg>