<svg xmlns="http://www.w3.org/2000/svg" viewBox="0 0 13.62 13.61"><defs><style>.cls-1{fill:#bc2130;}</style></defs><g id="Layer_2" data-name="Layer 2"><g id="Layer_1-2" data-name="Layer 1"><path class="cls-1" d="M6.57,13.61a6.81,6.81,0,1,1,7-6.56A6.81,6.81,0,0,1,6.57,13.61Zm.27-.72a6.12,6.12,0,0,0,6.05-6.14,6.08,6.08,0,1,0-6.05,6.14Z"/><path class="cls-1" d="M8.05,6.09A1.45,1.45,0,0,1,7.84,7.8a1.43,1.43,0,0,1-1.72.26A1.37,1.37,0,0,1,5.5,7.4,1.68,1.68,0,0,1,5.57,6c-.12-.1-.26-.19-.38-.3l-2-2A1.55,1.55,0,0,1,3,3.44.35.35,0,0,1,3,3a.36.36,0,0,1,.49,0,2.73,2.73,0,0,1,.25.23l2,2,.32.31C7.05,5.26,7.66,5.43,8.05,6.09Zm-2,.69a.7.7,0,0,0,.71.73.71.71,0,0,0,0-1.41A.7.7,0,0,0,6.1,6.78Z"/><path class="cls-1" d="M6.75,2.15A4.59,4.59,0,0,0,5,2.5a1.3,1.3,0,0,0-.26.14.34.34,0,0,0,.28.61,1.73,1.73,0,0,0,.32-.11,3.94,3.94,0,0,1,5.31,3c.05.23,0,.46.06.69a.37.37,0,0,0,.37.33.37.37,0,0,0,.34-.35.38.38,0,0,0,0-.15,8.59,8.59,0,0,0-.25-1.36A4.65,4.65,0,0,0,6.75,2.15Z"/><path class="cls-1" d="M2.15,6.71a.56.56,0,0,0,0,.17.35.35,0,0,0,.32.28.34.34,0,0,0,.35-.25,2.51,2.51,0,0,0,0-.27A3.66,3.66,0,0,1,3.17,5.3C3.3,5,3.25,4.78,3,4.69s-.38,0-.52.32A4.62,4.62,0,0,0,2.15,6.71Z"/></g></g></svg>