<svg xmlns="http://www.w3.org/2000/svg" viewBox="0 0 9.41 15.79"><defs><style>.cls-1{fill:#bc2130;}</style></defs><g id="Layer_2" data-name="Layer 2"><g id="Layer_1-2" data-name="Layer 1"><path class="cls-1" d="M3,9.11H.54c-.5,0-.63-.17-.48-.64.33-1,.67-2,1-3L2.71.63c0-.11.07-.22.11-.33A.42.42,0,0,1,3.25,0H6.63C7,0,7.13.19,7,.59,6.63,1.7,6.25,2.8,5.87,3.91c-.09.27-.17.54-.28.87H8.88c.19,0,.39,0,.49.19a.5.5,0,0,1-.11.52L6,10.33l-3.35,5-.15.22c-.11.16-.25.3-.46.2a.37.37,0,0,1-.2-.47c.1-.51.18-1,.28-1.54L3,9.45C3,9.36,3,9.26,3,9.11ZM.81,8.41H3.28c.45,0,.56.13.49.58l0,.17c-.23,1.25-.47,2.5-.7,3.75,0,.24-.09.48-.14.72l.07,0L8.44,5.48H5.25c-.44,0-.56-.17-.43-.6,0-.11.07-.22.1-.33.36-1,.72-2.07,1.07-3.11.08-.23.15-.46.22-.71H3.42Z"/></g></g></svg>