<svg xmlns="http://www.w3.org/2000/svg" viewBox="0 0 16.17 16.17"><defs><style>.cls-1{fill:#fff;}</style></defs><g id="Layer_2" data-name="Layer 2"><g id="Layer_1-2" data-name="Layer 1"><path class="cls-1" d="M0,15.19V1s0,0,0,0A1.05,1.05,0,0,1,.78,0L.9,0H15.28l0,0a1.08,1.08,0,0,1,.85.86s0,0,0,0V15.29a1.07,1.07,0,0,1-1,.87H1s-.09,0-.14,0a1.06,1.06,0,0,1-.84-.8S0,15.25,0,15.19Zm6.18-10s.06,0,.09,0a.83.83,0,0,1,.32.14.67.67,0,0,1,.25.47,4.32,4.32,0,0,1,0,.62,7.67,7.67,0,0,1,0,1.07,1.12,1.12,0,0,1-.12.35.22.22,0,0,1-.3.11.67.67,0,0,1-.24-.16,2.31,2.31,0,0,1-.34-.42c-.16-.24-.31-.48-.46-.73a9.85,9.85,0,0,1-.51-1c0-.1-.09-.21-.14-.32a.43.43,0,0,0-.42-.26H2.69l-.2,0a.19.19,0,0,0-.14.25.44.44,0,0,0,0,.15c.11.25.22.5.34.74s.28.57.43.85l.05.11c.23.4.45.81.7,1.2s.39.61.61.9.28.35.42.52a4.43,4.43,0,0,0,.82.74,4.3,4.3,0,0,0,1,.53,4,4,0,0,0,.59.16,2.69,2.69,0,0,0,.63.06H8a3.1,3.1,0,0,0,.68,0,.86.86,0,0,0,.24-.11s.05-.05.06-.08A1.16,1.16,0,0,0,9,11c0-.13,0-.27,0-.41a1.31,1.31,0,0,1,.11-.42.51.51,0,0,1,.17-.24.29.29,0,0,1,.32-.06,1,1,0,0,1,.35.26c.16.16.3.33.46.49a3.08,3.08,0,0,0,.51.51,1.28,1.28,0,0,0,.78.26h1.44a1.28,1.28,0,0,0,.43-.1.3.3,0,0,0,.19-.31.67.67,0,0,0-.07-.24,4.85,4.85,0,0,0-.5-.69c-.15-.17-.32-.32-.48-.48s-.21-.2-.32-.3a2.59,2.59,0,0,1-.39-.42A.44.44,0,0,1,12,8.36a1.15,1.15,0,0,1,.12-.25c.25-.33.49-.66.74-1s.47-.64.67-1a4.78,4.78,0,0,0,.23-.45.73.73,0,0,0,.09-.32.22.22,0,0,0-.19-.25,1,1,0,0,0-.25,0H11.48l-.13,0a.32.32,0,0,0-.2.21c-.06.13-.11.27-.17.4s-.2.47-.32.69-.23.4-.35.6a5.71,5.71,0,0,1-.49.69A2.18,2.18,0,0,1,9.54,8c-.17.13-.25.09-.36,0l-.06-.09A.86.86,0,0,1,9,7.46V7c0-.23,0-.45,0-.67s0-.63,0-1A.84.84,0,0,0,9,5.13a.31.31,0,0,0-.2-.19l-.24-.07a1.93,1.93,0,0,0-.47,0A9.55,9.55,0,0,0,7,4.83a1.72,1.72,0,0,0-.51.11.69.69,0,0,0-.27.17A.17.17,0,0,0,6.18,5.23Z"/></g></g></svg>