<svg xmlns="http://www.w3.org/2000/svg" viewBox="0 0 16.17 16.18"><defs><style>.cls-1{fill:#fff;}</style></defs><g id="Layer_2" data-name="Layer 2"><g id="Layer_1-2" data-name="Layer 1"><path class="cls-1" d="M0,13.42V2.65s0-.07,0-.11c0-.23,0-.45,0-.67a1.5,1.5,0,0,1,.17-.69A2.2,2.2,0,0,1,1,.28,1.71,1.71,0,0,1,1.74,0a3.62,3.62,0,0,1,.47,0H9.94l4,0h.56a.64.64,0,0,1,.2,0,2,2,0,0,1,1.18.85,1.63,1.63,0,0,1,.32.92c0,.22,0,.45,0,.67V8.6c0,1.31,0,2.62,0,3.94,0,.58,0,1.17,0,1.76a3.05,3.05,0,0,1,0,.41,1.22,1.22,0,0,1-.21.48,2.22,2.22,0,0,1-.83.78,1.43,1.43,0,0,1-.61.17c-.29,0-.58,0-.87,0H3.43l-1.56,0-.41,0A1.4,1.4,0,0,1,1,15.89a2.19,2.19,0,0,1-.85-1,.6.6,0,0,1-.06-.23c0-.19,0-.38,0-.57s0-.38,0-.57C0,13.49,0,13.45,0,13.42Zm1.76,1,.13,0,2.27-.7,1-.31a.23.23,0,0,1,.16,0l.27.13a5.47,5.47,0,0,0,.85.32,5.2,5.2,0,0,0,1.11.22c.26,0,.52,0,.79,0A6,6,0,0,0,9.13,14a5.66,5.66,0,0,0,1-.22,6.21,6.21,0,0,0,1.76-.89,6.33,6.33,0,0,0,1.89-2.22,6.16,6.16,0,0,0,.53-1.51,2.5,2.5,0,0,0,.09-.61c0-.32,0-.65,0-1a3.56,3.56,0,0,0-.07-.8,6.51,6.51,0,0,0-.45-1.42,5.69,5.69,0,0,0-1.16-1.71A5.9,5.9,0,0,0,11.18,2.5,6.65,6.65,0,0,0,9.91,2a4.53,4.53,0,0,0-1.09-.19l-1,0a3.81,3.81,0,0,0-.59,0,6,6,0,0,0-1.09.27A6.09,6.09,0,0,0,3.4,4,6.09,6.09,0,0,0,2,7.6a5.85,5.85,0,0,0,.06,1.25,5.71,5.71,0,0,0,.18.82,6.45,6.45,0,0,0,.59,1.38.18.18,0,0,1,0,.16c-.31.9-.61,1.81-.92,2.72C1.86,14.08,1.82,14.24,1.76,14.42Z"/><path class="cls-1" d="M3.37,12.86c0-.15.08-.27.12-.4l.45-1.37a.2.2,0,0,0,0-.21c-.07-.12-.15-.24-.22-.37a4.72,4.72,0,0,1-.56-1.4A5.16,5.16,0,0,1,3,7.59a5.08,5.08,0,0,1,1-2.7,5.16,5.16,0,0,1,1.72-1.5A5.49,5.49,0,0,1,7,2.91a4.57,4.57,0,0,1,1-.14,6.37,6.37,0,0,1,1,0c.21,0,.41.08.62.13a5.12,5.12,0,0,1,1.32.57,5.29,5.29,0,0,1,1.44,1.31,5.47,5.47,0,0,1,.91,1.9,3.3,3.3,0,0,1,.11.69c0,.32,0,.65,0,1a4.2,4.2,0,0,1-.22,1.11,5.13,5.13,0,0,1-2.36,2.89,5.31,5.31,0,0,1-1.55.6,4,4,0,0,1-.5.07l-.55,0A3.49,3.49,0,0,1,7.48,13a5.23,5.23,0,0,1-1-.22,5.14,5.14,0,0,1-1.11-.53.24.24,0,0,0-.2,0l-1.77.56ZM6.21,5.09H6.13a.48.48,0,0,0-.38.15,1.58,1.58,0,0,0-.22.23,1.69,1.69,0,0,0-.34,1.39,2.44,2.44,0,0,0,.34.88A7.8,7.8,0,0,0,6.94,9.48,4.83,4.83,0,0,0,8,10.25a7.49,7.49,0,0,0,1.39.52,1.79,1.79,0,0,0,.61.07,1.77,1.77,0,0,0,1-.41,1,1,0,0,0,.34-.48,2.63,2.63,0,0,0,.07-.49.2.2,0,0,0-.12-.19l-.07,0c-.29-.14-.58-.29-.88-.42l-.38-.16a.18.18,0,0,0-.24.07c-.16.19-.32.38-.49.56s-.12.16-.34.08a3.54,3.54,0,0,1-.62-.3A4,4,0,0,1,7,7.88c-.08-.11-.15-.23-.22-.34a.12.12,0,0,1,0-.14,1.09,1.09,0,0,1,.13-.17,3.58,3.58,0,0,0,.29-.39.34.34,0,0,0,0-.31,3,3,0,0,1-.12-.32l-.42-1a.19.19,0,0,0-.17-.13Z"/></g></g></svg>